%TF.GenerationSoftware,KiCad,Pcbnew,(5.1.9)-1*%
%TF.CreationDate,2021-02-10T15:31:51-05:00*%
%TF.ProjectId,alpine,616c7069-6e65-42e6-9b69-6361645f7063,rev?*%
%TF.SameCoordinates,Original*%
%TF.FileFunction,Profile,NP*%
%FSLAX46Y46*%
G04 Gerber Fmt 4.6, Leading zero omitted, Abs format (unit mm)*
G04 Created by KiCad (PCBNEW (5.1.9)-1) date 2021-02-10 15:31:51*
%MOMM*%
%LPD*%
G01*
G04 APERTURE LIST*
%TA.AperFunction,Profile*%
%ADD10C,0.100000*%
%TD*%
G04 APERTURE END LIST*
D10*
X13250000Y-131249999D02*
G75*
G03*
X13250000Y-131249999I-1600000J0D01*
G01*
X288250000Y-132100000D02*
G75*
G02*
X289250000Y-131100000I1000000J0D01*
G01*
X301250000Y-131100000D02*
X289250000Y-131100000D01*
X301250000Y-131100000D02*
G75*
G02*
X302250000Y-132100000I0J-1000000D01*
G01*
X302250000Y-144100000D02*
X302250000Y-132100000D01*
X302250000Y-144100000D02*
G75*
G02*
X301250000Y-145100000I-1000000J0D01*
G01*
X289250000Y-145100000D02*
X301250000Y-145100000D01*
X289250000Y-145100000D02*
G75*
G02*
X288250000Y-144100000I0J1000000D01*
G01*
X288250000Y-132100000D02*
X288250000Y-144100000D01*
X269200000Y-132100000D02*
G75*
G02*
X270200000Y-131100000I1000000J0D01*
G01*
X282200000Y-131100000D02*
X270200000Y-131100000D01*
X282200000Y-131100000D02*
G75*
G02*
X283200000Y-132100000I0J-1000000D01*
G01*
X283200000Y-144100000D02*
X283200000Y-132100000D01*
X283200000Y-144100000D02*
G75*
G02*
X282200000Y-145100000I-1000000J0D01*
G01*
X270200000Y-145100000D02*
X282200000Y-145100000D01*
X270200000Y-145100000D02*
G75*
G02*
X269200000Y-144100000I0J1000000D01*
G01*
X269200000Y-132100000D02*
X269200000Y-144100000D01*
X250150000Y-132100000D02*
G75*
G02*
X251150000Y-131100000I1000000J0D01*
G01*
X263150000Y-131100000D02*
X251150000Y-131100000D01*
X263150000Y-131100000D02*
G75*
G02*
X264150000Y-132100000I0J-1000000D01*
G01*
X264150000Y-144100000D02*
X264150000Y-132100000D01*
X264150000Y-144100000D02*
G75*
G02*
X263150000Y-145100000I-1000000J0D01*
G01*
X251150000Y-145100000D02*
X263150000Y-145100000D01*
X251150000Y-145100000D02*
G75*
G02*
X250150000Y-144100000I0J1000000D01*
G01*
X250150000Y-132100000D02*
X250150000Y-144100000D01*
X231100000Y-132100000D02*
G75*
G02*
X232100000Y-131100000I1000000J0D01*
G01*
X244100000Y-131100000D02*
X232100000Y-131100000D01*
X244100000Y-131100000D02*
G75*
G02*
X245100000Y-132100000I0J-1000000D01*
G01*
X245100000Y-144100000D02*
X245100000Y-132100000D01*
X245100000Y-144100000D02*
G75*
G02*
X244100000Y-145100000I-1000000J0D01*
G01*
X232100000Y-145100000D02*
X244100000Y-145100000D01*
X232100000Y-145100000D02*
G75*
G02*
X231100000Y-144100000I0J1000000D01*
G01*
X231100000Y-132100000D02*
X231100000Y-144100000D01*
X212050000Y-132100000D02*
G75*
G02*
X213050000Y-131100000I1000000J0D01*
G01*
X225050000Y-131100000D02*
X213050000Y-131100000D01*
X225050000Y-131100000D02*
G75*
G02*
X226050000Y-132100000I0J-1000000D01*
G01*
X226050000Y-144100000D02*
X226050000Y-132100000D01*
X226050000Y-144100000D02*
G75*
G02*
X225050000Y-145100000I-1000000J0D01*
G01*
X213050000Y-145100000D02*
X225050000Y-145100000D01*
X213050000Y-145100000D02*
G75*
G02*
X212050000Y-144100000I0J1000000D01*
G01*
X212050000Y-132100000D02*
X212050000Y-144100000D01*
X193000000Y-132100000D02*
G75*
G02*
X194000000Y-131100000I1000000J0D01*
G01*
X206000000Y-131100000D02*
X194000000Y-131100000D01*
X206000000Y-131100000D02*
G75*
G02*
X207000000Y-132100000I0J-1000000D01*
G01*
X207000000Y-144100000D02*
X207000000Y-132100000D01*
X207000000Y-144100000D02*
G75*
G02*
X206000000Y-145100000I-1000000J0D01*
G01*
X194000000Y-145100000D02*
X206000000Y-145100000D01*
X194000000Y-145100000D02*
G75*
G02*
X193000000Y-144100000I0J1000000D01*
G01*
X193000000Y-132100000D02*
X193000000Y-144100000D01*
X173950000Y-132100000D02*
G75*
G02*
X174950000Y-131100000I1000000J0D01*
G01*
X186950000Y-131100000D02*
X174950000Y-131100000D01*
X186950000Y-131100000D02*
G75*
G02*
X187950000Y-132100000I0J-1000000D01*
G01*
X187950000Y-144100000D02*
X187950000Y-132100000D01*
X187950000Y-144100000D02*
G75*
G02*
X186950000Y-145100000I-1000000J0D01*
G01*
X174950000Y-145100000D02*
X186950000Y-145100000D01*
X174950000Y-145100000D02*
G75*
G02*
X173950000Y-144100000I0J1000000D01*
G01*
X173950000Y-132100000D02*
X173950000Y-144100000D01*
X154900000Y-132100000D02*
G75*
G02*
X155900000Y-131100000I1000000J0D01*
G01*
X167900000Y-131100000D02*
X155900000Y-131100000D01*
X167900000Y-131100000D02*
G75*
G02*
X168900000Y-132100000I0J-1000000D01*
G01*
X168900000Y-144100000D02*
X168900000Y-132100000D01*
X168900000Y-144100000D02*
G75*
G02*
X167900000Y-145100000I-1000000J0D01*
G01*
X155900000Y-145100000D02*
X167900000Y-145100000D01*
X155900000Y-145100000D02*
G75*
G02*
X154900000Y-144100000I0J1000000D01*
G01*
X154900000Y-132100000D02*
X154900000Y-144100000D01*
X135850000Y-132100000D02*
G75*
G02*
X136850000Y-131100000I1000000J0D01*
G01*
X148850000Y-131100000D02*
X136850000Y-131100000D01*
X148850000Y-131100000D02*
G75*
G02*
X149850000Y-132100000I0J-1000000D01*
G01*
X149850000Y-144100000D02*
X149850000Y-132100000D01*
X149850000Y-144100000D02*
G75*
G02*
X148850000Y-145100000I-1000000J0D01*
G01*
X136850000Y-145100000D02*
X148850000Y-145100000D01*
X136850000Y-145100000D02*
G75*
G02*
X135850000Y-144100000I0J1000000D01*
G01*
X135850000Y-132100000D02*
X135850000Y-144100000D01*
X116800000Y-132100000D02*
G75*
G02*
X117800000Y-131100000I1000000J0D01*
G01*
X129800000Y-131100000D02*
X117800000Y-131100000D01*
X129800000Y-131100000D02*
G75*
G02*
X130800000Y-132100000I0J-1000000D01*
G01*
X130800000Y-144100000D02*
X130800000Y-132100000D01*
X130800000Y-144100000D02*
G75*
G02*
X129800000Y-145100000I-1000000J0D01*
G01*
X117800000Y-145100000D02*
X129800000Y-145100000D01*
X117800000Y-145100000D02*
G75*
G02*
X116800000Y-144100000I0J1000000D01*
G01*
X116800000Y-132100000D02*
X116800000Y-144100000D01*
X97750000Y-132100000D02*
G75*
G02*
X98750000Y-131100000I1000000J0D01*
G01*
X110750000Y-131100000D02*
X98750000Y-131100000D01*
X110750000Y-131100000D02*
G75*
G02*
X111750000Y-132100000I0J-1000000D01*
G01*
X111750000Y-144100000D02*
X111750000Y-132100000D01*
X111750000Y-144100000D02*
G75*
G02*
X110750000Y-145100000I-1000000J0D01*
G01*
X98750000Y-145100000D02*
X110750000Y-145100000D01*
X98750000Y-145100000D02*
G75*
G02*
X97750000Y-144100000I0J1000000D01*
G01*
X97750000Y-132100000D02*
X97750000Y-144100000D01*
X78700000Y-132100000D02*
G75*
G02*
X79700000Y-131100000I1000000J0D01*
G01*
X91700000Y-131100000D02*
X79700000Y-131100000D01*
X91700000Y-131100000D02*
G75*
G02*
X92700000Y-132100000I0J-1000000D01*
G01*
X92700000Y-144100000D02*
X92700000Y-132100000D01*
X92700000Y-144100000D02*
G75*
G02*
X91700000Y-145100000I-1000000J0D01*
G01*
X79700000Y-145100000D02*
X91700000Y-145100000D01*
X79700000Y-145100000D02*
G75*
G02*
X78700000Y-144100000I0J1000000D01*
G01*
X78700000Y-132100000D02*
X78700000Y-144100000D01*
X59650000Y-132100000D02*
G75*
G02*
X60650000Y-131100000I1000000J0D01*
G01*
X72650000Y-131100000D02*
X60650000Y-131100000D01*
X72650000Y-131100000D02*
G75*
G02*
X73650000Y-132100000I0J-1000000D01*
G01*
X73650000Y-144100000D02*
X73650000Y-132100000D01*
X73650000Y-144100000D02*
G75*
G02*
X72650000Y-145100000I-1000000J0D01*
G01*
X60650000Y-145100000D02*
X72650000Y-145100000D01*
X60650000Y-145100000D02*
G75*
G02*
X59650000Y-144100000I0J1000000D01*
G01*
X59650000Y-132100000D02*
X59650000Y-144100000D01*
X45075000Y-144100000D02*
G75*
G02*
X44075000Y-145100000I-1000000J0D01*
G01*
X32075000Y-145100000D02*
X44075000Y-145100000D01*
X32075000Y-145100000D02*
G75*
G02*
X31075000Y-144100000I0J1000000D01*
G01*
X31075000Y-132100000D02*
X31075000Y-144100000D01*
X31075000Y-132100000D02*
G75*
G02*
X32075000Y-131100000I1000000J0D01*
G01*
X44075000Y-131100000D02*
X32075000Y-131100000D01*
X44075000Y-131100000D02*
G75*
G02*
X45075000Y-132100000I0J-1000000D01*
G01*
X45075000Y-144100000D02*
X45075000Y-132100000D01*
X22710000Y-125050000D02*
G75*
G02*
X20710000Y-125050000I-1000000J0D01*
G01*
X20710000Y-113050000D02*
X20710000Y-125050000D01*
X20710000Y-113050000D02*
G75*
G02*
X22710000Y-113050000I1000000J0D01*
G01*
X22710000Y-125050000D02*
X22710000Y-113050000D01*
X26310000Y-113050000D02*
G75*
G02*
X27310000Y-112050000I1000000J0D01*
G01*
X39310000Y-112050000D02*
X27310000Y-112050000D01*
X39310000Y-112050000D02*
G75*
G02*
X40310000Y-113050000I0J-1000000D01*
G01*
X40310000Y-125050000D02*
X40310000Y-113050000D01*
X40310000Y-125050000D02*
G75*
G02*
X39310000Y-126050000I-1000000J0D01*
G01*
X27310000Y-126050000D02*
X39310000Y-126050000D01*
X27310000Y-126050000D02*
G75*
G02*
X26310000Y-125050000I0J1000000D01*
G01*
X26310000Y-113050000D02*
X26310000Y-125050000D01*
X43910000Y-113050000D02*
G75*
G02*
X45910000Y-113050000I1000000J0D01*
G01*
X45910000Y-125050000D02*
X45910000Y-113050000D01*
X45910000Y-125050000D02*
G75*
G02*
X43910000Y-125050000I-1000000J0D01*
G01*
X43910000Y-113050000D02*
X43910000Y-125050000D01*
X50125000Y-113050000D02*
G75*
G02*
X51125000Y-112050000I1000000J0D01*
G01*
X63125000Y-112050000D02*
X51125000Y-112050000D01*
X63125000Y-112050000D02*
G75*
G02*
X64125000Y-113050000I0J-1000000D01*
G01*
X64125000Y-125050000D02*
X64125000Y-113050000D01*
X64125000Y-125050000D02*
G75*
G02*
X63125000Y-126050000I-1000000J0D01*
G01*
X51125000Y-126050000D02*
X63125000Y-126050000D01*
X51125000Y-126050000D02*
G75*
G02*
X50125000Y-125050000I0J1000000D01*
G01*
X50125000Y-113050000D02*
X50125000Y-125050000D01*
X69175000Y-113050000D02*
G75*
G02*
X70175000Y-112050000I1000000J0D01*
G01*
X82175000Y-112050000D02*
X70175000Y-112050000D01*
X82175000Y-112050000D02*
G75*
G02*
X83175000Y-113050000I0J-1000000D01*
G01*
X83175000Y-125050000D02*
X83175000Y-113050000D01*
X83175000Y-125050000D02*
G75*
G02*
X82175000Y-126050000I-1000000J0D01*
G01*
X70175000Y-126050000D02*
X82175000Y-126050000D01*
X70175000Y-126050000D02*
G75*
G02*
X69175000Y-125050000I0J1000000D01*
G01*
X69175000Y-113050000D02*
X69175000Y-125050000D01*
X88225000Y-113050000D02*
G75*
G02*
X89225000Y-112050000I1000000J0D01*
G01*
X101225000Y-112050000D02*
X89225000Y-112050000D01*
X101225000Y-112050000D02*
G75*
G02*
X102225000Y-113050000I0J-1000000D01*
G01*
X102225000Y-125050000D02*
X102225000Y-113050000D01*
X102225000Y-125050000D02*
G75*
G02*
X101225000Y-126050000I-1000000J0D01*
G01*
X89225000Y-126050000D02*
X101225000Y-126050000D01*
X89225000Y-126050000D02*
G75*
G02*
X88225000Y-125050000I0J1000000D01*
G01*
X88225000Y-113050000D02*
X88225000Y-125050000D01*
X107275000Y-113050000D02*
G75*
G02*
X108275000Y-112050000I1000000J0D01*
G01*
X120275000Y-112050000D02*
X108275000Y-112050000D01*
X120275000Y-112050000D02*
G75*
G02*
X121275000Y-113050000I0J-1000000D01*
G01*
X121275000Y-125050000D02*
X121275000Y-113050000D01*
X121275000Y-125050000D02*
G75*
G02*
X120275000Y-126050000I-1000000J0D01*
G01*
X108275000Y-126050000D02*
X120275000Y-126050000D01*
X108275000Y-126050000D02*
G75*
G02*
X107275000Y-125050000I0J1000000D01*
G01*
X107275000Y-113050000D02*
X107275000Y-125050000D01*
X126325000Y-113050000D02*
G75*
G02*
X127325000Y-112050000I1000000J0D01*
G01*
X139325000Y-112050000D02*
X127325000Y-112050000D01*
X139325000Y-112050000D02*
G75*
G02*
X140325000Y-113050000I0J-1000000D01*
G01*
X140325000Y-125050000D02*
X140325000Y-113050000D01*
X140325000Y-125050000D02*
G75*
G02*
X139325000Y-126050000I-1000000J0D01*
G01*
X127325000Y-126050000D02*
X139325000Y-126050000D01*
X127325000Y-126050000D02*
G75*
G02*
X126325000Y-125050000I0J1000000D01*
G01*
X126325000Y-113050000D02*
X126325000Y-125050000D01*
X145375000Y-113050000D02*
G75*
G02*
X146375000Y-112050000I1000000J0D01*
G01*
X158375000Y-112050000D02*
X146375000Y-112050000D01*
X158375000Y-112050000D02*
G75*
G02*
X159375000Y-113050000I0J-1000000D01*
G01*
X159375000Y-125050000D02*
X159375000Y-113050000D01*
X159375000Y-125050000D02*
G75*
G02*
X158375000Y-126050000I-1000000J0D01*
G01*
X146375000Y-126050000D02*
X158375000Y-126050000D01*
X146375000Y-126050000D02*
G75*
G02*
X145375000Y-125050000I0J1000000D01*
G01*
X145375000Y-113050000D02*
X145375000Y-125050000D01*
X164425000Y-113050000D02*
G75*
G02*
X165425000Y-112050000I1000000J0D01*
G01*
X177425000Y-112050000D02*
X165425000Y-112050000D01*
X177425000Y-112050000D02*
G75*
G02*
X178425000Y-113050000I0J-1000000D01*
G01*
X178425000Y-125050000D02*
X178425000Y-113050000D01*
X178425000Y-125050000D02*
G75*
G02*
X177425000Y-126050000I-1000000J0D01*
G01*
X165425000Y-126050000D02*
X177425000Y-126050000D01*
X165425000Y-126050000D02*
G75*
G02*
X164425000Y-125050000I0J1000000D01*
G01*
X164425000Y-113050000D02*
X164425000Y-125050000D01*
X183475000Y-113050000D02*
G75*
G02*
X184475000Y-112050000I1000000J0D01*
G01*
X196475000Y-112050000D02*
X184475000Y-112050000D01*
X196475000Y-112050000D02*
G75*
G02*
X197475000Y-113050000I0J-1000000D01*
G01*
X197475000Y-125050000D02*
X197475000Y-113050000D01*
X197475000Y-125050000D02*
G75*
G02*
X196475000Y-126050000I-1000000J0D01*
G01*
X184475000Y-126050000D02*
X196475000Y-126050000D01*
X184475000Y-126050000D02*
G75*
G02*
X183475000Y-125050000I0J1000000D01*
G01*
X183475000Y-113050000D02*
X183475000Y-125050000D01*
X202525000Y-113050000D02*
G75*
G02*
X203525000Y-112050000I1000000J0D01*
G01*
X215525000Y-112050000D02*
X203525000Y-112050000D01*
X215525000Y-112050000D02*
G75*
G02*
X216525000Y-113050000I0J-1000000D01*
G01*
X216525000Y-125050000D02*
X216525000Y-113050000D01*
X216525000Y-125050000D02*
G75*
G02*
X215525000Y-126050000I-1000000J0D01*
G01*
X203525000Y-126050000D02*
X215525000Y-126050000D01*
X203525000Y-126050000D02*
G75*
G02*
X202525000Y-125050000I0J1000000D01*
G01*
X202525000Y-113050000D02*
X202525000Y-125050000D01*
X221575000Y-113050000D02*
G75*
G02*
X222575000Y-112050000I1000000J0D01*
G01*
X234575000Y-112050000D02*
X222575000Y-112050000D01*
X234575000Y-112050000D02*
G75*
G02*
X235575000Y-113050000I0J-1000000D01*
G01*
X235575000Y-125050000D02*
X235575000Y-113050000D01*
X235575000Y-125050000D02*
G75*
G02*
X234575000Y-126050000I-1000000J0D01*
G01*
X222575000Y-126050000D02*
X234575000Y-126050000D01*
X222575000Y-126050000D02*
G75*
G02*
X221575000Y-125050000I0J1000000D01*
G01*
X221575000Y-113050000D02*
X221575000Y-125050000D01*
X240625000Y-113050000D02*
G75*
G02*
X241625000Y-112050000I1000000J0D01*
G01*
X253625000Y-112050000D02*
X241625000Y-112050000D01*
X253625000Y-112050000D02*
G75*
G02*
X254625000Y-113050000I0J-1000000D01*
G01*
X254625000Y-125050000D02*
X254625000Y-113050000D01*
X254625000Y-125050000D02*
G75*
G02*
X253625000Y-126050000I-1000000J0D01*
G01*
X241625000Y-126050000D02*
X253625000Y-126050000D01*
X241625000Y-126050000D02*
G75*
G02*
X240625000Y-125050000I0J1000000D01*
G01*
X240625000Y-113050000D02*
X240625000Y-125050000D01*
X259675000Y-113050000D02*
G75*
G02*
X260675000Y-112050000I1000000J0D01*
G01*
X272675000Y-112050000D02*
X260675000Y-112050000D01*
X272675000Y-112050000D02*
G75*
G02*
X273675000Y-113050000I0J-1000000D01*
G01*
X273675000Y-125050000D02*
X273675000Y-113050000D01*
X273675000Y-125050000D02*
G75*
G02*
X272675000Y-126050000I-1000000J0D01*
G01*
X260675000Y-126050000D02*
X272675000Y-126050000D01*
X260675000Y-126050000D02*
G75*
G02*
X259675000Y-125050000I0J1000000D01*
G01*
X259675000Y-113050000D02*
X259675000Y-125050000D01*
X279890000Y-125050000D02*
G75*
G02*
X277890000Y-125050000I-1000000J0D01*
G01*
X277890000Y-113050000D02*
X277890000Y-125050000D01*
X277890000Y-113050000D02*
G75*
G02*
X279890000Y-113050000I1000000J0D01*
G01*
X279890000Y-125050000D02*
X279890000Y-113050000D01*
X283490000Y-113050000D02*
G75*
G02*
X284490000Y-112050000I1000000J0D01*
G01*
X296490000Y-112050000D02*
X284490000Y-112050000D01*
X296490000Y-112050000D02*
G75*
G02*
X297490000Y-113050000I0J-1000000D01*
G01*
X297490000Y-125050000D02*
X297490000Y-113050000D01*
X297490000Y-125050000D02*
G75*
G02*
X296490000Y-126050000I-1000000J0D01*
G01*
X284490000Y-126050000D02*
X296490000Y-126050000D01*
X284490000Y-126050000D02*
G75*
G02*
X283490000Y-125050000I0J1000000D01*
G01*
X283490000Y-113050000D02*
X283490000Y-125050000D01*
X301090000Y-113050000D02*
G75*
G02*
X303090000Y-113050000I1000000J0D01*
G01*
X303090000Y-125050000D02*
X303090000Y-113050000D01*
X303090000Y-125050000D02*
G75*
G02*
X301090000Y-125050000I-1000000J0D01*
G01*
X301090000Y-113050000D02*
X301090000Y-125050000D01*
X11749999Y-89299999D02*
X11749999Y-101299999D01*
X10749999Y-88299999D02*
G75*
G02*
X11749999Y-89299999I0J-1000000D01*
G01*
X-1250000Y-88299999D02*
X10749999Y-88299999D01*
X-2250000Y-89299999D02*
G75*
G02*
X-1250000Y-88299999I1000000J0D01*
G01*
X-2250000Y-101299999D02*
X-2250000Y-89299999D01*
X-1250000Y-102299999D02*
G75*
G02*
X-2250000Y-101299999I0J1000000D01*
G01*
X10749999Y-102299999D02*
X-1250000Y-102299999D01*
X11749999Y-101299999D02*
G75*
G02*
X10749999Y-102299999I-1000000J0D01*
G01*
X30799999Y-51199999D02*
X30799999Y-63199999D01*
X29799999Y-50199999D02*
G75*
G02*
X30799999Y-51199999I0J-1000000D01*
G01*
X17799999Y-50199999D02*
X29799999Y-50199999D01*
X16799999Y-51199999D02*
G75*
G02*
X17799999Y-50199999I1000000J0D01*
G01*
X16799999Y-63199999D02*
X16799999Y-51199999D01*
X17799999Y-64199999D02*
G75*
G02*
X16799999Y-63199999I0J1000000D01*
G01*
X29799999Y-64199999D02*
X17799999Y-64199999D01*
X30799999Y-63199999D02*
G75*
G02*
X29799999Y-64199999I-1000000J0D01*
G01*
X11749999Y-51199999D02*
X11749999Y-63199999D01*
X10749999Y-50199999D02*
G75*
G02*
X11749999Y-51199999I0J-1000000D01*
G01*
X-1250000Y-50199999D02*
X10749999Y-50199999D01*
X-2250000Y-51199999D02*
G75*
G02*
X-1250000Y-50199999I1000000J0D01*
G01*
X-2250000Y-63199999D02*
X-2250000Y-51199999D01*
X-1250000Y-64199999D02*
G75*
G02*
X-2250000Y-63199999I0J1000000D01*
G01*
X10749999Y-64199999D02*
X-1250000Y-64199999D01*
X11749999Y-63199999D02*
G75*
G02*
X10749999Y-64199999I-1000000J0D01*
G01*
X49849999Y-51199999D02*
X49849999Y-63199999D01*
X48849999Y-50199999D02*
G75*
G02*
X49849999Y-51199999I0J-1000000D01*
G01*
X36849999Y-50199999D02*
X48849999Y-50199999D01*
X35849999Y-51199999D02*
G75*
G02*
X36849999Y-50199999I1000000J0D01*
G01*
X35849999Y-63199999D02*
X35849999Y-51199999D01*
X36849999Y-64199999D02*
G75*
G02*
X35849999Y-63199999I0J1000000D01*
G01*
X48849999Y-64199999D02*
X36849999Y-64199999D01*
X49849999Y-63199999D02*
G75*
G02*
X48849999Y-64199999I-1000000J0D01*
G01*
X64400000Y-106000000D02*
X64400000Y-94000000D01*
X65400000Y-107000000D02*
G75*
G02*
X64400000Y-106000000I0J1000000D01*
G01*
X77400000Y-107000000D02*
X65400000Y-107000000D01*
X78400000Y-106000000D02*
G75*
G02*
X77400000Y-107000000I-1000000J0D01*
G01*
X78400000Y-94000000D02*
X78400000Y-106000000D01*
X77400000Y-93000000D02*
G75*
G02*
X78400000Y-94000000I0J-1000000D01*
G01*
X65400000Y-93000000D02*
X77400000Y-93000000D01*
X64400000Y-94000000D02*
G75*
G02*
X65400000Y-93000000I1000000J0D01*
G01*
X83450000Y-106000000D02*
X83450000Y-94000000D01*
X84450000Y-107000000D02*
G75*
G02*
X83450000Y-106000000I0J1000000D01*
G01*
X96450000Y-107000000D02*
X84450000Y-107000000D01*
X97450000Y-106000000D02*
G75*
G02*
X96450000Y-107000000I-1000000J0D01*
G01*
X97450000Y-94000000D02*
X97450000Y-106000000D01*
X96450000Y-93000000D02*
G75*
G02*
X97450000Y-94000000I0J-1000000D01*
G01*
X84450000Y-93000000D02*
X96450000Y-93000000D01*
X83450000Y-94000000D02*
G75*
G02*
X84450000Y-93000000I1000000J0D01*
G01*
X102500000Y-106000000D02*
X102500000Y-94000000D01*
X103500000Y-107000000D02*
G75*
G02*
X102500000Y-106000000I0J1000000D01*
G01*
X115500000Y-107000000D02*
X103500000Y-107000000D01*
X116500000Y-106000000D02*
G75*
G02*
X115500000Y-107000000I-1000000J0D01*
G01*
X116500000Y-94000000D02*
X116500000Y-106000000D01*
X115500000Y-93000000D02*
G75*
G02*
X116500000Y-94000000I0J-1000000D01*
G01*
X103500000Y-93000000D02*
X115500000Y-93000000D01*
X102500000Y-94000000D02*
G75*
G02*
X103500000Y-93000000I1000000J0D01*
G01*
X121550000Y-106000000D02*
X121550000Y-94000000D01*
X122550000Y-107000000D02*
G75*
G02*
X121550000Y-106000000I0J1000000D01*
G01*
X134550000Y-107000000D02*
X122550000Y-107000000D01*
X135550000Y-106000000D02*
G75*
G02*
X134550000Y-107000000I-1000000J0D01*
G01*
X135550000Y-94000000D02*
X135550000Y-106000000D01*
X134550000Y-93000000D02*
G75*
G02*
X135550000Y-94000000I0J-1000000D01*
G01*
X122550000Y-93000000D02*
X134550000Y-93000000D01*
X121550000Y-94000000D02*
G75*
G02*
X122550000Y-93000000I1000000J0D01*
G01*
X140600000Y-106000000D02*
X140600000Y-94000000D01*
X141600000Y-107000000D02*
G75*
G02*
X140600000Y-106000000I0J1000000D01*
G01*
X153600000Y-107000000D02*
X141600000Y-107000000D01*
X154600000Y-106000000D02*
G75*
G02*
X153600000Y-107000000I-1000000J0D01*
G01*
X154600000Y-94000000D02*
X154600000Y-106000000D01*
X153600000Y-93000000D02*
G75*
G02*
X154600000Y-94000000I0J-1000000D01*
G01*
X141600000Y-93000000D02*
X153600000Y-93000000D01*
X140600000Y-94000000D02*
G75*
G02*
X141600000Y-93000000I1000000J0D01*
G01*
X159650000Y-106000000D02*
X159650000Y-94000000D01*
X160650000Y-107000000D02*
G75*
G02*
X159650000Y-106000000I0J1000000D01*
G01*
X172650000Y-107000000D02*
X160650000Y-107000000D01*
X173650000Y-106000000D02*
G75*
G02*
X172650000Y-107000000I-1000000J0D01*
G01*
X173650000Y-94000000D02*
X173650000Y-106000000D01*
X172650000Y-93000000D02*
G75*
G02*
X173650000Y-94000000I0J-1000000D01*
G01*
X160650000Y-93000000D02*
X172650000Y-93000000D01*
X159650000Y-94000000D02*
G75*
G02*
X160650000Y-93000000I1000000J0D01*
G01*
X178700000Y-106000000D02*
X178700000Y-94000000D01*
X179700000Y-107000000D02*
G75*
G02*
X178700000Y-106000000I0J1000000D01*
G01*
X191700000Y-107000000D02*
X179700000Y-107000000D01*
X192700000Y-106000000D02*
G75*
G02*
X191700000Y-107000000I-1000000J0D01*
G01*
X192700000Y-94000000D02*
X192700000Y-106000000D01*
X191700000Y-93000000D02*
G75*
G02*
X192700000Y-94000000I0J-1000000D01*
G01*
X179700000Y-93000000D02*
X191700000Y-93000000D01*
X178700000Y-94000000D02*
G75*
G02*
X179700000Y-93000000I1000000J0D01*
G01*
X197750000Y-106000000D02*
X197750000Y-94000000D01*
X198750000Y-107000000D02*
G75*
G02*
X197750000Y-106000000I0J1000000D01*
G01*
X210750000Y-107000000D02*
X198750000Y-107000000D01*
X211750000Y-106000000D02*
G75*
G02*
X210750000Y-107000000I-1000000J0D01*
G01*
X211750000Y-94000000D02*
X211750000Y-106000000D01*
X210750000Y-93000000D02*
G75*
G02*
X211750000Y-94000000I0J-1000000D01*
G01*
X198750000Y-93000000D02*
X210750000Y-93000000D01*
X197750000Y-94000000D02*
G75*
G02*
X198750000Y-93000000I1000000J0D01*
G01*
X216800000Y-106000000D02*
X216800000Y-94000000D01*
X217800000Y-107000000D02*
G75*
G02*
X216800000Y-106000000I0J1000000D01*
G01*
X229800000Y-107000000D02*
X217800000Y-107000000D01*
X230800000Y-106000000D02*
G75*
G02*
X229800000Y-107000000I-1000000J0D01*
G01*
X230800000Y-94000000D02*
X230800000Y-106000000D01*
X229800000Y-93000000D02*
G75*
G02*
X230800000Y-94000000I0J-1000000D01*
G01*
X217800000Y-93000000D02*
X229800000Y-93000000D01*
X216800000Y-94000000D02*
G75*
G02*
X217800000Y-93000000I1000000J0D01*
G01*
X235850000Y-106000000D02*
X235850000Y-94000000D01*
X236850000Y-107000000D02*
G75*
G02*
X235850000Y-106000000I0J1000000D01*
G01*
X248850000Y-107000000D02*
X236850000Y-107000000D01*
X249850000Y-106000000D02*
G75*
G02*
X248850000Y-107000000I-1000000J0D01*
G01*
X249850000Y-94000000D02*
X249850000Y-106000000D01*
X248850000Y-93000000D02*
G75*
G02*
X249850000Y-94000000I0J-1000000D01*
G01*
X236850000Y-93000000D02*
X248850000Y-93000000D01*
X235850000Y-94000000D02*
G75*
G02*
X236850000Y-93000000I1000000J0D01*
G01*
X254900000Y-106000000D02*
X254900000Y-94000000D01*
X255900000Y-107000000D02*
G75*
G02*
X254900000Y-106000000I0J1000000D01*
G01*
X267900000Y-107000000D02*
X255900000Y-107000000D01*
X268900000Y-106000000D02*
G75*
G02*
X267900000Y-107000000I-1000000J0D01*
G01*
X268900000Y-94000000D02*
X268900000Y-106000000D01*
X267900000Y-93000000D02*
G75*
G02*
X268900000Y-94000000I0J-1000000D01*
G01*
X255900000Y-93000000D02*
X267900000Y-93000000D01*
X254900000Y-94000000D02*
G75*
G02*
X255900000Y-93000000I1000000J0D01*
G01*
X275500000Y-106000000D02*
X275500000Y-94000000D01*
X277500000Y-106000000D02*
G75*
G02*
X275500000Y-106000000I-1000000J0D01*
G01*
X277500000Y-94000000D02*
X277500000Y-106000000D01*
X275500000Y-94000000D02*
G75*
G02*
X277500000Y-94000000I1000000J0D01*
G01*
X281100000Y-106000000D02*
X281100000Y-94000000D01*
X282100000Y-107000000D02*
G75*
G02*
X281100000Y-106000000I0J1000000D01*
G01*
X294100000Y-107000000D02*
X282100000Y-107000000D01*
X295100000Y-106000000D02*
G75*
G02*
X294100000Y-107000000I-1000000J0D01*
G01*
X295100000Y-94000000D02*
X295100000Y-106000000D01*
X294100000Y-93000000D02*
G75*
G02*
X295100000Y-94000000I0J-1000000D01*
G01*
X282100000Y-93000000D02*
X294100000Y-93000000D01*
X281100000Y-94000000D02*
G75*
G02*
X282100000Y-93000000I1000000J0D01*
G01*
X300700000Y-94000000D02*
X300700000Y-106000000D01*
X298700000Y-94000000D02*
G75*
G02*
X300700000Y-94000000I1000000J0D01*
G01*
X298700000Y-106000000D02*
X298700000Y-94000000D01*
X300700000Y-106000000D02*
G75*
G02*
X298700000Y-106000000I-1000000J0D01*
G01*
X290345000Y-74950000D02*
X290345000Y-86950000D01*
X289345000Y-73950000D02*
G75*
G02*
X290345000Y-74950000I0J-1000000D01*
G01*
X277345000Y-73950000D02*
X289345000Y-73950000D01*
X276345000Y-74950000D02*
G75*
G02*
X277345000Y-73950000I1000000J0D01*
G01*
X276345000Y-86950000D02*
X276345000Y-74950000D01*
X277345000Y-87950000D02*
G75*
G02*
X276345000Y-86950000I0J1000000D01*
G01*
X289345000Y-87950000D02*
X277345000Y-87950000D01*
X290345000Y-86950000D02*
G75*
G02*
X289345000Y-87950000I-1000000J0D01*
G01*
X246400000Y-73950000D02*
X258400000Y-73950000D01*
X245400000Y-74950000D02*
G75*
G02*
X246400000Y-73950000I1000000J0D01*
G01*
X245400000Y-86950000D02*
X245400000Y-74950000D01*
X246400000Y-87950000D02*
G75*
G02*
X245400000Y-86950000I0J1000000D01*
G01*
X258400000Y-87950000D02*
X246400000Y-87950000D01*
X259400000Y-86950000D02*
G75*
G02*
X258400000Y-87950000I-1000000J0D01*
G01*
X259400000Y-74950000D02*
X259400000Y-86950000D01*
X258400000Y-73950000D02*
G75*
G02*
X259400000Y-74950000I0J-1000000D01*
G01*
X239350000Y-87950000D02*
X227350000Y-87950000D01*
X240350000Y-86950000D02*
G75*
G02*
X239350000Y-87950000I-1000000J0D01*
G01*
X240350000Y-74950000D02*
X240350000Y-86950000D01*
X239350000Y-73950000D02*
G75*
G02*
X240350000Y-74950000I0J-1000000D01*
G01*
X227350000Y-73950000D02*
X239350000Y-73950000D01*
X226350000Y-74950000D02*
G75*
G02*
X227350000Y-73950000I1000000J0D01*
G01*
X226350000Y-86950000D02*
X226350000Y-74950000D01*
X227350000Y-87950000D02*
G75*
G02*
X226350000Y-86950000I0J1000000D01*
G01*
X220300000Y-87950000D02*
X208300000Y-87950000D01*
X221300000Y-86950000D02*
G75*
G02*
X220300000Y-87950000I-1000000J0D01*
G01*
X221300000Y-74950000D02*
X221300000Y-86950000D01*
X220300000Y-73950000D02*
G75*
G02*
X221300000Y-74950000I0J-1000000D01*
G01*
X208300000Y-73950000D02*
X220300000Y-73950000D01*
X207300000Y-74950000D02*
G75*
G02*
X208300000Y-73950000I1000000J0D01*
G01*
X207300000Y-86950000D02*
X207300000Y-74950000D01*
X208300000Y-87950000D02*
G75*
G02*
X207300000Y-86950000I0J1000000D01*
G01*
X189250000Y-73950000D02*
X201250000Y-73950000D01*
X188250000Y-74950000D02*
G75*
G02*
X189250000Y-73950000I1000000J0D01*
G01*
X188250000Y-86950000D02*
X188250000Y-74950000D01*
X189250000Y-87950000D02*
G75*
G02*
X188250000Y-86950000I0J1000000D01*
G01*
X201250000Y-87950000D02*
X189250000Y-87950000D01*
X202250000Y-86950000D02*
G75*
G02*
X201250000Y-87950000I-1000000J0D01*
G01*
X202250000Y-74950000D02*
X202250000Y-86950000D01*
X201250000Y-73950000D02*
G75*
G02*
X202250000Y-74950000I0J-1000000D01*
G01*
X169200000Y-86950000D02*
X169200000Y-74950000D01*
X170200000Y-87950000D02*
G75*
G02*
X169200000Y-86950000I0J1000000D01*
G01*
X182200000Y-87950000D02*
X170200000Y-87950000D01*
X183200000Y-86950000D02*
G75*
G02*
X182200000Y-87950000I-1000000J0D01*
G01*
X183200000Y-74950000D02*
X183200000Y-86950000D01*
X182200000Y-73950000D02*
G75*
G02*
X183200000Y-74950000I0J-1000000D01*
G01*
X170200000Y-73950000D02*
X182200000Y-73950000D01*
X169200000Y-74950000D02*
G75*
G02*
X170200000Y-73950000I1000000J0D01*
G01*
X150150000Y-86950000D02*
X150150000Y-74950000D01*
X151150000Y-87950000D02*
G75*
G02*
X150150000Y-86950000I0J1000000D01*
G01*
X163150000Y-87950000D02*
X151150000Y-87950000D01*
X164150000Y-86950000D02*
G75*
G02*
X163150000Y-87950000I-1000000J0D01*
G01*
X164150000Y-74950000D02*
X164150000Y-86950000D01*
X163150000Y-73950000D02*
G75*
G02*
X164150000Y-74950000I0J-1000000D01*
G01*
X151150000Y-73950000D02*
X163150000Y-73950000D01*
X150150000Y-74950000D02*
G75*
G02*
X151150000Y-73950000I1000000J0D01*
G01*
X131100000Y-86950000D02*
X131100000Y-74950000D01*
X132100000Y-87950000D02*
G75*
G02*
X131100000Y-86950000I0J1000000D01*
G01*
X144100000Y-87950000D02*
X132100000Y-87950000D01*
X145100000Y-86950000D02*
G75*
G02*
X144100000Y-87950000I-1000000J0D01*
G01*
X145100000Y-74950000D02*
X145100000Y-86950000D01*
X144100000Y-73950000D02*
G75*
G02*
X145100000Y-74950000I0J-1000000D01*
G01*
X132100000Y-73950000D02*
X144100000Y-73950000D01*
X131100000Y-74950000D02*
G75*
G02*
X132100000Y-73950000I1000000J0D01*
G01*
X112050000Y-86950000D02*
X112050000Y-74950000D01*
X113050000Y-87950000D02*
G75*
G02*
X112050000Y-86950000I0J1000000D01*
G01*
X125050000Y-87950000D02*
X113050000Y-87950000D01*
X126050000Y-86950000D02*
G75*
G02*
X125050000Y-87950000I-1000000J0D01*
G01*
X126050000Y-74950000D02*
X126050000Y-86950000D01*
X125050000Y-73950000D02*
G75*
G02*
X126050000Y-74950000I0J-1000000D01*
G01*
X113050000Y-73950000D02*
X125050000Y-73950000D01*
X112050000Y-74950000D02*
G75*
G02*
X113050000Y-73950000I1000000J0D01*
G01*
X93000000Y-86950000D02*
X93000000Y-74950000D01*
X94000000Y-87950000D02*
G75*
G02*
X93000000Y-86950000I0J1000000D01*
G01*
X106000000Y-87950000D02*
X94000000Y-87950000D01*
X107000000Y-86950000D02*
G75*
G02*
X106000000Y-87950000I-1000000J0D01*
G01*
X107000000Y-74950000D02*
X107000000Y-86950000D01*
X106000000Y-73950000D02*
G75*
G02*
X107000000Y-74950000I0J-1000000D01*
G01*
X94000000Y-73950000D02*
X106000000Y-73950000D01*
X93000000Y-74950000D02*
G75*
G02*
X94000000Y-73950000I1000000J0D01*
G01*
X73950000Y-86950000D02*
X73950000Y-74950000D01*
X74950000Y-87950000D02*
G75*
G02*
X73950000Y-86950000I0J1000000D01*
G01*
X86950000Y-87950000D02*
X74950000Y-87950000D01*
X87950000Y-86950000D02*
G75*
G02*
X86950000Y-87950000I-1000000J0D01*
G01*
X87950000Y-74950000D02*
X87950000Y-86950000D01*
X86950000Y-73950000D02*
G75*
G02*
X87950000Y-74950000I0J-1000000D01*
G01*
X74950000Y-73950000D02*
X86950000Y-73950000D01*
X73950000Y-74950000D02*
G75*
G02*
X74950000Y-73950000I1000000J0D01*
G01*
X67350000Y-74950000D02*
X67350000Y-86950000D01*
X65350000Y-74950000D02*
G75*
G02*
X67350000Y-74950000I1000000J0D01*
G01*
X65350000Y-86950000D02*
X65350000Y-74950000D01*
X67350000Y-86950000D02*
G75*
G02*
X65350000Y-86950000I-1000000J0D01*
G01*
X48750000Y-73950000D02*
X60750000Y-73950000D01*
X47750000Y-74950000D02*
G75*
G02*
X48750000Y-73950000I1000000J0D01*
G01*
X47750000Y-86950000D02*
X47750000Y-74950000D01*
X48750000Y-87950000D02*
G75*
G02*
X47750000Y-86950000I0J1000000D01*
G01*
X60750000Y-87950000D02*
X48750000Y-87950000D01*
X61750000Y-86950000D02*
G75*
G02*
X60750000Y-87950000I-1000000J0D01*
G01*
X61750000Y-74950000D02*
X61750000Y-86950000D01*
X60750000Y-73950000D02*
G75*
G02*
X61750000Y-74950000I0J-1000000D01*
G01*
X44150000Y-74950000D02*
X44150000Y-86950000D01*
X42150000Y-74950000D02*
G75*
G02*
X44150000Y-74950000I1000000J0D01*
G01*
X42150000Y-86950000D02*
X42150000Y-74950000D01*
X44150000Y-86950000D02*
G75*
G02*
X42150000Y-86950000I-1000000J0D01*
G01*
X59649999Y-67899999D02*
X59649999Y-55899999D01*
X60649999Y-68899999D02*
G75*
G02*
X59649999Y-67899999I0J1000000D01*
G01*
X72649999Y-68899999D02*
X60649999Y-68899999D01*
X73649999Y-67899999D02*
G75*
G02*
X72649999Y-68899999I-1000000J0D01*
G01*
X73649999Y-55899999D02*
X73649999Y-67899999D01*
X72649999Y-54899999D02*
G75*
G02*
X73649999Y-55899999I0J-1000000D01*
G01*
X60649999Y-54899999D02*
X72649999Y-54899999D01*
X59649999Y-55899999D02*
G75*
G02*
X60649999Y-54899999I1000000J0D01*
G01*
X78699999Y-67899999D02*
X78699999Y-55899999D01*
X79699999Y-68899999D02*
G75*
G02*
X78699999Y-67899999I0J1000000D01*
G01*
X91699999Y-68899999D02*
X79699999Y-68899999D01*
X92699999Y-67899999D02*
G75*
G02*
X91699999Y-68899999I-1000000J0D01*
G01*
X92699999Y-55899999D02*
X92699999Y-67899999D01*
X91699999Y-54899999D02*
G75*
G02*
X92699999Y-55899999I0J-1000000D01*
G01*
X79699999Y-54899999D02*
X91699999Y-54899999D01*
X78699999Y-55899999D02*
G75*
G02*
X79699999Y-54899999I1000000J0D01*
G01*
X97749999Y-67899999D02*
X97749999Y-55899999D01*
X98749999Y-68899999D02*
G75*
G02*
X97749999Y-67899999I0J1000000D01*
G01*
X110749999Y-68899999D02*
X98749999Y-68899999D01*
X111749999Y-67899999D02*
G75*
G02*
X110749999Y-68899999I-1000000J0D01*
G01*
X111749999Y-55899999D02*
X111749999Y-67899999D01*
X110749999Y-54899999D02*
G75*
G02*
X111749999Y-55899999I0J-1000000D01*
G01*
X98749999Y-54899999D02*
X110749999Y-54899999D01*
X97749999Y-55899999D02*
G75*
G02*
X98749999Y-54899999I1000000J0D01*
G01*
X166799999Y-67899999D02*
X166799999Y-55899999D01*
X167799999Y-68899999D02*
G75*
G02*
X166799999Y-67899999I0J1000000D01*
G01*
X179799999Y-68899999D02*
X167799999Y-68899999D01*
X180799999Y-67899999D02*
G75*
G02*
X179799999Y-68899999I-1000000J0D01*
G01*
X180799999Y-55899999D02*
X180799999Y-67899999D01*
X179799999Y-54899999D02*
G75*
G02*
X180799999Y-55899999I0J-1000000D01*
G01*
X167799999Y-54899999D02*
X179799999Y-54899999D01*
X166799999Y-55899999D02*
G75*
G02*
X167799999Y-54899999I1000000J0D01*
G01*
X251299999Y-68900000D02*
X239299999Y-68900000D01*
X252299999Y-67900000D02*
G75*
G02*
X251299999Y-68900000I-1000000J0D01*
G01*
X252299999Y-55900000D02*
X252299999Y-67900000D01*
X251299999Y-54900000D02*
G75*
G02*
X252299999Y-55900000I0J-1000000D01*
G01*
X239299999Y-54900000D02*
X251299999Y-54900000D01*
X238299999Y-55900000D02*
G75*
G02*
X239299999Y-54900000I1000000J0D01*
G01*
X238299999Y-67900000D02*
X238299999Y-55900000D01*
X239299999Y-68900000D02*
G75*
G02*
X238299999Y-67900000I0J1000000D01*
G01*
X275099999Y-68900000D02*
X263099999Y-68900000D01*
X276099999Y-67900000D02*
G75*
G02*
X275099999Y-68900000I-1000000J0D01*
G01*
X276099999Y-55900000D02*
X276099999Y-67900000D01*
X275099999Y-54900000D02*
G75*
G02*
X276099999Y-55900000I0J-1000000D01*
G01*
X263099999Y-54900000D02*
X275099999Y-54900000D01*
X262099999Y-55900000D02*
G75*
G02*
X263099999Y-54900000I1000000J0D01*
G01*
X262099999Y-67900000D02*
X262099999Y-55900000D01*
X263099999Y-68900000D02*
G75*
G02*
X262099999Y-67900000I0J1000000D01*
G01*
X298899999Y-68900000D02*
X286899999Y-68900000D01*
X299899999Y-67900000D02*
G75*
G02*
X298899999Y-68900000I-1000000J0D01*
G01*
X299899999Y-55900000D02*
X299899999Y-67900000D01*
X298899999Y-54900000D02*
G75*
G02*
X299899999Y-55900000I0J-1000000D01*
G01*
X286899999Y-54900000D02*
X298899999Y-54900000D01*
X285899999Y-55900000D02*
G75*
G02*
X286899999Y-54900000I1000000J0D01*
G01*
X285899999Y-67900000D02*
X285899999Y-55900000D01*
X286899999Y-68900000D02*
G75*
G02*
X285899999Y-67900000I0J1000000D01*
G01*
X265000000Y-47400000D02*
X267000000Y-47400000D01*
X265000000Y-50600000D02*
G75*
G02*
X265000000Y-47400000I0J1600000D01*
G01*
X267000000Y-50600000D02*
X265000000Y-50600000D01*
X267000000Y-47400000D02*
G75*
G02*
X267000000Y-50600000I0J-1600000D01*
G01*
X265000000Y-149450000D02*
X267000000Y-149450000D01*
X265000000Y-152650000D02*
G75*
G02*
X265000000Y-149450000I0J1600000D01*
G01*
X267000000Y-152650000D02*
X265000000Y-152650000D01*
X267000000Y-149450000D02*
G75*
G02*
X267000000Y-152650000I0J-1600000D01*
G01*
X213512499Y-63399999D02*
G75*
G02*
X213012499Y-63899999I-500000J0D01*
G01*
X203976601Y-63899999D02*
X213012499Y-63899999D01*
X203976600Y-63899998D02*
G75*
G02*
X197048398Y-63899999I-3464101J1999999D01*
G01*
X188012499Y-63899999D02*
X197048398Y-63899999D01*
X188012499Y-63899999D02*
G75*
G02*
X187512499Y-63399999I0J500000D01*
G01*
X187512499Y-60399999D02*
X187512499Y-63399999D01*
X187512499Y-60399999D02*
G75*
G02*
X188012499Y-59899999I500000J0D01*
G01*
X197048398Y-59899999D02*
X188012499Y-59899999D01*
X197048397Y-59899999D02*
G75*
G02*
X203976601Y-59899999I3464102J-2000000D01*
G01*
X213012499Y-59899999D02*
X203976601Y-59899999D01*
X213012499Y-59899999D02*
G75*
G02*
X213512499Y-60399999I0J-500000D01*
G01*
X213512499Y-63399999D02*
X213512499Y-60399999D01*
X160087499Y-63399999D02*
G75*
G02*
X159587499Y-63899999I-500000J0D01*
G01*
X150551601Y-63899999D02*
X159587499Y-63899999D01*
X150551600Y-63899998D02*
G75*
G02*
X143623398Y-63899999I-3464101J1999999D01*
G01*
X134587499Y-63899999D02*
X143623398Y-63899999D01*
X134587499Y-63899999D02*
G75*
G02*
X134087499Y-63399999I0J500000D01*
G01*
X134087499Y-60399999D02*
X134087499Y-63399999D01*
X134087499Y-60399999D02*
G75*
G02*
X134587499Y-59899999I500000J0D01*
G01*
X143623398Y-59899999D02*
X134587499Y-59899999D01*
X143623397Y-59899999D02*
G75*
G02*
X150551601Y-59899999I3464102J-2000000D01*
G01*
X159587499Y-59899999D02*
X150551601Y-59899999D01*
X159587499Y-59899999D02*
G75*
G02*
X160087499Y-60399999I0J-500000D01*
G01*
X160087499Y-63399999D02*
X160087499Y-60399999D01*
X298958000Y-86300000D02*
G75*
G02*
X297958000Y-87300000I-1000000J0D01*
G01*
X292758000Y-87300000D02*
X297958000Y-87300000D01*
X292758000Y-87300000D02*
G75*
G02*
X291758000Y-86300000I0J1000000D01*
G01*
X291758000Y-72750000D02*
X291758000Y-86300000D01*
X291758000Y-72750000D02*
G75*
G02*
X292758000Y-71750000I1000000J0D01*
G01*
X297958000Y-71750000D02*
X292758000Y-71750000D01*
X297958000Y-71750000D02*
G75*
G02*
X298958000Y-72750000I0J-1000000D01*
G01*
X298958000Y-86300000D02*
X298958000Y-72750000D01*
X274932000Y-86300000D02*
G75*
G02*
X273932000Y-87300000I-1000000J0D01*
G01*
X268732000Y-87300000D02*
X273932000Y-87300000D01*
X268732000Y-87300000D02*
G75*
G02*
X267732000Y-86300000I0J1000000D01*
G01*
X267732000Y-72750000D02*
X267732000Y-86300000D01*
X267732000Y-72750000D02*
G75*
G02*
X268732000Y-71750000I1000000J0D01*
G01*
X273932000Y-71750000D02*
X268732000Y-71750000D01*
X273932000Y-71750000D02*
G75*
G02*
X274932000Y-72750000I0J-1000000D01*
G01*
X274932000Y-86300000D02*
X274932000Y-72750000D01*
X47445000Y-94000000D02*
X47445000Y-106000000D01*
X46445000Y-93000000D02*
G75*
G02*
X47445000Y-94000000I0J-1000000D01*
G01*
X34445000Y-93000000D02*
X46445000Y-93000000D01*
X33445000Y-94000000D02*
G75*
G02*
X34445000Y-93000000I1000000J0D01*
G01*
X33445000Y-106000000D02*
X33445000Y-94000000D01*
X34445000Y-107000000D02*
G75*
G02*
X33445000Y-106000000I0J1000000D01*
G01*
X46445000Y-107000000D02*
X34445000Y-107000000D01*
X47445000Y-106000000D02*
G75*
G02*
X46445000Y-107000000I-1000000J0D01*
G01*
X29662000Y-143450000D02*
G75*
G02*
X28662000Y-144450000I-1000000J0D01*
G01*
X23512000Y-144450000D02*
X28662000Y-144450000D01*
X23512000Y-144450000D02*
G75*
G02*
X22512000Y-143450000I0J1000000D01*
G01*
X22512000Y-130100000D02*
X22512000Y-143450000D01*
X22512000Y-130100000D02*
G75*
G02*
X23512000Y-129100000I1000000J0D01*
G01*
X28662000Y-129100000D02*
X23512000Y-129100000D01*
X28662000Y-129100000D02*
G75*
G02*
X29662000Y-130100000I0J-1000000D01*
G01*
X29662000Y-143450000D02*
X29662000Y-130100000D01*
X52638000Y-129100000D02*
G75*
G02*
X53638000Y-130100000I0J-1000000D01*
G01*
X53638000Y-143450000D02*
X53638000Y-130100000D01*
X53638000Y-143450000D02*
G75*
G02*
X52638000Y-144450000I-1000000J0D01*
G01*
X47488000Y-144450000D02*
X52638000Y-144450000D01*
X47488000Y-144450000D02*
G75*
G02*
X46488000Y-143450000I0J1000000D01*
G01*
X46488000Y-130100000D02*
X46488000Y-143450000D01*
X46488000Y-130100000D02*
G75*
G02*
X47488000Y-129100000I1000000J0D01*
G01*
X52638000Y-129100000D02*
X47488000Y-129100000D01*
X220224999Y-54899999D02*
G75*
G02*
X221224999Y-53899999I1000000J0D01*
G01*
X226374999Y-53899999D02*
X221224999Y-53899999D01*
X226374999Y-53899999D02*
G75*
G02*
X227374999Y-54899999I0J-1000000D01*
G01*
X227374999Y-69949999D02*
X227374999Y-54899999D01*
X227374999Y-69949999D02*
G75*
G02*
X226374999Y-70949999I-1000000J0D01*
G01*
X221224999Y-70949999D02*
X226374999Y-70949999D01*
X221224999Y-70949999D02*
G75*
G02*
X220224999Y-69949999I0J1000000D01*
G01*
X220224999Y-54899999D02*
X220224999Y-69949999D01*
X11749999Y-82249999D02*
G75*
G02*
X10749999Y-83249999I-1000000J0D01*
G01*
X-1250000Y-83249999D02*
X10749999Y-83249999D01*
X-1250000Y-83249999D02*
G75*
G02*
X-2250000Y-82249999I0J1000000D01*
G01*
X-2250000Y-70249999D02*
X-2250000Y-82249999D01*
X-2250000Y-70249999D02*
G75*
G02*
X-1250000Y-69249999I1000000J0D01*
G01*
X10749999Y-69249999D02*
X-1250000Y-69249999D01*
X10749999Y-69249999D02*
G75*
G02*
X11749999Y-70249999I0J-1000000D01*
G01*
X11749999Y-82249999D02*
X11749999Y-70249999D01*
X120224999Y-54899999D02*
G75*
G02*
X121224999Y-53899999I1000000J0D01*
G01*
X126374999Y-53899999D02*
X121224999Y-53899999D01*
X126374999Y-53899999D02*
G75*
G02*
X127374999Y-54899999I0J-1000000D01*
G01*
X127374999Y-69949999D02*
X127374999Y-54899999D01*
X127374999Y-69949999D02*
G75*
G02*
X126374999Y-70949999I-1000000J0D01*
G01*
X121224999Y-70949999D02*
X126374999Y-70949999D01*
X121224999Y-70949999D02*
G75*
G02*
X120224999Y-69949999I0J1000000D01*
G01*
X120224999Y-54899999D02*
X120224999Y-69949999D01*
X16799999Y-70249999D02*
G75*
G02*
X17799999Y-69249999I1000000J0D01*
G01*
X29799999Y-69249999D02*
X17799999Y-69249999D01*
X29799999Y-69249999D02*
G75*
G02*
X30799999Y-70249999I0J-1000000D01*
G01*
X30799999Y-82249999D02*
X30799999Y-70249999D01*
X30799999Y-82249999D02*
G75*
G02*
X29799999Y-83249999I-1000000J0D01*
G01*
X17799999Y-83249999D02*
X29799999Y-83249999D01*
X17799999Y-83249999D02*
G75*
G02*
X16799999Y-82249999I0J1000000D01*
G01*
X16799999Y-70249999D02*
X16799999Y-82249999D01*
X48858000Y-93000000D02*
G75*
G02*
X49858000Y-92000000I1000000J0D01*
G01*
X55008000Y-92000000D02*
X49858000Y-92000000D01*
X55008000Y-92000000D02*
G75*
G02*
X56008000Y-93000000I0J-1000000D01*
G01*
X56008000Y-108250000D02*
X56008000Y-93000000D01*
X56008000Y-108250000D02*
G75*
G02*
X55008000Y-109250000I-1000000J0D01*
G01*
X49858000Y-109250000D02*
X55008000Y-109250000D01*
X49858000Y-109250000D02*
G75*
G02*
X48858000Y-108250000I0J1000000D01*
G01*
X48858000Y-93000000D02*
X48858000Y-108250000D01*
X11749999Y-120349999D02*
G75*
G02*
X10749999Y-121349999I-1000000J0D01*
G01*
X-1250000Y-121349999D02*
X10749999Y-121349999D01*
X-1250000Y-121349999D02*
G75*
G02*
X-2250000Y-120349999I0J1000000D01*
G01*
X-2250000Y-108349999D02*
X-2250000Y-120349999D01*
X-2250000Y-108349999D02*
G75*
G02*
X-1250000Y-107349999I1000000J0D01*
G01*
X10749999Y-107349999D02*
X-1250000Y-107349999D01*
X10749999Y-107349999D02*
G75*
G02*
X11749999Y-108349999I0J-1000000D01*
G01*
X11749999Y-120349999D02*
X11749999Y-108349999D01*
X24882000Y-93000000D02*
G75*
G02*
X25882000Y-92000000I1000000J0D01*
G01*
X31032000Y-92000000D02*
X25882000Y-92000000D01*
X31032000Y-92000000D02*
G75*
G02*
X32032000Y-93000000I0J-1000000D01*
G01*
X32032000Y-108250000D02*
X32032000Y-93000000D01*
X32032000Y-108250000D02*
G75*
G02*
X31032000Y-109250000I-1000000J0D01*
G01*
X25882000Y-109250000D02*
X31032000Y-109250000D01*
X25882000Y-109250000D02*
G75*
G02*
X24882000Y-108250000I0J1000000D01*
G01*
X24882000Y-93000000D02*
X24882000Y-108250000D01*
X303600000Y-48800000D02*
G75*
G02*
X305600000Y-50800000I0J-2000000D01*
G01*
X294500000Y-48800000D02*
X303600000Y-48800000D01*
X294500000Y-48800000D02*
G75*
G02*
X293500000Y-47800000I0J1000000D01*
G01*
X293500000Y-45000000D02*
X293500000Y-47800000D01*
X292000000Y-43500000D02*
G75*
G02*
X293500000Y-45000000I0J-1500000D01*
G01*
X229000000Y-43500000D02*
X292000000Y-43500000D01*
X227500000Y-45000000D02*
G75*
G02*
X229000000Y-43500000I1500000J0D01*
G01*
X227500000Y-47800000D02*
X227500000Y-45000000D01*
X227500000Y-47800000D02*
G75*
G02*
X226500000Y-48800000I-1000000J0D01*
G01*
X184000000Y-48800000D02*
X226500000Y-48800000D01*
X184000000Y-48800000D02*
G75*
G02*
X183000000Y-47800000I0J1000000D01*
G01*
X183000000Y-45000000D02*
X183000000Y-47800000D01*
X181500000Y-43500000D02*
G75*
G02*
X183000000Y-45000000I0J-1500000D01*
G01*
X118500000Y-43500000D02*
X181500000Y-43500000D01*
X117000000Y-45000000D02*
G75*
G02*
X118500000Y-43500000I1500000J0D01*
G01*
X117000000Y-47800000D02*
X117000000Y-45000000D01*
X117000000Y-47800000D02*
G75*
G02*
X116000000Y-48800000I-1000000J0D01*
G01*
X73500000Y-48800000D02*
X116000000Y-48800000D01*
X73500000Y-48800000D02*
G75*
G02*
X72500000Y-47800000I0J1000000D01*
G01*
X72500000Y-45000000D02*
X72500000Y-47800000D01*
X71000000Y-43500000D02*
G75*
G02*
X72500000Y-45000000I0J-1500000D01*
G01*
X8000000Y-43500000D02*
X71000000Y-43500000D01*
X6500000Y-45000000D02*
G75*
G02*
X8000000Y-43500000I1500000J0D01*
G01*
X6500000Y-45800000D02*
X6500000Y-45000000D01*
X6500000Y-45800000D02*
G75*
G02*
X6000000Y-46300000I-500000J0D01*
G01*
X5636759Y-46300000D02*
X6000000Y-46300000D01*
X4825448Y-46715385D02*
G75*
G02*
X5636759Y-46300000I811311J-584615D01*
G01*
X4825449Y-46715383D02*
G75*
G02*
X1174551Y-46715384I-1825449J1315384D01*
G01*
X363240Y-46299999D02*
G75*
G02*
X1174551Y-46715384I0J-1000001D01*
G01*
X-3600000Y-46300000D02*
X363240Y-46300000D01*
X-5600000Y-48300000D02*
G75*
G02*
X-3600000Y-46300000I2000000J0D01*
G01*
X-5600000Y-149200000D02*
X-5600000Y-48300000D01*
X-3600000Y-151200000D02*
G75*
G02*
X-5600000Y-149200000I0J2000000D01*
G01*
X21599999Y-151200000D02*
X-3600000Y-151200000D01*
X21599999Y-151200000D02*
G75*
G02*
X22599999Y-152200000I0J-1000000D01*
G01*
X22599999Y-154500000D02*
X22599999Y-152200000D01*
X24099999Y-156000000D02*
G75*
G02*
X22599999Y-154500000I0J1500000D01*
G01*
X87100000Y-156000000D02*
X24099999Y-156000000D01*
X88600000Y-154500000D02*
G75*
G02*
X87100000Y-156000000I-1500000J0D01*
G01*
X88600000Y-152200000D02*
X88600000Y-154500000D01*
X88600000Y-152200000D02*
G75*
G02*
X89600000Y-151200000I1000000J0D01*
G01*
X116000000Y-151200000D02*
X89600000Y-151200000D01*
X116000000Y-151200000D02*
G75*
G02*
X117000000Y-152200000I0J-1000000D01*
G01*
X117000000Y-154500000D02*
X117000000Y-152200000D01*
X118500000Y-156000000D02*
G75*
G02*
X117000000Y-154500000I0J1500000D01*
G01*
X181500000Y-156000000D02*
X118500000Y-156000000D01*
X183000000Y-154500000D02*
G75*
G02*
X181500000Y-156000000I-1500000J0D01*
G01*
X183000000Y-152200000D02*
X183000000Y-154500000D01*
X183000000Y-152200000D02*
G75*
G02*
X184000000Y-151200000I1000000J0D01*
G01*
X226500000Y-151200000D02*
X184000000Y-151200000D01*
X226500000Y-151200000D02*
G75*
G02*
X227500000Y-152200000I0J-1000000D01*
G01*
X227500000Y-154500000D02*
X227500000Y-152200000D01*
X229000000Y-156000000D02*
G75*
G02*
X227500000Y-154500000I0J1500000D01*
G01*
X292000000Y-156000000D02*
X229000000Y-156000000D01*
X293500000Y-154500000D02*
G75*
G02*
X292000000Y-156000000I-1500000J0D01*
G01*
X293500000Y-152200000D02*
X293500000Y-154500000D01*
X293500000Y-152200000D02*
G75*
G02*
X294500000Y-151200000I1000000J0D01*
G01*
X303600000Y-151200000D02*
X294500000Y-151200000D01*
X305600000Y-149200000D02*
G75*
G02*
X303600000Y-151200000I-2000000J0D01*
G01*
X305600000Y-50800000D02*
X305600000Y-149200000D01*
M02*
