G04 #@! TF.GenerationSoftware,KiCad,Pcbnew,(5.1.4)-1*
G04 #@! TF.CreationDate,2020-11-16T22:26:03-05:00*
G04 #@! TF.ProjectId,DZ60 FR4 Plate,445a3630-2046-4523-9420-506c6174652e,rev?*
G04 #@! TF.SameCoordinates,Original*
G04 #@! TF.FileFunction,Profile,NP*
%FSLAX46Y46*%
G04 Gerber Fmt 4.6, Leading zero omitted, Abs format (unit mm)*
G04 Created by KiCad (PCBNEW (5.1.4)-1) date 2020-11-16 22:26:03*
%MOMM*%
%LPD*%
G04 APERTURE LIST*
%ADD10C,0.200000*%
G04 APERTURE END LIST*
D10*
X279801000Y47191099D02*
X280450000Y47191099D01*
X282001622Y35991400D02*
X285470000Y35991400D01*
X282001622Y40991000D02*
X285470000Y40991000D01*
X112513000Y16593000D02*
G75*
G02X112813000Y16293000I0J-300000D01*
G01*
X76976999Y2822219D02*
G75*
G02X76676999Y3122219I0J300000D01*
G01*
X76676999Y16293000D02*
G75*
G02X76976999Y16593000I300000J0D01*
G01*
X278980000Y73742899D02*
G75*
G02X279280000Y73442899I0J-300000D01*
G01*
X278069000Y73742900D02*
X278980000Y73742899D01*
X279279999Y72193000D02*
X279280000Y73442899D01*
X149483000Y16593000D02*
X157512000Y16593000D01*
X250376000Y40690799D02*
G75*
G02X250676000Y40390799I0J-300000D01*
G01*
X245321000Y54391500D02*
G75*
G02X245621000Y54691500I300000J0D01*
G01*
X245621000Y40690799D02*
G75*
G02X245321000Y40990799I0J300000D01*
G01*
X245621000Y54691499D02*
X248127000Y54691499D01*
X245621000Y40690799D02*
X250376000Y40690799D01*
X245321000Y47691149D02*
X245321000Y40990799D01*
X245321000Y47691149D02*
X245321000Y54391500D01*
X104238000Y16593000D02*
X112513000Y16593000D01*
X112813000Y14822600D02*
X112813000Y16293000D01*
X76676999Y11592500D02*
X76676999Y9392280D01*
X86076200Y16593000D02*
X76976999Y16593000D01*
X76676999Y11592500D02*
X76676999Y16293000D01*
X76676999Y9392280D02*
X76676999Y3122220D01*
X77801000Y2822220D02*
X76976999Y2822220D01*
X257524999Y54691499D02*
X248127000Y54691499D01*
X230446000Y21642199D02*
X236095000Y21642100D01*
X230446000Y35642900D02*
X236095000Y35642900D01*
X282001622Y35991400D02*
G75*
G02X282001622Y40991000I-31622J2499800D01*
G01*
X262832000Y67090599D02*
G75*
G03X262832000Y67090599I-2500000J0D01*
G01*
X130984000Y47690450D02*
G75*
G03X130984000Y47690450I-2500000J0D01*
G01*
X27982650Y67091300D02*
G75*
G03X27982650Y67091300I-2500000J0D01*
G01*
X3529295Y40990999D02*
G75*
G02X3595300Y35991889I66695J-2499110D01*
G01*
X3595300Y35991889D02*
X3595299Y35991400D01*
X82226700Y1621949D02*
X84283300Y1621949D01*
X106025000Y1621950D02*
X108089000Y1621950D01*
X177464000Y1621950D02*
X179408000Y1621950D01*
X153663000Y1621950D02*
X155726000Y1621950D01*
X279580000Y64217899D02*
G75*
G02X279280000Y64517899I0J300000D01*
G01*
X279280000Y66041900D02*
X279280000Y64517899D01*
X274175000Y40692199D02*
G75*
G02X274475000Y40392199I0J-300000D01*
G01*
X270925000Y40692200D02*
X274175000Y40692199D01*
X192930999Y12592100D02*
G75*
G02X192630999Y12292100I-300000J0D01*
G01*
X184552000Y12292099D02*
G75*
G02X184251999Y12592100I0J300001D01*
G01*
X190783000Y12292100D02*
X184552000Y12292100D01*
X190783000Y12292100D02*
X192630999Y12292100D01*
X253974000Y40392200D02*
G75*
G02X254274000Y40692200I300000J0D01*
G01*
X257225000Y40692200D02*
X254274000Y40692200D01*
X257524999Y40692200D02*
X257225000Y40692200D01*
X250381000Y78792199D02*
G75*
G02X250081000Y79092199I0J300000D01*
G01*
X252756000Y78792199D02*
G75*
G02X253056000Y78492199I0J-300000D01*
G01*
X253356000Y77822099D02*
G75*
G02X253055999Y78122100I0J300001D01*
G01*
X256357000Y78122100D02*
G75*
G02X256057000Y77822100I-300000J0D01*
G01*
X256356999Y78492199D02*
G75*
G02X256656999Y78792199I300000J0D01*
G01*
X276556000Y78792199D02*
G75*
G02X276856000Y78492199I0J-300000D01*
G01*
X277156000Y77822100D02*
G75*
G02X276856000Y78122100I0J300000D01*
G01*
X280157000Y78122100D02*
G75*
G02X279857000Y77822100I-300000J0D01*
G01*
X280157000Y78492199D02*
G75*
G02X280457000Y78792199I300000J0D01*
G01*
X283132000Y79092199D02*
G75*
G02X282832000Y78792199I-300000J0D01*
G01*
X282832000Y92792900D02*
G75*
G02X283132000Y92492900I0J-300000D01*
G01*
X250081000Y92492900D02*
G75*
G02X250381000Y92792900I300000J0D01*
G01*
X266750999Y54991500D02*
G75*
G02X266450999Y54691500I-300000J0D01*
G01*
X266450999Y59742200D02*
G75*
G02X266750999Y59442200I0J-300000D01*
G01*
X264670000Y59742200D02*
G75*
G02X264370000Y60042200I0J300000D01*
G01*
X264370000Y73442899D02*
G75*
G02X264670000Y73742899I300000J0D01*
G01*
X280450000Y64217900D02*
G75*
G02X280750000Y63917900I0J-300000D01*
G01*
X280750000Y47491099D02*
G75*
G02X280450000Y47191099I-300000J0D01*
G01*
X280750000Y50217200D02*
X280750000Y47491099D01*
X279501000Y46891100D02*
G75*
G02X279801000Y47191100I300000J0D01*
G01*
X279501000Y41222199D02*
G75*
G02X279201000Y40922199I-300000J0D01*
G01*
X277775000Y40622199D02*
G75*
G02X278075000Y40922199I300000J0D01*
G01*
X277775000Y40022099D02*
G75*
G02X277475000Y39722099I-300000J0D01*
G01*
X274775000Y39722098D02*
G75*
G02X274474999Y40022099I0J300001D01*
G01*
X253974000Y40022099D02*
G75*
G02X253674000Y39722099I-300000J0D01*
G01*
X250976000Y39722099D02*
G75*
G02X250676000Y40022099I0J300000D01*
G01*
X245614000Y21642100D02*
G75*
G02X245914000Y21342100I0J-300000D01*
G01*
X246214000Y20672000D02*
G75*
G02X245914000Y20972000I0J300000D01*
G01*
X249213000Y20972000D02*
G75*
G02X248913000Y20672000I-300000J0D01*
G01*
X249213000Y21342100D02*
G75*
G02X249513000Y21642100I300000J0D01*
G01*
X269412000Y21642100D02*
G75*
G02X269712000Y21342100I0J-300000D01*
G01*
X270012000Y20672000D02*
G75*
G02X269712000Y20972000I0J300000D01*
G01*
X273013000Y20972000D02*
G75*
G02X272713000Y20672000I-300000J0D01*
G01*
X273013000Y21342100D02*
G75*
G02X273313000Y21642100I300000J0D01*
G01*
X283132000Y21942100D02*
G75*
G02X282832000Y21642100I-300000J0D01*
G01*
X282832000Y35642900D02*
G75*
G02X283132000Y35342900I0J-300000D01*
G01*
X78926100Y2822219D02*
G75*
G02X79226100Y2522219I0J-300000D01*
G01*
X79526099Y1621950D02*
G75*
G02X79226099Y1921950I0J300000D01*
G01*
X87407799Y1921950D02*
G75*
G02X87107799Y1621950I-300000J0D01*
G01*
X87407800Y2292089D02*
G75*
G02X87707800Y2592089I300000J0D01*
G01*
X102726000Y2592089D02*
G75*
G02X103026000Y2292089I0J-300000D01*
G01*
X103326000Y1621950D02*
G75*
G02X103026000Y1921950I0J300000D01*
G01*
X111088000Y1921950D02*
G75*
G02X110788000Y1621950I-300000J0D01*
G01*
X111088000Y2522219D02*
G75*
G02X111388000Y2822219I300000J0D01*
G01*
X112813000Y3122219D02*
G75*
G02X112513000Y2822219I-300000J0D01*
G01*
X112813000Y6992589D02*
G75*
G02X113113000Y7292589I300000J0D01*
G01*
X118814000Y7292588D02*
G75*
G02X119113999Y6992589I0J-299999D01*
G01*
X119414000Y2592089D02*
G75*
G02X119114000Y2892089I0J300000D01*
G01*
X150363998Y2592089D02*
G75*
G02X150663999Y2292090I1J-300000D01*
G01*
X150964001Y1621950D02*
G75*
G02X150664000Y1921949I-1J300000D01*
G01*
X149783000Y2592090D02*
X150363999Y2592090D01*
X158727000Y1921950D02*
G75*
G02X158427000Y1621950I-300000J0D01*
G01*
X158727000Y2292089D02*
G75*
G02X159027000Y2592089I300000J0D01*
G01*
X174162000Y2592089D02*
G75*
G02X174462000Y2292089I0J-300000D01*
G01*
X174762000Y1621950D02*
G75*
G02X174462000Y1921950I0J300000D01*
G01*
X182527000Y1921950D02*
G75*
G02X182227000Y1621950I-300000J0D01*
G01*
X182527000Y2522219D02*
G75*
G02X182827000Y2822219I300000J0D01*
G01*
X184252000Y3122219D02*
G75*
G02X183952000Y2822219I-300000J0D01*
G01*
X184252000Y6992589D02*
G75*
G02X184552000Y7292589I300000J0D01*
G01*
X192630999Y7292589D02*
G75*
G02X192930999Y6992589I0J-300000D01*
G01*
X193231000Y2592088D02*
G75*
G02X192930999Y2892089I0J300001D01*
G01*
X197982999Y2592089D02*
G75*
G02X198282999Y2292089I0J-300000D01*
G01*
X198583000Y1621950D02*
G75*
G02X198283000Y1921950I0J300000D01*
G01*
X201581000Y1921949D02*
G75*
G02X201281000Y1621949I-300000J0D01*
G01*
X201581000Y2292089D02*
G75*
G02X201881000Y2592089I300000J0D01*
G01*
X283132000Y2892089D02*
G75*
G02X282832000Y2592089I-300000J0D01*
G01*
X282832000Y16593000D02*
G75*
G02X283132000Y16293000I0J-300000D01*
G01*
X192931000Y16293000D02*
G75*
G02X193231000Y16593000I300000J0D01*
G01*
X183952000Y15122600D02*
G75*
G02X184252000Y14822600I0J-300000D01*
G01*
X176277000Y15122599D02*
G75*
G02X175976999Y15422600I0J300001D01*
G01*
X175677000Y16593000D02*
G75*
G02X175977000Y16293000I0J-300000D01*
G01*
X119114000Y16293000D02*
G75*
G02X119414000Y16593000I300000J0D01*
G01*
X119114000Y12192500D02*
G75*
G02X118814000Y11892500I-300000J0D01*
G01*
X113113000Y11892500D02*
G75*
G02X112813000Y12192500I0J300000D01*
G01*
X52738699Y2592089D02*
G75*
G02X52438699Y2892089I0J300000D01*
G01*
X68819199Y2892089D02*
G75*
G02X68519199Y2592089I-300000J0D01*
G01*
X68519199Y16593000D02*
G75*
G02X68819199Y16293000I0J-300000D01*
G01*
X52438699Y16293000D02*
G75*
G02X52738699Y16593000I300000J0D01*
G01*
X28926000Y2592088D02*
G75*
G02X28625999Y2892089I0J300001D01*
G01*
X45006700Y2892089D02*
G75*
G02X44706700Y2592089I-300000J0D01*
G01*
X44706700Y16593000D02*
G75*
G02X45006700Y16293000I0J-300000D01*
G01*
X28626000Y16293000D02*
G75*
G02X28926000Y16593000I300000J0D01*
G01*
X20895600Y16593000D02*
G75*
G02X21195600Y16293000I0J-300000D01*
G01*
X21195600Y2892089D02*
G75*
G02X20895600Y2592089I-300000J0D01*
G01*
X5113480Y2592089D02*
G75*
G02X4813480Y2892089I0J300000D01*
G01*
X4813480Y16293000D02*
G75*
G02X5113480Y16593000I300000J0D01*
G01*
X39944200Y35642900D02*
G75*
G02X40244200Y35342900I0J-300000D01*
G01*
X40244200Y21942100D02*
G75*
G02X39944200Y21642100I-300000J0D01*
G01*
X34887800Y21342100D02*
G75*
G02X35187800Y21642100I300000J0D01*
G01*
X34887800Y20972000D02*
G75*
G02X34587800Y20672000I-300000J0D01*
G01*
X31887400Y20672000D02*
G75*
G02X31587400Y20972000I0J300000D01*
G01*
X31287400Y21642100D02*
G75*
G02X31587400Y21342100I0J-300000D01*
G01*
X11087700Y21342100D02*
G75*
G02X11387700Y21642100I300000J0D01*
G01*
X11087700Y20972000D02*
G75*
G02X10787700Y20672000I-300000J0D01*
G01*
X8088660Y20672000D02*
G75*
G02X7788660Y20972000I0J300000D01*
G01*
X7488660Y21642100D02*
G75*
G02X7788660Y21342100I0J-300000D01*
G01*
X5113480Y21642100D02*
G75*
G02X4813480Y21942100I0J300000D01*
G01*
X4813480Y35342900D02*
G75*
G02X5113480Y35642900I300000J0D01*
G01*
X23576800Y40992199D02*
G75*
G02X23276800Y40692199I-300000J0D01*
G01*
X23276800Y54691500D02*
G75*
G02X23576800Y54391500I0J-300000D01*
G01*
X4813480Y54391500D02*
G75*
G02X5113480Y54691500I300000J0D01*
G01*
X5113480Y40692199D02*
G75*
G02X4813480Y40992199I0J300000D01*
G01*
X217045140Y21642199D02*
G75*
G02X216745140Y21942199I0J300000D01*
G01*
X216745140Y21942199D02*
X216745140Y35342900D01*
X230446000Y21642199D02*
X217045140Y21642199D01*
X216745140Y35342900D02*
G75*
G02X217045140Y35642900I300000J0D01*
G01*
X217045140Y35642900D02*
X230446000Y35642900D01*
X197993140Y21642199D02*
G75*
G02X197693140Y21942199I0J300000D01*
G01*
X197693140Y21942199D02*
X197693140Y35342900D01*
X211694000Y21942199D02*
G75*
G02X211394000Y21642199I-300000J0D01*
G01*
X211394000Y21642199D02*
X197993140Y21642199D01*
X211394000Y35642900D02*
G75*
G02X211694000Y35342900I0J-300000D01*
G01*
X211694000Y35342900D02*
X211694000Y21942199D01*
X197693140Y35342900D02*
G75*
G02X197993140Y35642900I300000J0D01*
G01*
X197993140Y35642900D02*
X211394000Y35642900D01*
X178945140Y21642199D02*
G75*
G02X178645140Y21942199I0J300000D01*
G01*
X178645140Y21942199D02*
X178645140Y35342900D01*
X192646000Y21942199D02*
G75*
G02X192346000Y21642199I-300000J0D01*
G01*
X192346000Y21642199D02*
X178945140Y21642199D01*
X192346000Y35642900D02*
G75*
G02X192646000Y35342900I0J-300000D01*
G01*
X192646000Y35342900D02*
X192646000Y21942199D01*
X178645140Y35342900D02*
G75*
G02X178945140Y35642900I300000J0D01*
G01*
X178945140Y35642900D02*
X192346000Y35642900D01*
X159895139Y21642199D02*
G75*
G02X159595139Y21942199I0J300000D01*
G01*
X159595140Y21942199D02*
X159595140Y35342900D01*
X173596000Y21942199D02*
G75*
G02X173296000Y21642199I-300000J0D01*
G01*
X173296000Y21642199D02*
X159895139Y21642199D01*
X173296000Y35642900D02*
G75*
G02X173596000Y35342900I0J-300000D01*
G01*
X173595999Y35342900D02*
X173595999Y21942199D01*
X159595139Y35342900D02*
G75*
G02X159895139Y35642900I300000J0D01*
G01*
X159895139Y35642900D02*
X173296000Y35642900D01*
X140843140Y21642199D02*
G75*
G02X140543140Y21942199I0J300000D01*
G01*
X140543140Y21942199D02*
X140543140Y35342900D01*
X154544000Y21942199D02*
G75*
G02X154244000Y21642199I-300000J0D01*
G01*
X154244000Y21642199D02*
X140843140Y21642199D01*
X154244000Y35642900D02*
G75*
G02X154544000Y35342900I0J-300000D01*
G01*
X154544000Y35342900D02*
X154544000Y21942199D01*
X140543140Y35342900D02*
G75*
G02X140843140Y35642900I300000J0D01*
G01*
X140843140Y35642900D02*
X154244000Y35642900D01*
X121795140Y21642199D02*
G75*
G02X121495140Y21942199I0J300000D01*
G01*
X121495140Y21942199D02*
X121495140Y35342900D01*
X135496000Y21942199D02*
G75*
G02X135196000Y21642199I-300000J0D01*
G01*
X135196000Y21642199D02*
X121795140Y21642199D01*
X135196000Y35642900D02*
G75*
G02X135496000Y35342900I0J-300000D01*
G01*
X135496000Y35342900D02*
X135496000Y21942199D01*
X121495140Y35342900D02*
G75*
G02X121795140Y35642900I300000J0D01*
G01*
X121795140Y35642900D02*
X135196000Y35642900D01*
X102743140Y21642199D02*
G75*
G02X102443140Y21942199I0J300000D01*
G01*
X102443140Y21942199D02*
X102443140Y35342900D01*
X116444000Y21942199D02*
G75*
G02X116144000Y21642199I-300000J0D01*
G01*
X116144000Y21642199D02*
X102743140Y21642199D01*
X116144000Y35642900D02*
G75*
G02X116444000Y35342900I0J-300000D01*
G01*
X116444000Y35342900D02*
X116444000Y21942199D01*
X102443140Y35342900D02*
G75*
G02X102743140Y35642900I300000J0D01*
G01*
X102743140Y35642900D02*
X116144000Y35642900D01*
X83694740Y21642199D02*
G75*
G02X83394740Y21942199I0J300000D01*
G01*
X83394740Y21942199D02*
X83394740Y35342900D01*
X97395600Y21942199D02*
G75*
G02X97095600Y21642199I-300000J0D01*
G01*
X97095600Y21642199D02*
X83694740Y21642199D01*
X97095600Y35642900D02*
G75*
G02X97395600Y35342900I0J-300000D01*
G01*
X97395600Y35342900D02*
X97395600Y21942199D01*
X83394740Y35342900D02*
G75*
G02X83694740Y35642900I300000J0D01*
G01*
X83694740Y35642900D02*
X97095600Y35642900D01*
X64644740Y21642199D02*
G75*
G02X64344740Y21942199I0J300000D01*
G01*
X64344740Y21942199D02*
X64344740Y35342900D01*
X78345600Y21942199D02*
G75*
G02X78045600Y21642199I-300000J0D01*
G01*
X78045600Y21642199D02*
X64644740Y21642199D01*
X78045600Y35642900D02*
G75*
G02X78345600Y35342900I0J-300000D01*
G01*
X78345600Y35342900D02*
X78345600Y21942199D01*
X64344740Y35342900D02*
G75*
G02X64644740Y35642900I300000J0D01*
G01*
X64644740Y35642900D02*
X78045600Y35642900D01*
X45594739Y21642199D02*
G75*
G02X45294739Y21942199I0J300000D01*
G01*
X45294739Y21942199D02*
X45294739Y35342900D01*
X59295600Y21942199D02*
G75*
G02X58995600Y21642199I-300000J0D01*
G01*
X58995600Y21642199D02*
X45594740Y21642199D01*
X58995600Y35642900D02*
G75*
G02X59295600Y35342900I0J-300000D01*
G01*
X59295599Y35342900D02*
X59295599Y21942199D01*
X45294739Y35342900D02*
G75*
G02X45594739Y35642900I300000J0D01*
G01*
X45594739Y35642900D02*
X58995600Y35642900D01*
X36069740Y40690799D02*
G75*
G02X35769740Y40990799I0J300000D01*
G01*
X35769740Y40990799D02*
X35769740Y54391500D01*
X49770600Y40990799D02*
G75*
G02X49470600Y40690799I-300000J0D01*
G01*
X49470600Y40690799D02*
X36069740Y40690799D01*
X49470600Y54691499D02*
G75*
G02X49770599Y54391500I0J-299999D01*
G01*
X49770600Y54391500D02*
X49770600Y40990799D01*
X35769740Y54391500D02*
G75*
G02X36069740Y54691500I300000J0D01*
G01*
X36069740Y54691499D02*
X49470600Y54691499D01*
X55118340Y40690799D02*
G75*
G02X54818340Y40990799I0J300000D01*
G01*
X54818340Y40990799D02*
X54818340Y54391500D01*
X68819199Y40990799D02*
G75*
G02X68519199Y40690799I-300000J0D01*
G01*
X68519199Y40690799D02*
X55118340Y40690799D01*
X68519199Y54691500D02*
G75*
G02X68819199Y54391500I0J-300000D01*
G01*
X68819200Y54391500D02*
X68819200Y40990799D01*
X54818340Y54391500D02*
G75*
G02X55118340Y54691500I300000J0D01*
G01*
X55118340Y54691499D02*
X68519199Y54691499D01*
X74168340Y40690799D02*
G75*
G02X73868340Y40990799I0J300000D01*
G01*
X73868340Y40990799D02*
X73868340Y54391500D01*
X87869200Y40990799D02*
G75*
G02X87569200Y40690799I-300000J0D01*
G01*
X87569200Y40690799D02*
X74168340Y40690799D01*
X87569200Y54691499D02*
G75*
G02X87869199Y54391500I0J-299999D01*
G01*
X87869200Y54391500D02*
X87869200Y40990799D01*
X73868340Y54391500D02*
G75*
G02X74168340Y54691500I300000J0D01*
G01*
X74168340Y54691499D02*
X87569200Y54691499D01*
X93218140Y40690799D02*
G75*
G02X92918140Y40990799I0J300000D01*
G01*
X92918140Y40990799D02*
X92918140Y54391500D01*
X106919000Y40990799D02*
G75*
G02X106619000Y40690799I-300000J0D01*
G01*
X106619000Y40690799D02*
X93218140Y40690799D01*
X106619000Y54691500D02*
G75*
G02X106919000Y54391500I0J-300000D01*
G01*
X106919000Y54391500D02*
X106919000Y40990799D01*
X92918140Y54391500D02*
G75*
G02X93218140Y54691500I300000J0D01*
G01*
X93218140Y54691499D02*
X106619000Y54691499D01*
X112270140Y40690799D02*
G75*
G02X111970140Y40990799I0J300000D01*
G01*
X111970140Y40990799D02*
X111970140Y54391500D01*
X125971000Y40990799D02*
G75*
G02X125671000Y40690799I-300000J0D01*
G01*
X125671000Y40690799D02*
X112270140Y40690799D01*
X125671000Y54691500D02*
G75*
G02X125971000Y54391500I0J-300000D01*
G01*
X125971000Y54391500D02*
X125971000Y40990799D01*
X111970140Y54391500D02*
G75*
G02X112270140Y54691500I300000J0D01*
G01*
X112270140Y54691499D02*
X125671000Y54691499D01*
X131318140Y40690798D02*
G75*
G02X131018139Y40990799I0J300001D01*
G01*
X131018139Y40990799D02*
X131018139Y54391500D01*
X145019000Y40990799D02*
G75*
G02X144719000Y40690799I-300000J0D01*
G01*
X144719000Y40690799D02*
X131318140Y40690799D01*
X144719000Y54691500D02*
G75*
G02X145019000Y54391500I0J-300000D01*
G01*
X145019000Y54391500D02*
X145019000Y40990799D01*
X131018140Y54391500D02*
G75*
G02X131318140Y54691500I300000J0D01*
G01*
X131318140Y54691499D02*
X144719000Y54691499D01*
X150368140Y40690799D02*
G75*
G02X150068140Y40990799I0J300000D01*
G01*
X150068140Y40990799D02*
X150068140Y54391500D01*
X164069000Y40990799D02*
G75*
G02X163769000Y40690799I-300000J0D01*
G01*
X163769000Y40690799D02*
X150368140Y40690799D01*
X163769000Y54691500D02*
G75*
G02X164069000Y54391500I0J-300000D01*
G01*
X164069000Y54391500D02*
X164069000Y40990799D01*
X150068140Y54391500D02*
G75*
G02X150368140Y54691500I300000J0D01*
G01*
X150368140Y54691499D02*
X163769000Y54691499D01*
X169420140Y40690799D02*
G75*
G02X169120140Y40990799I0J300000D01*
G01*
X169120140Y40990799D02*
X169120140Y54391500D01*
X183120999Y40990799D02*
G75*
G02X182820999Y40690799I-300000J0D01*
G01*
X182820999Y40690799D02*
X169420140Y40690799D01*
X182820999Y54691500D02*
G75*
G02X183120999Y54391500I0J-300000D01*
G01*
X183121000Y54391500D02*
X183121000Y40990799D01*
X169120140Y54391500D02*
G75*
G02X169420140Y54691500I300000J0D01*
G01*
X169420140Y54691499D02*
X182820999Y54691499D01*
X188468140Y40690799D02*
G75*
G02X188168140Y40990799I0J300000D01*
G01*
X188168140Y40990799D02*
X188168140Y54391500D01*
X202169000Y40990799D02*
G75*
G02X201869000Y40690799I-300000J0D01*
G01*
X201869000Y40690799D02*
X188468140Y40690799D01*
X201869000Y54691500D02*
G75*
G02X202169000Y54391500I0J-300000D01*
G01*
X202169000Y54391500D02*
X202169000Y40990799D01*
X188168140Y54391500D02*
G75*
G02X188468140Y54691500I300000J0D01*
G01*
X188468140Y54691499D02*
X201869000Y54691499D01*
X207520140Y40690799D02*
G75*
G02X207220140Y40990799I0J300000D01*
G01*
X207220140Y40990799D02*
X207220140Y54391500D01*
X221221000Y40990799D02*
G75*
G02X220921000Y40690799I-300000J0D01*
G01*
X220921000Y40690799D02*
X207520140Y40690799D01*
X220921000Y54691500D02*
G75*
G02X221221000Y54391500I0J-300000D01*
G01*
X221221000Y54391500D02*
X221221000Y40990799D01*
X207220140Y54391500D02*
G75*
G02X207520140Y54691500I300000J0D01*
G01*
X207520140Y54691499D02*
X220921000Y54691499D01*
X226570140Y40690799D02*
G75*
G02X226270140Y40990799I0J300000D01*
G01*
X226270140Y40990799D02*
X226270140Y54391500D01*
X240271000Y40990799D02*
G75*
G02X239971000Y40690799I-300000J0D01*
G01*
X239971000Y40690799D02*
X226570140Y40690799D01*
X239971000Y54691500D02*
G75*
G02X240271000Y54391500I0J-300000D01*
G01*
X240271000Y54391500D02*
X240271000Y40990799D01*
X226270140Y54391500D02*
G75*
G02X226570140Y54691500I300000J0D01*
G01*
X226570140Y54691499D02*
X239971000Y54691499D01*
X240856140Y59742200D02*
G75*
G02X240556140Y60042200I0J300000D01*
G01*
X240556140Y60042200D02*
X240556140Y73442899D01*
X254557000Y60042200D02*
G75*
G02X254257000Y59742200I-300000J0D01*
G01*
X254257000Y59742199D02*
X240856140Y59742199D01*
X254257000Y73742899D02*
G75*
G02X254557000Y73442899I0J-300000D01*
G01*
X254557000Y73442899D02*
X254557000Y60042200D01*
X240556140Y73442899D02*
G75*
G02X240856140Y73742899I300000J0D01*
G01*
X240856140Y73742900D02*
X254257000Y73742900D01*
X221807140Y59742200D02*
G75*
G02X221507140Y60042200I0J300000D01*
G01*
X221507140Y60042200D02*
X221507140Y73442899D01*
X235508000Y60042200D02*
G75*
G02X235208000Y59742200I-300000J0D01*
G01*
X235208000Y59742199D02*
X221807140Y59742199D01*
X235208000Y73742899D02*
G75*
G02X235508000Y73442899I0J-300000D01*
G01*
X235508000Y73442899D02*
X235508000Y60042200D01*
X221507140Y73442899D02*
G75*
G02X221807140Y73742899I300000J0D01*
G01*
X221807140Y73742900D02*
X235208000Y73742900D01*
X202756140Y59742199D02*
G75*
G02X202456139Y60042200I0J300001D01*
G01*
X202456140Y60042200D02*
X202456140Y73442899D01*
X216457000Y60042200D02*
G75*
G02X216157000Y59742200I-300000J0D01*
G01*
X216157000Y59742199D02*
X202756140Y59742199D01*
X216157000Y73742899D02*
G75*
G02X216457000Y73442899I0J-300000D01*
G01*
X216457000Y73442899D02*
X216457000Y60042200D01*
X202456140Y73442899D02*
G75*
G02X202756140Y73742899I300000J0D01*
G01*
X202756140Y73742900D02*
X216157000Y73742900D01*
X183707140Y59742200D02*
G75*
G02X183407140Y60042200I0J300000D01*
G01*
X183407140Y60042200D02*
X183407140Y73442899D01*
X197408000Y60042200D02*
G75*
G02X197108000Y59742200I-300000J0D01*
G01*
X197108000Y59742199D02*
X183707140Y59742199D01*
X197108000Y73742899D02*
G75*
G02X197408000Y73442899I0J-300000D01*
G01*
X197408000Y73442899D02*
X197408000Y60042200D01*
X183407140Y73442899D02*
G75*
G02X183707140Y73742899I300000J0D01*
G01*
X183707140Y73742900D02*
X197108000Y73742900D01*
X164657140Y59742200D02*
G75*
G02X164357140Y60042200I0J300000D01*
G01*
X164357140Y60042200D02*
X164357140Y73442899D01*
X178358000Y60042200D02*
G75*
G02X178058000Y59742200I-300000J0D01*
G01*
X178058000Y59742199D02*
X164657140Y59742199D01*
X178058000Y73742899D02*
G75*
G02X178358000Y73442899I0J-300000D01*
G01*
X178358000Y73442899D02*
X178358000Y60042200D01*
X164357140Y73442899D02*
G75*
G02X164657140Y73742899I300000J0D01*
G01*
X164657140Y73742900D02*
X178058000Y73742900D01*
X145606140Y59742200D02*
G75*
G02X145306140Y60042200I0J300000D01*
G01*
X145306140Y60042200D02*
X145306140Y73442899D01*
X159307000Y60042200D02*
G75*
G02X159007000Y59742200I-300000J0D01*
G01*
X159007000Y59742199D02*
X145606140Y59742199D01*
X159007000Y73742899D02*
G75*
G02X159307000Y73442899I0J-300000D01*
G01*
X159307000Y73442899D02*
X159307000Y60042200D01*
X145306140Y73442899D02*
G75*
G02X145606140Y73742899I300000J0D01*
G01*
X145606140Y73742900D02*
X159007000Y73742900D01*
X126557140Y59742200D02*
G75*
G02X126257140Y60042200I0J300000D01*
G01*
X126257140Y60042200D02*
X126257140Y73442899D01*
X140258000Y60042200D02*
G75*
G02X139958000Y59742200I-300000J0D01*
G01*
X139958000Y59742199D02*
X126557140Y59742199D01*
X139958000Y73742899D02*
G75*
G02X140258000Y73442899I0J-300000D01*
G01*
X140258000Y73442899D02*
X140258000Y60042200D01*
X126257140Y73442899D02*
G75*
G02X126557140Y73742899I300000J0D01*
G01*
X126557140Y73742900D02*
X139958000Y73742900D01*
X107506140Y59742200D02*
G75*
G02X107206140Y60042200I0J300000D01*
G01*
X107206140Y60042200D02*
X107206140Y73442899D01*
X121207000Y60042200D02*
G75*
G02X120907000Y59742200I-300000J0D01*
G01*
X120907000Y59742199D02*
X107506140Y59742199D01*
X120907000Y73742899D02*
G75*
G02X121207000Y73442899I0J-300000D01*
G01*
X121207000Y73442899D02*
X121207000Y60042200D01*
X107206140Y73442899D02*
G75*
G02X107506140Y73742899I300000J0D01*
G01*
X107506140Y73742900D02*
X120907000Y73742900D01*
X88457140Y59742200D02*
G75*
G02X88157140Y60042200I0J300000D01*
G01*
X88157139Y60042200D02*
X88157139Y73442899D01*
X102158000Y60042200D02*
G75*
G02X101858000Y59742200I-300000J0D01*
G01*
X101858000Y59742199D02*
X88457140Y59742199D01*
X101858000Y73742899D02*
G75*
G02X102158000Y73442899I0J-300000D01*
G01*
X102158000Y73442899D02*
X102158000Y60042200D01*
X88157140Y73442899D02*
G75*
G02X88457140Y73742899I300000J0D01*
G01*
X88457140Y73742900D02*
X101858000Y73742900D01*
X69407240Y59742200D02*
G75*
G02X69107240Y60042200I0J300000D01*
G01*
X69107239Y60042200D02*
X69107239Y73442899D01*
X83108100Y60042200D02*
G75*
G02X82808100Y59742200I-300000J0D01*
G01*
X82808100Y59742199D02*
X69407240Y59742199D01*
X82808100Y73742899D02*
G75*
G02X83108100Y73442899I0J-300000D01*
G01*
X83108100Y73442899D02*
X83108100Y60042200D01*
X69107240Y73442899D02*
G75*
G02X69407240Y73742899I300000J0D01*
G01*
X69407240Y73742900D02*
X82808100Y73742900D01*
X50357240Y59742200D02*
G75*
G02X50057240Y60042200I0J300000D01*
G01*
X50057240Y60042200D02*
X50057240Y73442899D01*
X64058100Y60042200D02*
G75*
G02X63758100Y59742200I-300000J0D01*
G01*
X63758100Y59742199D02*
X50357240Y59742199D01*
X63758100Y73742898D02*
G75*
G02X64058099Y73442899I0J-299999D01*
G01*
X64058099Y73442899D02*
X64058099Y60042200D01*
X50057240Y73442899D02*
G75*
G02X50357240Y73742899I300000J0D01*
G01*
X50357240Y73742900D02*
X63758100Y73742900D01*
X31305840Y59742200D02*
G75*
G02X31005840Y60042200I0J300000D01*
G01*
X31005840Y60042200D02*
X31005840Y73442899D01*
X45006700Y60042200D02*
G75*
G02X44706700Y59742200I-300000J0D01*
G01*
X44706700Y59742199D02*
X31305840Y59742199D01*
X44706700Y73742898D02*
G75*
G02X45006699Y73442899I0J-299999D01*
G01*
X45006700Y73442899D02*
X45006700Y60042200D01*
X31005840Y73442899D02*
G75*
G02X31305840Y73742899I300000J0D01*
G01*
X31305840Y73742900D02*
X44706700Y73742900D01*
X7494739Y59742200D02*
G75*
G02X7194739Y60042200I0J300000D01*
G01*
X7194739Y60042200D02*
X7194739Y73442899D01*
X21195600Y60042200D02*
G75*
G02X20895600Y59742200I-300000J0D01*
G01*
X20895600Y59742199D02*
X7494739Y59742199D01*
X20895600Y73742899D02*
G75*
G02X21195600Y73442899I0J-300000D01*
G01*
X21195600Y73442899D02*
X21195600Y60042200D01*
X7194739Y73442899D02*
G75*
G02X7494739Y73742899I300000J0D01*
G01*
X7494739Y73742900D02*
X20895600Y73742900D01*
X231332140Y78792199D02*
G75*
G02X231032140Y79092199I0J300000D01*
G01*
X231032140Y79092199D02*
X231032140Y92492900D01*
X245033000Y79092199D02*
G75*
G02X244733000Y78792199I-300000J0D01*
G01*
X244733000Y78792200D02*
X231332140Y78792200D01*
X244733000Y92792900D02*
G75*
G02X245033000Y92492900I0J-300000D01*
G01*
X245033000Y92492900D02*
X245033000Y79092199D01*
X231032140Y92492900D02*
G75*
G02X231332140Y92792900I300000J0D01*
G01*
X231332140Y92792900D02*
X244733000Y92792900D01*
X212282140Y78792199D02*
G75*
G02X211982140Y79092199I0J300000D01*
G01*
X211982140Y79092199D02*
X211982140Y92492900D01*
X225983000Y79092199D02*
G75*
G02X225683000Y78792199I-300000J0D01*
G01*
X225683000Y78792200D02*
X212282140Y78792200D01*
X225683000Y92792900D02*
G75*
G02X225983000Y92492900I0J-300000D01*
G01*
X225983000Y92492900D02*
X225983000Y79092199D01*
X211982140Y92492900D02*
G75*
G02X212282140Y92792900I300000J0D01*
G01*
X212282140Y92792900D02*
X225683000Y92792900D01*
X193231140Y78792199D02*
G75*
G02X192931140Y79092199I0J300000D01*
G01*
X192931140Y79092199D02*
X192931140Y92492900D01*
X206932000Y79092199D02*
G75*
G02X206632000Y78792199I-300000J0D01*
G01*
X206632000Y78792200D02*
X193231140Y78792200D01*
X206632000Y92792900D02*
G75*
G02X206932000Y92492900I0J-300000D01*
G01*
X206932000Y92492900D02*
X206932000Y79092199D01*
X192931140Y92492900D02*
G75*
G02X193231140Y92792900I300000J0D01*
G01*
X193231140Y92792900D02*
X206632000Y92792900D01*
X174182140Y78792199D02*
G75*
G02X173882140Y79092199I0J300000D01*
G01*
X173882140Y79092199D02*
X173882140Y92492900D01*
X187882999Y79092199D02*
G75*
G02X187582999Y78792199I-300000J0D01*
G01*
X187582999Y78792200D02*
X174182140Y78792200D01*
X187582999Y92792900D02*
G75*
G02X187882999Y92492900I0J-300000D01*
G01*
X187882999Y92492900D02*
X187882999Y79092199D01*
X173882140Y92492900D02*
G75*
G02X174182140Y92792900I300000J0D01*
G01*
X174182140Y92792900D02*
X187582999Y92792900D01*
X155131140Y78792198D02*
G75*
G02X154831139Y79092199I0J300001D01*
G01*
X154831140Y79092199D02*
X154831140Y92492900D01*
X168832000Y79092199D02*
G75*
G02X168532000Y78792199I-300000J0D01*
G01*
X168532000Y78792200D02*
X155131140Y78792200D01*
X168532000Y92792900D02*
G75*
G02X168832000Y92492900I0J-300000D01*
G01*
X168832000Y92492900D02*
X168832000Y79092199D01*
X154831140Y92492900D02*
G75*
G02X155131140Y92792900I300000J0D01*
G01*
X155131140Y92792900D02*
X168532000Y92792900D01*
X136082140Y78792199D02*
G75*
G02X135782140Y79092199I0J300000D01*
G01*
X135782140Y79092199D02*
X135782140Y92492900D01*
X149783000Y79092199D02*
G75*
G02X149483000Y78792199I-300000J0D01*
G01*
X149483000Y78792200D02*
X136082140Y78792200D01*
X149483000Y92792900D02*
G75*
G02X149783000Y92492900I0J-300000D01*
G01*
X149783000Y92492900D02*
X149783000Y79092199D01*
X135782140Y92492900D02*
G75*
G02X136082140Y92792900I300000J0D01*
G01*
X136082140Y92792900D02*
X149483000Y92792900D01*
X117032140Y78792199D02*
G75*
G02X116732140Y79092199I0J300000D01*
G01*
X116732140Y79092199D02*
X116732140Y92492900D01*
X130733000Y79092199D02*
G75*
G02X130433000Y78792199I-300000J0D01*
G01*
X130433000Y78792200D02*
X117032140Y78792200D01*
X130433000Y92792900D02*
G75*
G02X130733000Y92492900I0J-300000D01*
G01*
X130733000Y92492900D02*
X130733000Y79092199D01*
X116732140Y92492900D02*
G75*
G02X117032140Y92792900I300000J0D01*
G01*
X117032140Y92792900D02*
X130433000Y92792900D01*
X97982140Y78792199D02*
G75*
G02X97682140Y79092199I0J300000D01*
G01*
X97682140Y79092199D02*
X97682140Y92492900D01*
X111683000Y79092199D02*
G75*
G02X111383000Y78792199I-300000J0D01*
G01*
X111383000Y78792200D02*
X97982140Y78792200D01*
X111383000Y92792900D02*
G75*
G02X111683000Y92492900I0J-300000D01*
G01*
X111683000Y92492900D02*
X111683000Y79092199D01*
X97682140Y92492900D02*
G75*
G02X97982140Y92792900I300000J0D01*
G01*
X97982140Y92792900D02*
X111383000Y92792900D01*
X78932240Y78792199D02*
G75*
G02X78632240Y79092199I0J300000D01*
G01*
X78632239Y79092199D02*
X78632239Y92492900D01*
X92633100Y79092199D02*
G75*
G02X92333100Y78792199I-300000J0D01*
G01*
X92333100Y78792200D02*
X78932240Y78792200D01*
X92333100Y92792900D02*
G75*
G02X92633100Y92492900I0J-300000D01*
G01*
X92633100Y92492900D02*
X92633100Y79092199D01*
X78632240Y92492900D02*
G75*
G02X78932240Y92792900I300000J0D01*
G01*
X78932240Y92792900D02*
X92333100Y92792900D01*
X59880840Y78792199D02*
G75*
G02X59580840Y79092199I0J300000D01*
G01*
X59580840Y79092199D02*
X59580840Y92492900D01*
X73581700Y79092199D02*
G75*
G02X73281700Y78792199I-300000J0D01*
G01*
X73281700Y78792200D02*
X59880840Y78792200D01*
X73281700Y92792900D02*
G75*
G02X73581700Y92492900I0J-300000D01*
G01*
X73581700Y92492900D02*
X73581700Y79092199D01*
X59580840Y92492900D02*
G75*
G02X59880840Y92792900I300000J0D01*
G01*
X59880840Y92792900D02*
X73281700Y92792900D01*
X40832239Y78792199D02*
G75*
G02X40532239Y79092199I0J300000D01*
G01*
X40532239Y79092199D02*
X40532239Y92492900D01*
X54533099Y79092199D02*
G75*
G02X54233099Y78792199I-300000J0D01*
G01*
X54233099Y78792200D02*
X40832240Y78792200D01*
X54233099Y92792900D02*
G75*
G02X54533099Y92492900I0J-300000D01*
G01*
X54533099Y92492900D02*
X54533099Y79092199D01*
X40532239Y92492900D02*
G75*
G02X40832239Y92792900I300000J0D01*
G01*
X40832239Y92792900D02*
X54233099Y92792900D01*
X21782240Y78792199D02*
G75*
G02X21482240Y79092199I0J300000D01*
G01*
X21482240Y79092199D02*
X21482240Y92492900D01*
X35483100Y79092199D02*
G75*
G02X35183100Y78792199I-300000J0D01*
G01*
X35183100Y78792200D02*
X21782240Y78792200D01*
X35183100Y92792900D02*
G75*
G02X35483100Y92492900I0J-300000D01*
G01*
X35483100Y92492900D02*
X35483100Y79092199D01*
X21482240Y92492900D02*
G75*
G02X21782240Y92792900I300000J0D01*
G01*
X21782240Y92792900D02*
X35183100Y92792900D01*
X16433099Y79092199D02*
G75*
G02X16133099Y78792199I-300000J0D01*
G01*
X16133099Y92792901D02*
G75*
G02X16433100Y92492900I0J-300001D01*
G01*
X2432240Y92492900D02*
G75*
G02X2732240Y92792900I300000J0D01*
G01*
X2732240Y78792199D02*
G75*
G02X2432240Y79092199I0J300000D01*
G01*
X264370000Y16593000D02*
X264082000Y16593000D01*
X264370000Y2592090D02*
X264082000Y2592090D01*
X211982000Y2592090D02*
X211694000Y2592090D01*
X211982000Y16593000D02*
X211694000Y16593000D01*
X2432240Y79092199D02*
X2432240Y92492900D01*
X16133099Y78792200D02*
X2732240Y78792200D01*
X16433100Y92492900D02*
X16433100Y79092199D01*
X2732240Y92792900D02*
X16133099Y92792900D01*
X282832000Y92792900D02*
X250381000Y92792900D01*
X283132000Y79092199D02*
X283132000Y92492900D01*
X280457000Y78792200D02*
X282832000Y78792200D01*
X280157000Y78122100D02*
X280157000Y78492199D01*
X277156000Y77822100D02*
X279857000Y77822100D01*
X276856000Y78492199D02*
X276856000Y78122100D01*
X256656999Y78792200D02*
X276556000Y78792200D01*
X256357000Y78122100D02*
X256357000Y78492199D01*
X253356000Y77822100D02*
X256057000Y77822100D01*
X253056000Y78492199D02*
X253056000Y78122100D01*
X250381000Y78792200D02*
X252756000Y78792200D01*
X250081000Y92492900D02*
X250081000Y79092199D01*
X4813480Y40992199D02*
X4813480Y54391500D01*
X23276800Y40692200D02*
X5113479Y40692200D01*
X23576800Y54391500D02*
X23576800Y40992199D01*
X5113480Y54691499D02*
X23276800Y54691499D01*
X278069000Y73742900D02*
X264670000Y73742900D01*
X279280000Y66041900D02*
X279280000Y72193000D01*
X280450000Y64217900D02*
X279580000Y64217900D01*
X280750000Y50217200D02*
X280750000Y63917900D01*
X279501000Y41222199D02*
X279501000Y46891100D01*
X278075000Y40922200D02*
X279201000Y40922200D01*
X277775000Y40022099D02*
X277775000Y40622199D01*
X274775000Y39722100D02*
X277475000Y39722100D01*
X274475000Y40392199D02*
X274475000Y40022099D01*
X257524999Y40692200D02*
X270925000Y40692200D01*
X253974000Y40022099D02*
X253974000Y40392200D01*
X250976000Y39722100D02*
X253674000Y39722100D01*
X250676000Y40390799D02*
X250676000Y40022099D01*
X266450999Y54691499D02*
X257524999Y54691499D01*
X266750999Y59442200D02*
X266750999Y54991500D01*
X264670000Y59742199D02*
X266450999Y59742199D01*
X264370000Y73442899D02*
X264370000Y60042200D01*
X39944200Y35642900D02*
X5113480Y35642900D01*
X40244200Y21942100D02*
X40244200Y35342900D01*
X35187800Y21642100D02*
X39944200Y21642100D01*
X34887800Y20972000D02*
X34887800Y21342100D01*
X31887400Y20672000D02*
X34587800Y20672000D01*
X31587400Y21342100D02*
X31587400Y20972000D01*
X11387700Y21642100D02*
X31287400Y21642100D01*
X11087700Y20972000D02*
X11087700Y21342100D01*
X8088660Y20672000D02*
X10787700Y20672000D01*
X7788660Y21342100D02*
X7788660Y20972000D01*
X5113480Y21642100D02*
X7488660Y21642100D01*
X4813480Y35342900D02*
X4813480Y21942100D01*
X282832000Y35642900D02*
X236095000Y35642900D01*
X283132000Y21942100D02*
X283132000Y35342900D01*
X273313000Y21642100D02*
X282832000Y21642100D01*
X273013000Y20972000D02*
X273013000Y21342100D01*
X270012000Y20672000D02*
X272713000Y20672000D01*
X269712000Y21342100D02*
X269712000Y20972000D01*
X249513000Y21642100D02*
X269412000Y21642100D01*
X249213000Y20972000D02*
X249213000Y21342100D01*
X246214000Y20672000D02*
X248913000Y20672000D01*
X245914000Y21342100D02*
X245914000Y20972000D01*
X236095000Y21642100D02*
X245614000Y21642100D01*
X4813480Y2892089D02*
X4813480Y16293000D01*
X20895600Y2592090D02*
X5113480Y2592090D01*
X21195600Y16293000D02*
X21195600Y2892089D01*
X5113480Y16593000D02*
X20895600Y16593000D01*
X28626000Y2892089D02*
X28626000Y16293000D01*
X44706700Y2592090D02*
X28926000Y2592090D01*
X45006700Y16293000D02*
X45006700Y2892089D01*
X28926000Y16593000D02*
X44706700Y16593000D01*
X52438700Y2892089D02*
X52438700Y16293000D01*
X68519199Y2592090D02*
X52738699Y2592090D01*
X68819200Y16293000D02*
X68819200Y2892089D01*
X52738699Y16593000D02*
X68519199Y16593000D01*
X264082000Y2592090D02*
X211982000Y2592090D01*
X211982000Y16593000D02*
X264082000Y16593000D01*
X282832000Y2592090D02*
X264370000Y2592090D01*
X283132000Y16293000D02*
X283132000Y2892089D01*
X264370000Y16593000D02*
X282832000Y16593000D01*
X104238000Y16593000D02*
X86076200Y16593000D01*
X112813000Y12192500D02*
X112813000Y14822600D01*
X118814000Y11892500D02*
X113113000Y11892500D01*
X119114000Y16293000D02*
X119114000Y12192500D01*
X149483000Y16593000D02*
X119414000Y16593000D01*
X175677000Y16593000D02*
X157512000Y16593000D01*
X175977000Y15422600D02*
X175977000Y16293000D01*
X183952000Y15122600D02*
X176277000Y15122600D01*
X184252000Y12592100D02*
X184252000Y14822600D01*
X192931000Y16293000D02*
X192931000Y12592100D01*
X211694000Y16593000D02*
X193231000Y16593000D01*
X201881000Y2592090D02*
X211694000Y2592090D01*
X201581000Y1921949D02*
X201581000Y2292089D01*
X198583000Y1621950D02*
X201281000Y1621950D01*
X198283000Y2292089D02*
X198283000Y1921949D01*
X193231000Y2592090D02*
X197982999Y2592090D01*
X192931000Y6992589D02*
X192931000Y2892089D01*
X190788000Y7292589D02*
X192630999Y7292589D01*
X190783000Y7291210D02*
X190788000Y7292589D01*
X190777000Y7292589D02*
X190783000Y7291210D01*
X184552000Y7292589D02*
X190777000Y7292589D01*
X184252000Y3122219D02*
X184252000Y6992589D01*
X182827000Y2822220D02*
X183952000Y2822220D01*
X182527000Y1921950D02*
X182527000Y2522219D01*
X179408000Y1621950D02*
X182227000Y1621950D01*
X174762000Y1621950D02*
X177464000Y1621950D01*
X174462000Y2292089D02*
X174462000Y1921949D01*
X159027000Y2592090D02*
X174162000Y2592090D01*
X158727000Y1921950D02*
X158727000Y2292089D01*
X155726000Y1621950D02*
X158427000Y1621950D01*
X150964000Y1621950D02*
X153663000Y1621950D01*
X150663999Y2292090D02*
X150664000Y1921949D01*
X119414000Y2592090D02*
X149783000Y2592090D01*
X119114000Y6992589D02*
X119114000Y2892089D01*
X113113000Y7292589D02*
X118814000Y7292589D01*
X112813000Y3122219D02*
X112813000Y6992589D01*
X111388000Y2822220D02*
X112513000Y2822220D01*
X111088000Y1921950D02*
X111088000Y2522219D01*
X108089000Y1621950D02*
X110788000Y1621950D01*
X103326000Y1621950D02*
X106025000Y1621950D01*
X103026000Y2292089D02*
X103026000Y1921949D01*
X87707800Y2592090D02*
X102726000Y2592090D01*
X87407800Y1921950D02*
X87407800Y2292089D01*
X84283300Y1621950D02*
X87107799Y1621950D01*
X79526099Y1621950D02*
X82226700Y1621950D01*
X79226100Y2522219D02*
X79226100Y1921950D01*
X77801000Y2822220D02*
X78926100Y2822220D01*
X3095070Y95154800D02*
X282470000Y95154800D01*
X2859430Y95145200D02*
X3095070Y95154800D01*
X2625159Y95119100D02*
X2859430Y95145200D01*
X2395029Y95072200D02*
X2625159Y95119100D01*
X2167650Y95008700D02*
X2395029Y95072200D01*
X1947170Y94926200D02*
X2167650Y95008700D01*
X1733570Y94828400D02*
X1947170Y94926200D01*
X1526870Y94712700D02*
X1733570Y94828400D01*
X1331189Y94582900D02*
X1526870Y94712700D01*
X1146529Y94436900D02*
X1331189Y94582900D01*
X972893Y94276999D02*
X1146529Y94436900D01*
X813043Y94103500D02*
X972893Y94276999D01*
X666972Y93919000D02*
X813043Y94103500D01*
X537436Y93723200D02*
X666972Y93919000D01*
X421679Y93516400D02*
X537436Y93723200D01*
X323839Y93302700D02*
X421679Y93516400D01*
X241157Y93082200D02*
X323839Y93302700D01*
X177767Y92855000D02*
X241157Y93082200D01*
X130914Y92625000D02*
X177767Y92855000D01*
X104731Y92390700D02*
X130914Y92625000D01*
X95084Y92155100D02*
X104731Y92390700D01*
X95084Y40991000D02*
X95084Y92155100D01*
X3529295Y40991000D02*
X95084Y40991000D01*
X95084Y35991400D02*
X3595299Y35991400D01*
X95084Y3230119D02*
X95084Y35991400D01*
X104731Y2993100D02*
X95084Y3230119D01*
X130914Y2758830D02*
X104731Y2993100D01*
X177767Y2527320D02*
X130914Y2758830D01*
X241157Y2301320D02*
X177767Y2527320D01*
X323839Y2080839D02*
X241157Y2301320D01*
X421679Y1865859D02*
X323839Y2080839D01*
X537436Y1661909D02*
X421679Y1865859D01*
X666972Y1464850D02*
X537436Y1661909D01*
X813043Y1280199D02*
X666972Y1464850D01*
X972893Y1107939D02*
X813043Y1280199D01*
X1146529Y948090D02*
X972893Y1107939D01*
X1331189Y802018D02*
X1146529Y948090D01*
X1526870Y671103D02*
X1331189Y802018D01*
X1733570Y553970D02*
X1526870Y671103D01*
X1947170Y456131D02*
X1733570Y553970D01*
X2167650Y374826D02*
X1947170Y456131D01*
X2395029Y310059D02*
X2167650Y374826D01*
X2625159Y265961D02*
X2395029Y310059D01*
X2859430Y238401D02*
X2625159Y265961D01*
X3095070Y227376D02*
X2859430Y238401D01*
X282470000Y227376D02*
X3095070Y227376D01*
X282705999Y238401D02*
X282470000Y227376D01*
X282940000Y265961D02*
X282705999Y238401D01*
X283170000Y310059D02*
X282940000Y265961D01*
X283398000Y374826D02*
X283170000Y310059D01*
X283618000Y456131D02*
X283398000Y374826D01*
X283832000Y553970D02*
X283618000Y456131D01*
X284037000Y671103D02*
X283832000Y553970D01*
X284234000Y802018D02*
X284037000Y671103D01*
X284419000Y948090D02*
X284234000Y802018D01*
X284591000Y1107939D02*
X284419000Y948090D01*
X284751000Y1280199D02*
X284591000Y1107939D01*
X284897000Y1464850D02*
X284751000Y1280199D01*
X285028000Y1661909D02*
X284897000Y1464850D01*
X285144000Y1865859D02*
X285028000Y1661909D01*
X285242000Y2080839D02*
X285144000Y1865859D01*
X285323000Y2301320D02*
X285242000Y2080839D01*
X285388000Y2527320D02*
X285323000Y2301320D01*
X285433000Y2758830D02*
X285388000Y2527320D01*
X285461000Y2993100D02*
X285433000Y2758830D01*
X285470000Y3227370D02*
X285461000Y2993100D01*
X285470000Y35991400D02*
X285470000Y3227370D01*
X285470000Y92155100D02*
X285470000Y40991000D01*
X285461000Y92390700D02*
X285470000Y92155100D01*
X285433000Y92625000D02*
X285461000Y92390700D01*
X285388000Y92855000D02*
X285433000Y92625000D01*
X285323000Y93082200D02*
X285388000Y92855000D01*
X285242000Y93302700D02*
X285323000Y93082200D01*
X285144000Y93516400D02*
X285242000Y93302700D01*
X285028000Y93723200D02*
X285144000Y93516400D01*
X284897000Y93919000D02*
X285028000Y93723200D01*
X284751000Y94103500D02*
X284897000Y93919000D01*
X284591000Y94276999D02*
X284751000Y94103500D01*
X284419000Y94436900D02*
X284591000Y94276999D01*
X284234000Y94582900D02*
X284419000Y94436900D01*
X284037000Y94712700D02*
X284234000Y94582900D01*
X283832000Y94828400D02*
X284037000Y94712700D01*
X283618000Y94926200D02*
X283832000Y94828400D01*
X283398000Y95008700D02*
X283618000Y94926200D01*
X283170000Y95072200D02*
X283398000Y95008700D01*
X282940000Y95119100D02*
X283170000Y95072200D01*
X282705999Y95145200D02*
X282940000Y95119100D01*
X282470000Y95154800D02*
X282705999Y95145200D01*
M02*
