%FSLAX45Y45*%
G04 Gerber Fmt 4.5, Leading zero omitted, Abs format (unit mm)*
G04 Created by KiCad (PCBNEW (5.1.4)-1) date 2020-11-16 22:26:11*
%MOMM*%
%LPD*%
G04 APERTURE LIST*
%ADD10C,0.200000*%
%ADD11C,0.300000*%
G04 APERTURE END LIST*
D10*
X27980100Y4719110D02*
X28045000Y4719110D01*
X28200162Y3599140D02*
X28547000Y3599140D01*
X28200162Y4099100D02*
X28547000Y4099100D01*
X11251300Y1659300D02*
G75*
G02X11281300Y1629300I0J-30000D01*
G01*
X7697700Y282222D02*
G75*
G02X7667700Y312222I0J30000D01*
G01*
X7667700Y1629300D02*
G75*
G02X7697700Y1659300I30000J0D01*
G01*
X27898000Y7374290D02*
G75*
G02X27928000Y7344290I0J-30000D01*
G01*
X27806900Y7374290D02*
X27898000Y7374290D01*
X27928000Y7219300D02*
X27928000Y7344290D01*
X14948300Y1659300D02*
X15751200Y1659300D01*
X25037600Y4069080D02*
G75*
G02X25067600Y4039080I0J-30000D01*
G01*
X24532100Y5439150D02*
G75*
G02X24562100Y5469150I30000J0D01*
G01*
X24562100Y4069080D02*
G75*
G02X24532100Y4099080I0J30000D01*
G01*
X24562100Y5469150D02*
X24812700Y5469150D01*
X24562100Y4069080D02*
X25037600Y4069080D01*
X24532100Y4769115D02*
X24532100Y4099080D01*
X24532100Y4769115D02*
X24532100Y5439150D01*
X10423800Y1659300D02*
X11251300Y1659300D01*
X11281300Y1482260D02*
X11281300Y1629300D01*
X7667700Y1159250D02*
X7667700Y939228D01*
X8607620Y1659300D02*
X7697700Y1659300D01*
X7667700Y1159250D02*
X7667700Y1629300D01*
X7667700Y939228D02*
X7667700Y312222D01*
X7780100Y282222D02*
X7697700Y282222D01*
X25752500Y5469150D02*
X24812700Y5469150D01*
X23044600Y2164220D02*
X23609500Y2164210D01*
X23044600Y3564290D02*
X23609500Y3564290D01*
X28200162Y3599140D02*
G75*
G02X28200162Y4099100I-3162J249980D01*
G01*
X26283200Y6709060D02*
G75*
G03X26283200Y6709060I-250000J0D01*
G01*
X13098400Y4769045D02*
G75*
G03X13098400Y4769045I-250000J0D01*
G01*
X2798265Y6709130D02*
G75*
G03X2798265Y6709130I-250000J0D01*
G01*
X352929Y4099100D02*
G75*
G02X359530Y3599189I6670J-249911D01*
G01*
X359530Y3599189D02*
X359530Y3599140D01*
X8222670Y162195D02*
X8428330Y162195D01*
X10602500Y162195D02*
X10808900Y162195D01*
X17746400Y162195D02*
X17940800Y162195D01*
X15366300Y162195D02*
X15572600Y162195D01*
X27958000Y6421790D02*
G75*
G02X27928000Y6451790I0J30000D01*
G01*
X27928000Y6604190D02*
X27928000Y6451790D01*
X27417500Y4069220D02*
G75*
G02X27447500Y4039220I0J-30000D01*
G01*
X27092500Y4069220D02*
X27417500Y4069220D01*
X19293100Y1259210D02*
G75*
G02X19263100Y1229210I-30000J0D01*
G01*
X18455200Y1229210D02*
G75*
G02X18425200Y1259210I0J30000D01*
G01*
X19078300Y1229210D02*
X18455200Y1229210D01*
X19078300Y1229210D02*
X19263100Y1229210D01*
X25397400Y4039220D02*
G75*
G02X25427400Y4069220I30000J0D01*
G01*
X25722500Y4069220D02*
X25427400Y4069220D01*
X25752500Y4069220D02*
X25722500Y4069220D01*
X25038100Y7879220D02*
G75*
G02X25008100Y7909220I0J30000D01*
G01*
X25275600Y7879220D02*
G75*
G02X25305600Y7849220I0J-30000D01*
G01*
X25335600Y7782210D02*
G75*
G02X25305600Y7812210I0J30000D01*
G01*
X25635700Y7812210D02*
G75*
G02X25605700Y7782210I-30000J0D01*
G01*
X25635700Y7849220D02*
G75*
G02X25665700Y7879220I30000J0D01*
G01*
X27655600Y7879220D02*
G75*
G02X27685600Y7849220I0J-30000D01*
G01*
X27715600Y7782210D02*
G75*
G02X27685600Y7812210I0J30000D01*
G01*
X28015700Y7812210D02*
G75*
G02X27985700Y7782210I-30000J0D01*
G01*
X28015700Y7849220D02*
G75*
G02X28045700Y7879220I30000J0D01*
G01*
X28313200Y7909220D02*
G75*
G02X28283200Y7879220I-30000J0D01*
G01*
X28283200Y9279290D02*
G75*
G02X28313200Y9249290I0J-30000D01*
G01*
X25008100Y9249290D02*
G75*
G02X25038100Y9279290I30000J0D01*
G01*
X26675100Y5499150D02*
G75*
G02X26645100Y5469150I-30000J0D01*
G01*
X26645100Y5974220D02*
G75*
G02X26675100Y5944220I0J-30000D01*
G01*
X26467000Y5974220D02*
G75*
G02X26437000Y6004220I0J30000D01*
G01*
X26437000Y7344290D02*
G75*
G02X26467000Y7374290I30000J0D01*
G01*
X28045000Y6421790D02*
G75*
G02X28075000Y6391790I0J-30000D01*
G01*
X28075000Y4749110D02*
G75*
G02X28045000Y4719110I-30000J0D01*
G01*
X28075000Y5021720D02*
X28075000Y4749110D01*
X27950100Y4689110D02*
G75*
G02X27980100Y4719110I30000J0D01*
G01*
X27950100Y4122220D02*
G75*
G02X27920100Y4092220I-30000J0D01*
G01*
X27777500Y4062220D02*
G75*
G02X27807500Y4092220I30000J0D01*
G01*
X27777500Y4002210D02*
G75*
G02X27747500Y3972210I-30000J0D01*
G01*
X27477500Y3972210D02*
G75*
G02X27447500Y4002210I0J30000D01*
G01*
X25397400Y4002210D02*
G75*
G02X25367400Y3972210I-30000J0D01*
G01*
X25097600Y3972210D02*
G75*
G02X25067600Y4002210I0J30000D01*
G01*
X24561400Y2164210D02*
G75*
G02X24591400Y2134210I0J-30000D01*
G01*
X24621400Y2067200D02*
G75*
G02X24591400Y2097200I0J30000D01*
G01*
X24921300Y2097200D02*
G75*
G02X24891300Y2067200I-30000J0D01*
G01*
X24921300Y2134210D02*
G75*
G02X24951300Y2164210I30000J0D01*
G01*
X26941200Y2164210D02*
G75*
G02X26971200Y2134210I0J-30000D01*
G01*
X27001200Y2067200D02*
G75*
G02X26971200Y2097200I0J30000D01*
G01*
X27301300Y2097200D02*
G75*
G02X27271300Y2067200I-30000J0D01*
G01*
X27301300Y2134210D02*
G75*
G02X27331300Y2164210I30000J0D01*
G01*
X28313200Y2194210D02*
G75*
G02X28283200Y2164210I-30000J0D01*
G01*
X28283200Y3564290D02*
G75*
G02X28313200Y3534290I0J-30000D01*
G01*
X7892610Y282222D02*
G75*
G02X7922610Y252222I0J-30000D01*
G01*
X7952610Y162195D02*
G75*
G02X7922610Y192195I0J30000D01*
G01*
X8740780Y192195D02*
G75*
G02X8710780Y162195I-30000J0D01*
G01*
X8740780Y229209D02*
G75*
G02X8770780Y259209I30000J0D01*
G01*
X10272600Y259209D02*
G75*
G02X10302600Y229209I0J-30000D01*
G01*
X10332600Y162195D02*
G75*
G02X10302600Y192195I0J30000D01*
G01*
X11108800Y192195D02*
G75*
G02X11078800Y162195I-30000J0D01*
G01*
X11108800Y252222D02*
G75*
G02X11138800Y282222I30000J0D01*
G01*
X11281300Y312222D02*
G75*
G02X11251300Y282222I-30000J0D01*
G01*
X11281300Y699259D02*
G75*
G02X11311300Y729259I30000J0D01*
G01*
X11881400Y729259D02*
G75*
G02X11911400Y699259I0J-30000D01*
G01*
X11941400Y259209D02*
G75*
G02X11911400Y289209I0J30000D01*
G01*
X15036400Y259209D02*
G75*
G02X15066400Y229209I0J-30000D01*
G01*
X15096400Y162195D02*
G75*
G02X15066400Y192195I0J30000D01*
G01*
X14978300Y259209D02*
X15036400Y259209D01*
X15872700Y192195D02*
G75*
G02X15842700Y162195I-30000J0D01*
G01*
X15872700Y229209D02*
G75*
G02X15902700Y259209I30000J0D01*
G01*
X17416200Y259209D02*
G75*
G02X17446200Y229209I0J-30000D01*
G01*
X17476200Y162195D02*
G75*
G02X17446200Y192195I0J30000D01*
G01*
X18252700Y192195D02*
G75*
G02X18222700Y162195I-30000J0D01*
G01*
X18252700Y252222D02*
G75*
G02X18282700Y282222I30000J0D01*
G01*
X18425200Y312222D02*
G75*
G02X18395200Y282222I-30000J0D01*
G01*
X18425200Y699259D02*
G75*
G02X18455200Y729259I30000J0D01*
G01*
X19263100Y729259D02*
G75*
G02X19293100Y699259I0J-30000D01*
G01*
X19323100Y259209D02*
G75*
G02X19293100Y289209I0J30000D01*
G01*
X19798300Y259209D02*
G75*
G02X19828300Y229209I0J-30000D01*
G01*
X19858300Y162195D02*
G75*
G02X19828300Y192195I0J30000D01*
G01*
X20158100Y192195D02*
G75*
G02X20128100Y162195I-30000J0D01*
G01*
X20158100Y229209D02*
G75*
G02X20188100Y259209I30000J0D01*
G01*
X28313200Y289209D02*
G75*
G02X28283200Y259209I-30000J0D01*
G01*
X28283200Y1659300D02*
G75*
G02X28313200Y1629300I0J-30000D01*
G01*
X19293100Y1629300D02*
G75*
G02X19323100Y1659300I30000J0D01*
G01*
X18395200Y1512260D02*
G75*
G02X18425200Y1482260I0J-30000D01*
G01*
X17627700Y1512260D02*
G75*
G02X17597700Y1542260I0J30000D01*
G01*
X17567700Y1659300D02*
G75*
G02X17597700Y1629300I0J-30000D01*
G01*
X11911400Y1629300D02*
G75*
G02X11941400Y1659300I30000J0D01*
G01*
X11911400Y1219250D02*
G75*
G02X11881400Y1189250I-30000J0D01*
G01*
X11311300Y1189250D02*
G75*
G02X11281300Y1219250I0J30000D01*
G01*
X5273870Y259209D02*
G75*
G02X5243870Y289209I0J30000D01*
G01*
X6881920Y289209D02*
G75*
G02X6851920Y259209I-30000J0D01*
G01*
X6851920Y1659300D02*
G75*
G02X6881920Y1629300I0J-30000D01*
G01*
X5243870Y1629300D02*
G75*
G02X5273870Y1659300I30000J0D01*
G01*
X2892600Y259209D02*
G75*
G02X2862600Y289209I0J30000D01*
G01*
X4500670Y289209D02*
G75*
G02X4470670Y259209I-30000J0D01*
G01*
X4470670Y1659300D02*
G75*
G02X4500670Y1629300I0J-30000D01*
G01*
X2862600Y1629300D02*
G75*
G02X2892600Y1659300I30000J0D01*
G01*
X2089560Y1659300D02*
G75*
G02X2119560Y1629300I0J-30000D01*
G01*
X2119560Y289209D02*
G75*
G02X2089560Y259209I-30000J0D01*
G01*
X511348Y259209D02*
G75*
G02X481348Y289209I0J30000D01*
G01*
X481348Y1629300D02*
G75*
G02X511348Y1659300I30000J0D01*
G01*
X3994420Y3564290D02*
G75*
G02X4024420Y3534290I0J-30000D01*
G01*
X4024420Y2194210D02*
G75*
G02X3994420Y2164210I-30000J0D01*
G01*
X3488780Y2134210D02*
G75*
G02X3518780Y2164210I30000J0D01*
G01*
X3488780Y2097200D02*
G75*
G02X3458780Y2067200I-30000J0D01*
G01*
X3188740Y2067200D02*
G75*
G02X3158740Y2097200I0J30000D01*
G01*
X3128740Y2164210D02*
G75*
G02X3158740Y2134210I0J-30000D01*
G01*
X1108770Y2134210D02*
G75*
G02X1138770Y2164210I30000J0D01*
G01*
X1108770Y2097200D02*
G75*
G02X1078770Y2067200I-30000J0D01*
G01*
X808866Y2067200D02*
G75*
G02X778866Y2097200I0J30000D01*
G01*
X748866Y2164210D02*
G75*
G02X778866Y2134210I0J-30000D01*
G01*
X511348Y2164210D02*
G75*
G02X481348Y2194210I0J30000D01*
G01*
X481348Y3534290D02*
G75*
G02X511348Y3564290I30000J0D01*
G01*
X2357680Y4099220D02*
G75*
G02X2327680Y4069220I-30000J0D01*
G01*
X2327680Y5469150D02*
G75*
G02X2357680Y5439150I0J-30000D01*
G01*
X481348Y5439150D02*
G75*
G02X511348Y5469150I30000J0D01*
G01*
X511348Y4069220D02*
G75*
G02X481348Y4099220I0J30000D01*
G01*
X21704514Y2164220D02*
G75*
G02X21674514Y2194220I0J30000D01*
G01*
X21674514Y2194220D02*
X21674514Y3534290D01*
X23044600Y2164220D02*
X21704514Y2164220D01*
X21674514Y3534290D02*
G75*
G02X21704514Y3564290I30000J0D01*
G01*
X21704514Y3564290D02*
X23044600Y3564290D01*
X19799314Y2164220D02*
G75*
G02X19769314Y2194220I0J30000D01*
G01*
X19769314Y2194220D02*
X19769314Y3534290D01*
X21169400Y2194220D02*
G75*
G02X21139400Y2164220I-30000J0D01*
G01*
X21139400Y2164220D02*
X19799314Y2164220D01*
X21139400Y3564290D02*
G75*
G02X21169400Y3534290I0J-30000D01*
G01*
X21169400Y3534290D02*
X21169400Y2194220D01*
X19769314Y3534290D02*
G75*
G02X19799314Y3564290I30000J0D01*
G01*
X19799314Y3564290D02*
X21139400Y3564290D01*
X17894514Y2164220D02*
G75*
G02X17864514Y2194220I0J30000D01*
G01*
X17864514Y2194220D02*
X17864514Y3534290D01*
X19264600Y2194220D02*
G75*
G02X19234600Y2164220I-30000J0D01*
G01*
X19234600Y2164220D02*
X17894514Y2164220D01*
X19234600Y3564290D02*
G75*
G02X19264600Y3534290I0J-30000D01*
G01*
X19264600Y3534290D02*
X19264600Y2194220D01*
X17864514Y3534290D02*
G75*
G02X17894514Y3564290I30000J0D01*
G01*
X17894514Y3564290D02*
X19234600Y3564290D01*
X15989514Y2164220D02*
G75*
G02X15959514Y2194220I0J30000D01*
G01*
X15959514Y2194220D02*
X15959514Y3534290D01*
X17359600Y2194220D02*
G75*
G02X17329600Y2164220I-30000J0D01*
G01*
X17329600Y2164220D02*
X15989514Y2164220D01*
X17329600Y3564290D02*
G75*
G02X17359600Y3534290I0J-30000D01*
G01*
X17359600Y3534290D02*
X17359600Y2194220D01*
X15959514Y3534290D02*
G75*
G02X15989514Y3564290I30000J0D01*
G01*
X15989514Y3564290D02*
X17329600Y3564290D01*
X14084314Y2164220D02*
G75*
G02X14054314Y2194220I0J30000D01*
G01*
X14054314Y2194220D02*
X14054314Y3534290D01*
X15454400Y2194220D02*
G75*
G02X15424400Y2164220I-30000J0D01*
G01*
X15424400Y2164220D02*
X14084314Y2164220D01*
X15424400Y3564290D02*
G75*
G02X15454400Y3534290I0J-30000D01*
G01*
X15454400Y3534290D02*
X15454400Y2194220D01*
X14054314Y3534290D02*
G75*
G02X14084314Y3564290I30000J0D01*
G01*
X14084314Y3564290D02*
X15424400Y3564290D01*
X12179514Y2164220D02*
G75*
G02X12149514Y2194220I0J30000D01*
G01*
X12149514Y2194220D02*
X12149514Y3534290D01*
X13549600Y2194220D02*
G75*
G02X13519600Y2164220I-30000J0D01*
G01*
X13519600Y2164220D02*
X12179514Y2164220D01*
X13519600Y3564290D02*
G75*
G02X13549600Y3534290I0J-30000D01*
G01*
X13549600Y3534290D02*
X13549600Y2194220D01*
X12149514Y3534290D02*
G75*
G02X12179514Y3564290I30000J0D01*
G01*
X12179514Y3564290D02*
X13519600Y3564290D01*
X10274314Y2164220D02*
G75*
G02X10244314Y2194220I0J30000D01*
G01*
X10244314Y2194220D02*
X10244314Y3534290D01*
X11644400Y2194220D02*
G75*
G02X11614400Y2164220I-30000J0D01*
G01*
X11614400Y2164220D02*
X10274314Y2164220D01*
X11614400Y3564290D02*
G75*
G02X11644400Y3534290I0J-30000D01*
G01*
X11644400Y3534290D02*
X11644400Y2194220D01*
X10244314Y3534290D02*
G75*
G02X10274314Y3564290I30000J0D01*
G01*
X10274314Y3564290D02*
X11614400Y3564290D01*
X8369474Y2164220D02*
G75*
G02X8339474Y2194220I0J30000D01*
G01*
X8339474Y2194220D02*
X8339474Y3534290D01*
X9739560Y2194220D02*
G75*
G02X9709560Y2164220I-30000J0D01*
G01*
X9709560Y2164220D02*
X8369474Y2164220D01*
X9709560Y3564290D02*
G75*
G02X9739560Y3534290I0J-30000D01*
G01*
X9739560Y3534290D02*
X9739560Y2194220D01*
X8339474Y3534290D02*
G75*
G02X8369474Y3564290I30000J0D01*
G01*
X8369474Y3564290D02*
X9709560Y3564290D01*
X6464474Y2164220D02*
G75*
G02X6434474Y2194220I0J30000D01*
G01*
X6434474Y2194220D02*
X6434474Y3534290D01*
X7834560Y2194220D02*
G75*
G02X7804560Y2164220I-30000J0D01*
G01*
X7804560Y2164220D02*
X6464474Y2164220D01*
X7804560Y3564290D02*
G75*
G02X7834560Y3534290I0J-30000D01*
G01*
X7834560Y3534290D02*
X7834560Y2194220D01*
X6434474Y3534290D02*
G75*
G02X6464474Y3564290I30000J0D01*
G01*
X6464474Y3564290D02*
X7804560Y3564290D01*
X4559474Y2164220D02*
G75*
G02X4529474Y2194220I0J30000D01*
G01*
X4529474Y2194220D02*
X4529474Y3534290D01*
X5929560Y2194220D02*
G75*
G02X5899560Y2164220I-30000J0D01*
G01*
X5899560Y2164220D02*
X4559474Y2164220D01*
X5899560Y3564290D02*
G75*
G02X5929560Y3534290I0J-30000D01*
G01*
X5929560Y3534290D02*
X5929560Y2194220D01*
X4529474Y3534290D02*
G75*
G02X4559474Y3564290I30000J0D01*
G01*
X4559474Y3564290D02*
X5899560Y3564290D01*
X3606974Y4069080D02*
G75*
G02X3576974Y4099080I0J30000D01*
G01*
X3576974Y4099080D02*
X3576974Y5439150D01*
X4977060Y4099080D02*
G75*
G02X4947060Y4069080I-30000J0D01*
G01*
X4947060Y4069080D02*
X3606974Y4069080D01*
X4947060Y5469150D02*
G75*
G02X4977060Y5439150I0J-30000D01*
G01*
X4977060Y5439150D02*
X4977060Y4099080D01*
X3576974Y5439150D02*
G75*
G02X3606974Y5469150I30000J0D01*
G01*
X3606974Y5469150D02*
X4947060Y5469150D01*
X5511834Y4069080D02*
G75*
G02X5481834Y4099080I0J30000D01*
G01*
X5481834Y4099080D02*
X5481834Y5439150D01*
X6881920Y4099080D02*
G75*
G02X6851920Y4069080I-30000J0D01*
G01*
X6851920Y4069080D02*
X5511834Y4069080D01*
X6851920Y5469150D02*
G75*
G02X6881920Y5439150I0J-30000D01*
G01*
X6881920Y5439150D02*
X6881920Y4099080D01*
X5481834Y5439150D02*
G75*
G02X5511834Y5469150I30000J0D01*
G01*
X5511834Y5469150D02*
X6851920Y5469150D01*
X7416834Y4069080D02*
G75*
G02X7386834Y4099080I0J30000D01*
G01*
X7386834Y4099080D02*
X7386834Y5439150D01*
X8786920Y4099080D02*
G75*
G02X8756920Y4069080I-30000J0D01*
G01*
X8756920Y4069080D02*
X7416834Y4069080D01*
X8756920Y5469150D02*
G75*
G02X8786920Y5439150I0J-30000D01*
G01*
X8786920Y5439150D02*
X8786920Y4099080D01*
X7386834Y5439150D02*
G75*
G02X7416834Y5469150I30000J0D01*
G01*
X7416834Y5469150D02*
X8756920Y5469150D01*
X9321814Y4069080D02*
G75*
G02X9291814Y4099080I0J30000D01*
G01*
X9291814Y4099080D02*
X9291814Y5439150D01*
X10691900Y4099080D02*
G75*
G02X10661900Y4069080I-30000J0D01*
G01*
X10661900Y4069080D02*
X9321814Y4069080D01*
X10661900Y5469150D02*
G75*
G02X10691900Y5439150I0J-30000D01*
G01*
X10691900Y5439150D02*
X10691900Y4099080D01*
X9291814Y5439150D02*
G75*
G02X9321814Y5469150I30000J0D01*
G01*
X9321814Y5469150D02*
X10661900Y5469150D01*
X11227014Y4069080D02*
G75*
G02X11197014Y4099080I0J30000D01*
G01*
X11197014Y4099080D02*
X11197014Y5439150D01*
X12597100Y4099080D02*
G75*
G02X12567100Y4069080I-30000J0D01*
G01*
X12567100Y4069080D02*
X11227014Y4069080D01*
X12567100Y5469150D02*
G75*
G02X12597100Y5439150I0J-30000D01*
G01*
X12597100Y5439150D02*
X12597100Y4099080D01*
X11197014Y5439150D02*
G75*
G02X11227014Y5469150I30000J0D01*
G01*
X11227014Y5469150D02*
X12567100Y5469150D01*
X13131814Y4069080D02*
G75*
G02X13101814Y4099080I0J30000D01*
G01*
X13101814Y4099080D02*
X13101814Y5439150D01*
X14501900Y4099080D02*
G75*
G02X14471900Y4069080I-30000J0D01*
G01*
X14471900Y4069080D02*
X13131814Y4069080D01*
X14471900Y5469150D02*
G75*
G02X14501900Y5439150I0J-30000D01*
G01*
X14501900Y5439150D02*
X14501900Y4099080D01*
X13101814Y5439150D02*
G75*
G02X13131814Y5469150I30000J0D01*
G01*
X13131814Y5469150D02*
X14471900Y5469150D01*
X15036814Y4069080D02*
G75*
G02X15006814Y4099080I0J30000D01*
G01*
X15006814Y4099080D02*
X15006814Y5439150D01*
X16406900Y4099080D02*
G75*
G02X16376900Y4069080I-30000J0D01*
G01*
X16376900Y4069080D02*
X15036814Y4069080D01*
X16376900Y5469150D02*
G75*
G02X16406900Y5439150I0J-30000D01*
G01*
X16406900Y5439150D02*
X16406900Y4099080D01*
X15006814Y5439150D02*
G75*
G02X15036814Y5469150I30000J0D01*
G01*
X15036814Y5469150D02*
X16376900Y5469150D01*
X16942014Y4069080D02*
G75*
G02X16912014Y4099080I0J30000D01*
G01*
X16912014Y4099080D02*
X16912014Y5439150D01*
X18312100Y4099080D02*
G75*
G02X18282100Y4069080I-30000J0D01*
G01*
X18282100Y4069080D02*
X16942014Y4069080D01*
X18282100Y5469150D02*
G75*
G02X18312100Y5439150I0J-30000D01*
G01*
X18312100Y5439150D02*
X18312100Y4099080D01*
X16912014Y5439150D02*
G75*
G02X16942014Y5469150I30000J0D01*
G01*
X16942014Y5469150D02*
X18282100Y5469150D01*
X18846814Y4069080D02*
G75*
G02X18816814Y4099080I0J30000D01*
G01*
X18816814Y4099080D02*
X18816814Y5439150D01*
X20216900Y4099080D02*
G75*
G02X20186900Y4069080I-30000J0D01*
G01*
X20186900Y4069080D02*
X18846814Y4069080D01*
X20186900Y5469150D02*
G75*
G02X20216900Y5439150I0J-30000D01*
G01*
X20216900Y5439150D02*
X20216900Y4099080D01*
X18816814Y5439150D02*
G75*
G02X18846814Y5469150I30000J0D01*
G01*
X18846814Y5469150D02*
X20186900Y5469150D01*
X20752014Y4069080D02*
G75*
G02X20722014Y4099080I0J30000D01*
G01*
X20722014Y4099080D02*
X20722014Y5439150D01*
X22122100Y4099080D02*
G75*
G02X22092100Y4069080I-30000J0D01*
G01*
X22092100Y4069080D02*
X20752014Y4069080D01*
X22092100Y5469150D02*
G75*
G02X22122100Y5439150I0J-30000D01*
G01*
X22122100Y5439150D02*
X22122100Y4099080D01*
X20722014Y5439150D02*
G75*
G02X20752014Y5469150I30000J0D01*
G01*
X20752014Y5469150D02*
X22092100Y5469150D01*
X22657014Y4069080D02*
G75*
G02X22627014Y4099080I0J30000D01*
G01*
X22627014Y4099080D02*
X22627014Y5439150D01*
X24027100Y4099080D02*
G75*
G02X23997100Y4069080I-30000J0D01*
G01*
X23997100Y4069080D02*
X22657014Y4069080D01*
X23997100Y5469150D02*
G75*
G02X24027100Y5439150I0J-30000D01*
G01*
X24027100Y5439150D02*
X24027100Y4099080D01*
X22627014Y5439150D02*
G75*
G02X22657014Y5469150I30000J0D01*
G01*
X22657014Y5469150D02*
X23997100Y5469150D01*
X24085614Y5974220D02*
G75*
G02X24055614Y6004220I0J30000D01*
G01*
X24055614Y6004220D02*
X24055614Y7344290D01*
X25455700Y6004220D02*
G75*
G02X25425700Y5974220I-30000J0D01*
G01*
X25425700Y5974220D02*
X24085614Y5974220D01*
X25425700Y7374290D02*
G75*
G02X25455700Y7344290I0J-30000D01*
G01*
X25455700Y7344290D02*
X25455700Y6004220D01*
X24055614Y7344290D02*
G75*
G02X24085614Y7374290I30000J0D01*
G01*
X24085614Y7374290D02*
X25425700Y7374290D01*
X22180714Y5974220D02*
G75*
G02X22150714Y6004220I0J30000D01*
G01*
X22150714Y6004220D02*
X22150714Y7344290D01*
X23550800Y6004220D02*
G75*
G02X23520800Y5974220I-30000J0D01*
G01*
X23520800Y5974220D02*
X22180714Y5974220D01*
X23520800Y7374290D02*
G75*
G02X23550800Y7344290I0J-30000D01*
G01*
X23550800Y7344290D02*
X23550800Y6004220D01*
X22150714Y7344290D02*
G75*
G02X22180714Y7374290I30000J0D01*
G01*
X22180714Y7374290D02*
X23520800Y7374290D01*
X20275614Y5974220D02*
G75*
G02X20245614Y6004220I0J30000D01*
G01*
X20245614Y6004220D02*
X20245614Y7344290D01*
X21645700Y6004220D02*
G75*
G02X21615700Y5974220I-30000J0D01*
G01*
X21615700Y5974220D02*
X20275614Y5974220D01*
X21615700Y7374290D02*
G75*
G02X21645700Y7344290I0J-30000D01*
G01*
X21645700Y7344290D02*
X21645700Y6004220D01*
X20245614Y7344290D02*
G75*
G02X20275614Y7374290I30000J0D01*
G01*
X20275614Y7374290D02*
X21615700Y7374290D01*
X18370714Y5974220D02*
G75*
G02X18340714Y6004220I0J30000D01*
G01*
X18340714Y6004220D02*
X18340714Y7344290D01*
X19740800Y6004220D02*
G75*
G02X19710800Y5974220I-30000J0D01*
G01*
X19710800Y5974220D02*
X18370714Y5974220D01*
X19710800Y7374290D02*
G75*
G02X19740800Y7344290I0J-30000D01*
G01*
X19740800Y7344290D02*
X19740800Y6004220D01*
X18340714Y7344290D02*
G75*
G02X18370714Y7374290I30000J0D01*
G01*
X18370714Y7374290D02*
X19710800Y7374290D01*
X16465714Y5974220D02*
G75*
G02X16435714Y6004220I0J30000D01*
G01*
X16435714Y6004220D02*
X16435714Y7344290D01*
X17835800Y6004220D02*
G75*
G02X17805800Y5974220I-30000J0D01*
G01*
X17805800Y5974220D02*
X16465714Y5974220D01*
X17805800Y7374290D02*
G75*
G02X17835800Y7344290I0J-30000D01*
G01*
X17835800Y7344290D02*
X17835800Y6004220D01*
X16435714Y7344290D02*
G75*
G02X16465714Y7374290I30000J0D01*
G01*
X16465714Y7374290D02*
X17805800Y7374290D01*
X14560614Y5974220D02*
G75*
G02X14530614Y6004220I0J30000D01*
G01*
X14530614Y6004220D02*
X14530614Y7344290D01*
X15930700Y6004220D02*
G75*
G02X15900700Y5974220I-30000J0D01*
G01*
X15900700Y5974220D02*
X14560614Y5974220D01*
X15900700Y7374290D02*
G75*
G02X15930700Y7344290I0J-30000D01*
G01*
X15930700Y7344290D02*
X15930700Y6004220D01*
X14530614Y7344290D02*
G75*
G02X14560614Y7374290I30000J0D01*
G01*
X14560614Y7374290D02*
X15900700Y7374290D01*
X12655714Y5974220D02*
G75*
G02X12625714Y6004220I0J30000D01*
G01*
X12625714Y6004220D02*
X12625714Y7344290D01*
X14025800Y6004220D02*
G75*
G02X13995800Y5974220I-30000J0D01*
G01*
X13995800Y5974220D02*
X12655714Y5974220D01*
X13995800Y7374290D02*
G75*
G02X14025800Y7344290I0J-30000D01*
G01*
X14025800Y7344290D02*
X14025800Y6004220D01*
X12625714Y7344290D02*
G75*
G02X12655714Y7374290I30000J0D01*
G01*
X12655714Y7374290D02*
X13995800Y7374290D01*
X10750614Y5974220D02*
G75*
G02X10720614Y6004220I0J30000D01*
G01*
X10720614Y6004220D02*
X10720614Y7344290D01*
X12120700Y6004220D02*
G75*
G02X12090700Y5974220I-30000J0D01*
G01*
X12090700Y5974220D02*
X10750614Y5974220D01*
X12090700Y7374290D02*
G75*
G02X12120700Y7344290I0J-30000D01*
G01*
X12120700Y7344290D02*
X12120700Y6004220D01*
X10720614Y7344290D02*
G75*
G02X10750614Y7374290I30000J0D01*
G01*
X10750614Y7374290D02*
X12090700Y7374290D01*
X8845714Y5974220D02*
G75*
G02X8815714Y6004220I0J30000D01*
G01*
X8815714Y6004220D02*
X8815714Y7344290D01*
X10215800Y6004220D02*
G75*
G02X10185800Y5974220I-30000J0D01*
G01*
X10185800Y5974220D02*
X8845714Y5974220D01*
X10185800Y7374290D02*
G75*
G02X10215800Y7344290I0J-30000D01*
G01*
X10215800Y7344290D02*
X10215800Y6004220D01*
X8815714Y7344290D02*
G75*
G02X8845714Y7374290I30000J0D01*
G01*
X8845714Y7374290D02*
X10185800Y7374290D01*
X6940724Y5974220D02*
G75*
G02X6910724Y6004220I0J30000D01*
G01*
X6910724Y6004220D02*
X6910724Y7344290D01*
X8310810Y6004220D02*
G75*
G02X8280810Y5974220I-30000J0D01*
G01*
X8280810Y5974220D02*
X6940724Y5974220D01*
X8280810Y7374290D02*
G75*
G02X8310810Y7344290I0J-30000D01*
G01*
X8310810Y7344290D02*
X8310810Y6004220D01*
X6910724Y7344290D02*
G75*
G02X6940724Y7374290I30000J0D01*
G01*
X6940724Y7374290D02*
X8280810Y7374290D01*
X5035724Y5974220D02*
G75*
G02X5005724Y6004220I0J30000D01*
G01*
X5005724Y6004220D02*
X5005724Y7344290D01*
X6405810Y6004220D02*
G75*
G02X6375810Y5974220I-30000J0D01*
G01*
X6375810Y5974220D02*
X5035724Y5974220D01*
X6375810Y7374290D02*
G75*
G02X6405810Y7344290I0J-30000D01*
G01*
X6405810Y7344290D02*
X6405810Y6004220D01*
X5005724Y7344290D02*
G75*
G02X5035724Y7374290I30000J0D01*
G01*
X5035724Y7374290D02*
X6375810Y7374290D01*
X3130584Y5974220D02*
G75*
G02X3100584Y6004220I0J30000D01*
G01*
X3100584Y6004220D02*
X3100584Y7344290D01*
X4500670Y6004220D02*
G75*
G02X4470670Y5974220I-30000J0D01*
G01*
X4470670Y5974220D02*
X3130584Y5974220D01*
X4470670Y7374290D02*
G75*
G02X4500670Y7344290I0J-30000D01*
G01*
X4500670Y7344290D02*
X4500670Y6004220D01*
X3100584Y7344290D02*
G75*
G02X3130584Y7374290I30000J0D01*
G01*
X3130584Y7374290D02*
X4470670Y7374290D01*
X749474Y5974220D02*
G75*
G02X719474Y6004220I0J30000D01*
G01*
X719474Y6004220D02*
X719474Y7344290D01*
X2119560Y6004220D02*
G75*
G02X2089560Y5974220I-30000J0D01*
G01*
X2089560Y5974220D02*
X749474Y5974220D01*
X2089560Y7374290D02*
G75*
G02X2119560Y7344290I0J-30000D01*
G01*
X2119560Y7344290D02*
X2119560Y6004220D01*
X719474Y7344290D02*
G75*
G02X749474Y7374290I30000J0D01*
G01*
X749474Y7374290D02*
X2089560Y7374290D01*
X23133214Y7879220D02*
G75*
G02X23103214Y7909220I0J30000D01*
G01*
X23103214Y7909220D02*
X23103214Y9249290D01*
X24503300Y7909220D02*
G75*
G02X24473300Y7879220I-30000J0D01*
G01*
X24473300Y7879220D02*
X23133214Y7879220D01*
X24473300Y9279290D02*
G75*
G02X24503300Y9249290I0J-30000D01*
G01*
X24503300Y9249290D02*
X24503300Y7909220D01*
X23103214Y9249290D02*
G75*
G02X23133214Y9279290I30000J0D01*
G01*
X23133214Y9279290D02*
X24473300Y9279290D01*
X21228214Y7879220D02*
G75*
G02X21198214Y7909220I0J30000D01*
G01*
X21198214Y7909220D02*
X21198214Y9249290D01*
X22598300Y7909220D02*
G75*
G02X22568300Y7879220I-30000J0D01*
G01*
X22568300Y7879220D02*
X21228214Y7879220D01*
X22568300Y9279290D02*
G75*
G02X22598300Y9249290I0J-30000D01*
G01*
X22598300Y9249290D02*
X22598300Y7909220D01*
X21198214Y9249290D02*
G75*
G02X21228214Y9279290I30000J0D01*
G01*
X21228214Y9279290D02*
X22568300Y9279290D01*
X19323114Y7879220D02*
G75*
G02X19293114Y7909220I0J30000D01*
G01*
X19293114Y7909220D02*
X19293114Y9249290D01*
X20693200Y7909220D02*
G75*
G02X20663200Y7879220I-30000J0D01*
G01*
X20663200Y7879220D02*
X19323114Y7879220D01*
X20663200Y9279290D02*
G75*
G02X20693200Y9249290I0J-30000D01*
G01*
X20693200Y9249290D02*
X20693200Y7909220D01*
X19293114Y9249290D02*
G75*
G02X19323114Y9279290I30000J0D01*
G01*
X19323114Y9279290D02*
X20663200Y9279290D01*
X17418214Y7879220D02*
G75*
G02X17388214Y7909220I0J30000D01*
G01*
X17388214Y7909220D02*
X17388214Y9249290D01*
X18788300Y7909220D02*
G75*
G02X18758300Y7879220I-30000J0D01*
G01*
X18758300Y7879220D02*
X17418214Y7879220D01*
X18758300Y9279290D02*
G75*
G02X18788300Y9249290I0J-30000D01*
G01*
X18788300Y9249290D02*
X18788300Y7909220D01*
X17388214Y9249290D02*
G75*
G02X17418214Y9279290I30000J0D01*
G01*
X17418214Y9279290D02*
X18758300Y9279290D01*
X15513114Y7879220D02*
G75*
G02X15483114Y7909220I0J30000D01*
G01*
X15483114Y7909220D02*
X15483114Y9249290D01*
X16883200Y7909220D02*
G75*
G02X16853200Y7879220I-30000J0D01*
G01*
X16853200Y7879220D02*
X15513114Y7879220D01*
X16853200Y9279290D02*
G75*
G02X16883200Y9249290I0J-30000D01*
G01*
X16883200Y9249290D02*
X16883200Y7909220D01*
X15483114Y9249290D02*
G75*
G02X15513114Y9279290I30000J0D01*
G01*
X15513114Y9279290D02*
X16853200Y9279290D01*
X13608214Y7879220D02*
G75*
G02X13578214Y7909220I0J30000D01*
G01*
X13578214Y7909220D02*
X13578214Y9249290D01*
X14978300Y7909220D02*
G75*
G02X14948300Y7879220I-30000J0D01*
G01*
X14948300Y7879220D02*
X13608214Y7879220D01*
X14948300Y9279290D02*
G75*
G02X14978300Y9249290I0J-30000D01*
G01*
X14978300Y9249290D02*
X14978300Y7909220D01*
X13578214Y9249290D02*
G75*
G02X13608214Y9279290I30000J0D01*
G01*
X13608214Y9279290D02*
X14948300Y9279290D01*
X11703214Y7879220D02*
G75*
G02X11673214Y7909220I0J30000D01*
G01*
X11673214Y7909220D02*
X11673214Y9249290D01*
X13073300Y7909220D02*
G75*
G02X13043300Y7879220I-30000J0D01*
G01*
X13043300Y7879220D02*
X11703214Y7879220D01*
X13043300Y9279290D02*
G75*
G02X13073300Y9249290I0J-30000D01*
G01*
X13073300Y9249290D02*
X13073300Y7909220D01*
X11673214Y9249290D02*
G75*
G02X11703214Y9279290I30000J0D01*
G01*
X11703214Y9279290D02*
X13043300Y9279290D01*
X9798214Y7879220D02*
G75*
G02X9768214Y7909220I0J30000D01*
G01*
X9768214Y7909220D02*
X9768214Y9249290D01*
X11168300Y7909220D02*
G75*
G02X11138300Y7879220I-30000J0D01*
G01*
X11138300Y7879220D02*
X9798214Y7879220D01*
X11138300Y9279290D02*
G75*
G02X11168300Y9249290I0J-30000D01*
G01*
X11168300Y9249290D02*
X11168300Y7909220D01*
X9768214Y9249290D02*
G75*
G02X9798214Y9279290I30000J0D01*
G01*
X9798214Y9279290D02*
X11138300Y9279290D01*
X7893224Y7879220D02*
G75*
G02X7863224Y7909220I0J30000D01*
G01*
X7863224Y7909220D02*
X7863224Y9249290D01*
X9263310Y7909220D02*
G75*
G02X9233310Y7879220I-30000J0D01*
G01*
X9233310Y7879220D02*
X7893224Y7879220D01*
X9233310Y9279290D02*
G75*
G02X9263310Y9249290I0J-30000D01*
G01*
X9263310Y9249290D02*
X9263310Y7909220D01*
X7863224Y9249290D02*
G75*
G02X7893224Y9279290I30000J0D01*
G01*
X7893224Y9279290D02*
X9233310Y9279290D01*
X5988084Y7879220D02*
G75*
G02X5958084Y7909220I0J30000D01*
G01*
X5958084Y7909220D02*
X5958084Y9249290D01*
X7358170Y7909220D02*
G75*
G02X7328170Y7879220I-30000J0D01*
G01*
X7328170Y7879220D02*
X5988084Y7879220D01*
X7328170Y9279290D02*
G75*
G02X7358170Y9249290I0J-30000D01*
G01*
X7358170Y9249290D02*
X7358170Y7909220D01*
X5958084Y9249290D02*
G75*
G02X5988084Y9279290I30000J0D01*
G01*
X5988084Y9279290D02*
X7328170Y9279290D01*
X4083224Y7879220D02*
G75*
G02X4053224Y7909220I0J30000D01*
G01*
X4053224Y7909220D02*
X4053224Y9249290D01*
X5453310Y7909220D02*
G75*
G02X5423310Y7879220I-30000J0D01*
G01*
X5423310Y7879220D02*
X4083224Y7879220D01*
X5423310Y9279290D02*
G75*
G02X5453310Y9249290I0J-30000D01*
G01*
X5453310Y9249290D02*
X5453310Y7909220D01*
X4053224Y9249290D02*
G75*
G02X4083224Y9279290I30000J0D01*
G01*
X4083224Y9279290D02*
X5423310Y9279290D01*
X2178224Y7879220D02*
G75*
G02X2148224Y7909220I0J30000D01*
G01*
X2148224Y7909220D02*
X2148224Y9249290D01*
X3548310Y7909220D02*
G75*
G02X3518310Y7879220I-30000J0D01*
G01*
X3518310Y7879220D02*
X2178224Y7879220D01*
X3518310Y9279290D02*
G75*
G02X3548310Y9249290I0J-30000D01*
G01*
X3548310Y9249290D02*
X3548310Y7909220D01*
X2148224Y9249290D02*
G75*
G02X2178224Y9279290I30000J0D01*
G01*
X2178224Y9279290D02*
X3518310Y9279290D01*
X1643310Y7909220D02*
G75*
G02X1613310Y7879220I-30000J0D01*
G01*
X1613310Y9279290D02*
G75*
G02X1643310Y9249290I0J-30000D01*
G01*
X243224Y9249290D02*
G75*
G02X273224Y9279290I30000J0D01*
G01*
X273224Y7879220D02*
G75*
G02X243224Y7909220I0J30000D01*
G01*
X26437000Y1659300D02*
X26408200Y1659300D01*
X26437000Y259209D02*
X26408200Y259209D01*
X21198200Y259209D02*
X21169400Y259209D01*
X21198200Y1659300D02*
X21169400Y1659300D01*
X243224Y7909220D02*
X243224Y9249290D01*
X1613310Y7879220D02*
X273224Y7879220D01*
X1643310Y9249290D02*
X1643310Y7909220D01*
X273224Y9279290D02*
X1613310Y9279290D01*
X28283200Y9279290D02*
X25038100Y9279290D01*
X28313200Y7909220D02*
X28313200Y9249290D01*
X28045700Y7879220D02*
X28283200Y7879220D01*
X28015700Y7812210D02*
X28015700Y7849220D01*
X27715600Y7782210D02*
X27985700Y7782210D01*
X27685600Y7849220D02*
X27685600Y7812210D01*
X25665700Y7879220D02*
X27655600Y7879220D01*
X25635700Y7812210D02*
X25635700Y7849220D01*
X25335600Y7782210D02*
X25605700Y7782210D01*
X25305600Y7849220D02*
X25305600Y7812210D01*
X25038100Y7879220D02*
X25275600Y7879220D01*
X25008100Y9249290D02*
X25008100Y7909220D01*
X481348Y4099220D02*
X481348Y5439150D01*
X2327680Y4069220D02*
X511348Y4069220D01*
X2357680Y5439150D02*
X2357680Y4099220D01*
X511348Y5469150D02*
X2327680Y5469150D01*
X27806900Y7374290D02*
X26467000Y7374290D01*
X27928000Y6604190D02*
X27928000Y7219300D01*
X28045000Y6421790D02*
X27958000Y6421790D01*
X28075000Y5021720D02*
X28075000Y6391790D01*
X27950100Y4122220D02*
X27950100Y4689110D01*
X27807500Y4092220D02*
X27920100Y4092220D01*
X27777500Y4002210D02*
X27777500Y4062220D01*
X27477500Y3972210D02*
X27747500Y3972210D01*
X27447500Y4039220D02*
X27447500Y4002210D01*
X25752500Y4069220D02*
X27092500Y4069220D01*
X25397400Y4002210D02*
X25397400Y4039220D01*
X25097600Y3972210D02*
X25367400Y3972210D01*
X25067600Y4039080D02*
X25067600Y4002210D01*
X26645100Y5469150D02*
X25752500Y5469150D01*
X26675100Y5944220D02*
X26675100Y5499150D01*
X26467000Y5974220D02*
X26645100Y5974220D01*
X26437000Y7344290D02*
X26437000Y6004220D01*
X3994420Y3564290D02*
X511348Y3564290D01*
X4024420Y2194210D02*
X4024420Y3534290D01*
X3518780Y2164210D02*
X3994420Y2164210D01*
X3488780Y2097200D02*
X3488780Y2134210D01*
X3188740Y2067200D02*
X3458780Y2067200D01*
X3158740Y2134210D02*
X3158740Y2097200D01*
X1138770Y2164210D02*
X3128740Y2164210D01*
X1108770Y2097200D02*
X1108770Y2134210D01*
X808866Y2067200D02*
X1078770Y2067200D01*
X778866Y2134210D02*
X778866Y2097200D01*
X511348Y2164210D02*
X748866Y2164210D01*
X481348Y3534290D02*
X481348Y2194210D01*
X28283200Y3564290D02*
X23609500Y3564290D01*
X28313200Y2194210D02*
X28313200Y3534290D01*
X27331300Y2164210D02*
X28283200Y2164210D01*
X27301300Y2097200D02*
X27301300Y2134210D01*
X27001200Y2067200D02*
X27271300Y2067200D01*
X26971200Y2134210D02*
X26971200Y2097200D01*
X24951300Y2164210D02*
X26941200Y2164210D01*
X24921300Y2097200D02*
X24921300Y2134210D01*
X24621400Y2067200D02*
X24891300Y2067200D01*
X24591400Y2134210D02*
X24591400Y2097200D01*
X23609500Y2164210D02*
X24561400Y2164210D01*
X481348Y289209D02*
X481348Y1629300D01*
X2089560Y259209D02*
X511348Y259209D01*
X2119560Y1629300D02*
X2119560Y289209D01*
X511348Y1659300D02*
X2089560Y1659300D01*
X2862600Y289209D02*
X2862600Y1629300D01*
X4470670Y259209D02*
X2892600Y259209D01*
X4500670Y1629300D02*
X4500670Y289209D01*
X2892600Y1659300D02*
X4470670Y1659300D01*
X5243870Y289209D02*
X5243870Y1629300D01*
X6851920Y259209D02*
X5273870Y259209D01*
X6881920Y1629300D02*
X6881920Y289209D01*
X5273870Y1659300D02*
X6851920Y1659300D01*
X26408200Y259209D02*
X21198200Y259209D01*
X21198200Y1659300D02*
X26408200Y1659300D01*
X28283200Y259209D02*
X26437000Y259209D01*
X28313200Y1629300D02*
X28313200Y289209D01*
X26437000Y1659300D02*
X28283200Y1659300D01*
X10423800Y1659300D02*
X8607620Y1659300D01*
X11281300Y1219250D02*
X11281300Y1482260D01*
X11881400Y1189250D02*
X11311300Y1189250D01*
X11911400Y1629300D02*
X11911400Y1219250D01*
X14948300Y1659300D02*
X11941400Y1659300D01*
X17567700Y1659300D02*
X15751200Y1659300D01*
X17597700Y1542260D02*
X17597700Y1629300D01*
X18395200Y1512260D02*
X17627700Y1512260D01*
X18425200Y1259210D02*
X18425200Y1482260D01*
X19293100Y1629300D02*
X19293100Y1259210D01*
X21169400Y1659300D02*
X19323100Y1659300D01*
X20188100Y259209D02*
X21169400Y259209D01*
X20158100Y192195D02*
X20158100Y229209D01*
X19858300Y162195D02*
X20128100Y162195D01*
X19828300Y229209D02*
X19828300Y192195D01*
X19323100Y259209D02*
X19798300Y259209D01*
X19293100Y699259D02*
X19293100Y289209D01*
X19078800Y729259D02*
X19263100Y729259D01*
X19078300Y729121D02*
X19078800Y729259D01*
X19077700Y729259D02*
X19078300Y729121D01*
X18455200Y729259D02*
X19077700Y729259D01*
X18425200Y312222D02*
X18425200Y699259D01*
X18282700Y282222D02*
X18395200Y282222D01*
X18252700Y192195D02*
X18252700Y252222D01*
X17940800Y162195D02*
X18222700Y162195D01*
X17476200Y162195D02*
X17746400Y162195D01*
X17446200Y229209D02*
X17446200Y192195D01*
X15902700Y259209D02*
X17416200Y259209D01*
X15872700Y192195D02*
X15872700Y229209D01*
X15572600Y162195D02*
X15842700Y162195D01*
X15096400Y162195D02*
X15366300Y162195D01*
X15066400Y229209D02*
X15066400Y192195D01*
X11941400Y259209D02*
X14978300Y259209D01*
X11911400Y699259D02*
X11911400Y289209D01*
X11311300Y729259D02*
X11881400Y729259D01*
X11281300Y312222D02*
X11281300Y699259D01*
X11138800Y282222D02*
X11251300Y282222D01*
X11108800Y192195D02*
X11108800Y252222D01*
X10808900Y162195D02*
X11078800Y162195D01*
X10332600Y162195D02*
X10602500Y162195D01*
X10302600Y229209D02*
X10302600Y192195D01*
X8770780Y259209D02*
X10272600Y259209D01*
X8740780Y192195D02*
X8740780Y229209D01*
X8428330Y162195D02*
X8710780Y162195D01*
X7952610Y162195D02*
X8222670Y162195D01*
X7922610Y252222D02*
X7922610Y192195D01*
X7780100Y282222D02*
X7892610Y282222D01*
X309507Y9515480D02*
X28247000Y9515480D01*
X285943Y9514520D02*
X309507Y9515480D01*
X262516Y9511910D02*
X285943Y9514520D01*
X239503Y9507220D02*
X262516Y9511910D01*
X216765Y9500870D02*
X239503Y9507220D01*
X194717Y9492620D02*
X216765Y9500870D01*
X173357Y9482840D02*
X194717Y9492620D01*
X152687Y9471270D02*
X173357Y9482840D01*
X133119Y9458290D02*
X152687Y9471270D01*
X114653Y9443690D02*
X133119Y9458290D01*
X97289Y9427700D02*
X114653Y9443690D01*
X81304Y9410350D02*
X97289Y9427700D01*
X66697Y9391900D02*
X81304Y9410350D01*
X53744Y9372320D02*
X66697Y9391900D01*
X42168Y9351640D02*
X53744Y9372320D01*
X32384Y9330270D02*
X42168Y9351640D01*
X24116Y9308220D02*
X32384Y9330270D01*
X17777Y9285500D02*
X24116Y9308220D01*
X13091Y9262500D02*
X17777Y9285500D01*
X10473Y9239070D02*
X13091Y9262500D01*
X9508Y9215510D02*
X10473Y9239070D01*
X9508Y4099100D02*
X9508Y9215510D01*
X352929Y4099100D02*
X9508Y4099100D01*
X9508Y3599140D02*
X359530Y3599140D01*
X9508Y323012D02*
X9508Y3599140D01*
X10473Y299310D02*
X9508Y323012D01*
X13091Y275883D02*
X10473Y299310D01*
X17777Y252732D02*
X13091Y275883D01*
X24116Y230132D02*
X17777Y252732D01*
X32384Y208084D02*
X24116Y230132D01*
X42168Y186586D02*
X32384Y208084D01*
X53744Y166191D02*
X42168Y186586D01*
X66697Y146485D02*
X53744Y166191D01*
X81304Y128020D02*
X66697Y146485D01*
X97289Y110794D02*
X81304Y128020D01*
X114653Y94809D02*
X97289Y110794D01*
X133119Y80202D02*
X114653Y94809D01*
X152687Y67110D02*
X133119Y80202D01*
X173357Y55397D02*
X152687Y67110D01*
X194717Y45613D02*
X173357Y55397D01*
X216765Y37483D02*
X194717Y45613D01*
X239503Y31006D02*
X216765Y37483D01*
X262516Y26596D02*
X239503Y31006D01*
X285943Y23840D02*
X262516Y26596D01*
X309507Y22738D02*
X285943Y23840D01*
X28247000Y22738D02*
X309507Y22738D01*
X28270600Y23840D02*
X28247000Y22738D01*
X28294000Y26596D02*
X28270600Y23840D01*
X28317000Y31006D02*
X28294000Y26596D01*
X28339800Y37483D02*
X28317000Y31006D01*
X28361800Y45613D02*
X28339800Y37483D01*
X28383200Y55397D02*
X28361800Y45613D01*
X28403700Y67110D02*
X28383200Y55397D01*
X28423400Y80202D02*
X28403700Y67110D01*
X28441900Y94809D02*
X28423400Y80202D01*
X28459100Y110794D02*
X28441900Y94809D01*
X28475100Y128020D02*
X28459100Y110794D01*
X28489700Y146485D02*
X28475100Y128020D01*
X28502800Y166191D02*
X28489700Y146485D01*
X28514400Y186586D02*
X28502800Y166191D01*
X28524200Y208084D02*
X28514400Y186586D01*
X28532300Y230132D02*
X28524200Y208084D01*
X28538800Y252732D02*
X28532300Y230132D01*
X28543300Y275883D02*
X28538800Y252732D01*
X28546100Y299310D02*
X28543300Y275883D01*
X28547000Y322737D02*
X28546100Y299310D01*
X28547000Y3599140D02*
X28547000Y322737D01*
X28547000Y9215510D02*
X28547000Y4099100D01*
X28546100Y9239070D02*
X28547000Y9215510D01*
X28543300Y9262500D02*
X28546100Y9239070D01*
X28538800Y9285500D02*
X28543300Y9262500D01*
X28532300Y9308220D02*
X28538800Y9285500D01*
X28524200Y9330270D02*
X28532300Y9308220D01*
X28514400Y9351640D02*
X28524200Y9330270D01*
X28502800Y9372320D02*
X28514400Y9351640D01*
X28489700Y9391900D02*
X28502800Y9372320D01*
X28475100Y9410350D02*
X28489700Y9391900D01*
X28459100Y9427700D02*
X28475100Y9410350D01*
X28441900Y9443690D02*
X28459100Y9427700D01*
X28423400Y9458290D02*
X28441900Y9443690D01*
X28403700Y9471270D02*
X28423400Y9458290D01*
X28383200Y9482840D02*
X28403700Y9471270D01*
X28361800Y9492620D02*
X28383200Y9482840D01*
X28339800Y9500870D02*
X28361800Y9492620D01*
X28317000Y9507220D02*
X28339800Y9500870D01*
X28294000Y9511910D02*
X28317000Y9507220D01*
X28270600Y9514520D02*
X28294000Y9511910D01*
X28247000Y9515480D02*
X28270600Y9514520D01*
D10*
D11*
X285937Y-452977D02*
X285937Y-152977D01*
X357365Y-152977D01*
X400222Y-167263D01*
X428794Y-195834D01*
X443080Y-224405D01*
X457365Y-281548D01*
X457365Y-324405D01*
X443080Y-381548D01*
X428794Y-410120D01*
X400222Y-438691D01*
X357365Y-452977D01*
X285937Y-452977D01*
X585937Y-452977D02*
X585937Y-252977D01*
X585937Y-310120D02*
X600223Y-281548D01*
X614508Y-267263D01*
X643080Y-252977D01*
X671651Y-252977D01*
X771651Y-452977D02*
X771651Y-252977D01*
X771651Y-152977D02*
X757365Y-167263D01*
X771651Y-181548D01*
X785937Y-167263D01*
X771651Y-152977D01*
X771651Y-181548D01*
X957365Y-452977D02*
X928794Y-438691D01*
X914508Y-410120D01*
X914508Y-152977D01*
X1114508Y-452977D02*
X1085937Y-438691D01*
X1071651Y-410120D01*
X1071651Y-152977D01*
X1457365Y-452977D02*
X1457365Y-152977D01*
X1557365Y-367262D01*
X1657365Y-152977D01*
X1657365Y-452977D01*
X1928794Y-452977D02*
X1928794Y-295834D01*
X1914508Y-267263D01*
X1885937Y-252977D01*
X1828794Y-252977D01*
X1800222Y-267263D01*
X1928794Y-438691D02*
X1900222Y-452977D01*
X1828794Y-452977D01*
X1800222Y-438691D01*
X1785937Y-410120D01*
X1785937Y-381548D01*
X1800222Y-352977D01*
X1828794Y-338691D01*
X1900222Y-338691D01*
X1928794Y-324405D01*
X2071651Y-252977D02*
X2071651Y-552977D01*
X2071651Y-267263D02*
X2100223Y-252977D01*
X2157365Y-252977D01*
X2185937Y-267263D01*
X2200223Y-281548D01*
X2214508Y-310120D01*
X2214508Y-395834D01*
X2200223Y-424405D01*
X2185937Y-438691D01*
X2157365Y-452977D01*
X2100223Y-452977D01*
X2071651Y-438691D01*
X2343080Y-424405D02*
X2357365Y-438691D01*
X2343080Y-452977D01*
X2328794Y-438691D01*
X2343080Y-424405D01*
X2343080Y-452977D01*
X2343080Y-267263D02*
X2357365Y-281548D01*
X2343080Y-295834D01*
X2328794Y-281548D01*
X2343080Y-267263D01*
X2343080Y-295834D01*
M02*
