G04 #@! TF.GenerationSoftware,KiCad,Pcbnew,(5.1.4)-1*
G04 #@! TF.CreationDate,2020-11-16T22:26:03-05:00*
G04 #@! TF.ProjectId,DZ60 FR4 Plate,445a3630-2046-4523-9420-506c6174652e,rev?*
G04 #@! TF.SameCoordinates,Original*
G04 #@! TF.FileFunction,Legend,Top*
G04 #@! TF.FilePolarity,Positive*
%FSLAX46Y46*%
G04 Gerber Fmt 4.6, Leading zero omitted, Abs format (unit mm)*
G04 Created by KiCad (PCBNEW (5.1.4)-1) date 2020-11-16 22:26:03*
%MOMM*%
%LPD*%
G04 APERTURE LIST*
%ADD10C,0.010000*%
G04 APERTURE END LIST*
D10*
G36*
X32342655Y44756186D02*
G01*
X32536366Y44694668D01*
X32754052Y44616532D01*
X33230038Y44438443D01*
X33102269Y44191364D01*
X32748738Y43679956D01*
X32290584Y43290609D01*
X31750581Y43037196D01*
X31151505Y42933592D01*
X31034876Y42931966D01*
X30684975Y42953876D01*
X30351676Y43004433D01*
X30158855Y43055795D01*
X29620639Y43334424D01*
X29180398Y43745421D01*
X29075471Y43881163D01*
X28900539Y44149234D01*
X28845243Y44329447D01*
X28911358Y44455526D01*
X29100663Y44561201D01*
X29111541Y44565781D01*
X29422560Y44690644D01*
X29619486Y44745664D01*
X29742942Y44729824D01*
X29833549Y44642104D01*
X29894004Y44546172D01*
X30138661Y44273305D01*
X30483367Y44062386D01*
X30860644Y43950727D01*
X30986732Y43942000D01*
X31361265Y43985411D01*
X31680800Y44130003D01*
X31978486Y44397314D01*
X32261781Y44770477D01*
X32342655Y44756186D01*
X32342655Y44756186D01*
G37*
X32342655Y44756186D02*
X32536366Y44694668D01*
X32754052Y44616532D01*
X33230038Y44438443D01*
X33102269Y44191364D01*
X32748738Y43679956D01*
X32290584Y43290609D01*
X31750581Y43037196D01*
X31151505Y42933592D01*
X31034876Y42931966D01*
X30684975Y42953876D01*
X30351676Y43004433D01*
X30158855Y43055795D01*
X29620639Y43334424D01*
X29180398Y43745421D01*
X29075471Y43881163D01*
X28900539Y44149234D01*
X28845243Y44329447D01*
X28911358Y44455526D01*
X29100663Y44561201D01*
X29111541Y44565781D01*
X29422560Y44690644D01*
X29619486Y44745664D01*
X29742942Y44729824D01*
X29833549Y44642104D01*
X29894004Y44546172D01*
X30138661Y44273305D01*
X30483367Y44062386D01*
X30860644Y43950727D01*
X30986732Y43942000D01*
X31361265Y43985411D01*
X31680800Y44130003D01*
X31978486Y44397314D01*
X32261781Y44770477D01*
X32342655Y44756186D01*
G36*
X27770666Y51604333D02*
G01*
X27792990Y48831500D01*
X27815313Y46058666D01*
X28025823Y46058666D01*
X28142500Y46047762D01*
X28205496Y45988549D01*
X28231281Y45841275D01*
X28236329Y45566190D01*
X28236333Y45550666D01*
X28236333Y45042666D01*
X26797000Y45042666D01*
X26797000Y50546000D01*
X26585333Y50546000D01*
X26471820Y50555569D01*
X26408447Y50609702D01*
X26380635Y50746541D01*
X26373804Y51004228D01*
X26373666Y51099757D01*
X26373666Y51653515D01*
X27770666Y51604333D01*
X27770666Y51604333D01*
G37*
X27770666Y51604333D02*
X27792990Y48831500D01*
X27815313Y46058666D01*
X28025823Y46058666D01*
X28142500Y46047762D01*
X28205496Y45988549D01*
X28231281Y45841275D01*
X28236329Y45566190D01*
X28236333Y45550666D01*
X28236333Y45042666D01*
X26797000Y45042666D01*
X26797000Y50546000D01*
X26585333Y50546000D01*
X26471820Y50555569D01*
X26408447Y50609702D01*
X26380635Y50746541D01*
X26373804Y51004228D01*
X26373666Y51099757D01*
X26373666Y51653515D01*
X27770666Y51604333D01*
G36*
X31508903Y49692325D02*
G01*
X31935224Y49565650D01*
X32328729Y49325901D01*
X32584045Y49109261D01*
X32982938Y48636944D01*
X33236761Y48107986D01*
X33348433Y47548042D01*
X33320874Y46982767D01*
X33157002Y46437817D01*
X32859739Y45938847D01*
X32432003Y45511513D01*
X32153131Y45322685D01*
X31891342Y45192587D01*
X31616266Y45116698D01*
X31260604Y45078609D01*
X31124888Y45071969D01*
X30773085Y45071655D01*
X30454896Y45095366D01*
X30235683Y45138046D01*
X30226000Y45141513D01*
X29795668Y45361945D01*
X29385666Y45673005D01*
X29067902Y46019657D01*
X29055334Y46037501D01*
X28786671Y46565570D01*
X28660779Y47142395D01*
X28671477Y47585983D01*
X29689765Y47585983D01*
X29693939Y47177504D01*
X29822687Y46803333D01*
X30053737Y46484918D01*
X30364819Y46243708D01*
X30733661Y46101153D01*
X31137994Y46078702D01*
X31555545Y46197802D01*
X31656519Y46250559D01*
X32002733Y46541612D01*
X32221863Y46933506D01*
X32299988Y47401117D01*
X32300016Y47412012D01*
X32228480Y47845816D01*
X32034417Y48198189D01*
X31747471Y48461978D01*
X31397288Y48630033D01*
X31013513Y48695201D01*
X30625789Y48650330D01*
X30263764Y48488269D01*
X29957081Y48201865D01*
X29832436Y48007321D01*
X29689765Y47585983D01*
X28671477Y47585983D01*
X28675018Y47732786D01*
X28826747Y48301553D01*
X29113324Y48813505D01*
X29278290Y49008393D01*
X29763147Y49403341D01*
X30315455Y49643261D01*
X30938690Y49729620D01*
X30988000Y49729948D01*
X31508903Y49692325D01*
X31508903Y49692325D01*
G37*
X31508903Y49692325D02*
X31935224Y49565650D01*
X32328729Y49325901D01*
X32584045Y49109261D01*
X32982938Y48636944D01*
X33236761Y48107986D01*
X33348433Y47548042D01*
X33320874Y46982767D01*
X33157002Y46437817D01*
X32859739Y45938847D01*
X32432003Y45511513D01*
X32153131Y45322685D01*
X31891342Y45192587D01*
X31616266Y45116698D01*
X31260604Y45078609D01*
X31124888Y45071969D01*
X30773085Y45071655D01*
X30454896Y45095366D01*
X30235683Y45138046D01*
X30226000Y45141513D01*
X29795668Y45361945D01*
X29385666Y45673005D01*
X29067902Y46019657D01*
X29055334Y46037501D01*
X28786671Y46565570D01*
X28660779Y47142395D01*
X28671477Y47585983D01*
X29689765Y47585983D01*
X29693939Y47177504D01*
X29822687Y46803333D01*
X30053737Y46484918D01*
X30364819Y46243708D01*
X30733661Y46101153D01*
X31137994Y46078702D01*
X31555545Y46197802D01*
X31656519Y46250559D01*
X32002733Y46541612D01*
X32221863Y46933506D01*
X32299988Y47401117D01*
X32300016Y47412012D01*
X32228480Y47845816D01*
X32034417Y48198189D01*
X31747471Y48461978D01*
X31397288Y48630033D01*
X31013513Y48695201D01*
X30625789Y48650330D01*
X30263764Y48488269D01*
X29957081Y48201865D01*
X29832436Y48007321D01*
X29689765Y47585983D01*
X28671477Y47585983D01*
X28675018Y47732786D01*
X28826747Y48301553D01*
X29113324Y48813505D01*
X29278290Y49008393D01*
X29763147Y49403341D01*
X30315455Y49643261D01*
X30938690Y49729620D01*
X30988000Y49729948D01*
X31508903Y49692325D01*
M02*
