  0
SECTION
  2
HEADER
  9
$ANGBASE
  50
0.0
  9
$ANGDIR
  70
1
  9
$MEASUREMENT
  70
0
  0
ENDSEC
  0
SECTION
  2
TABLES
  0
TABLE
  2
LTYPE
  70
4
  0
LTYPE
  5
40F
  2
CONTINUOUS
  70
0
  3
Solid line
  72
65
  73
0
  40
0.0
  0
LTYPE
  5
410
  2
DASHDOT
 70
0
  3
Dash Dot ____ _ ____ _
 72
65
 73
4
 40
2.0
 49
1.25
 49
-0.25
 49
0.25
 49
-0.25
  0
LTYPE
  5
411
  2
DASHED
 70
0
  3
Dashed __ __ __ __ __
 72
65
 73
2
 40
0.75
 49
0.5
 49
-0.25
  0
LTYPE
  5
43B
  2
DOTTED
 70
0
  3
Dotted .  .  .  .
 72
65
 73
2
 40
0.2
 49
0.0
 49
-0.2
  0
ENDTAB
  0
TABLE
  2
STYLE
  70
4
  0
STYLE
  2
KICAD
  70
0
  40
0
  41
1
  42
1
  50
0
  71
0
  3
isocp.shx
  0
STYLE
  2
KICADB
  70
0
  40
0
  41
1
  42
1
  50
0
  71
0
  3
isocp.shx
  0
STYLE
  2
KICADI
  70
0
  40
0
  41
1
  42
1
  50
15
  71
0
  3
isocp.shx
  0
STYLE
  2
KICADBI
  70
0
  40
0
  41
1
  42
1
  50
15
  71
0
  3
isocp.shx
  0
ENDTAB
  0
TABLE
  2
LAYER
  70
1
  0
LAYER
  2
BLACK
  70
0
  62
7
  6
CONTINUOUS
  0
ENDTAB
  0
ENDSEC
  0
SECTION
  2
ENTITIES
0
LINE
8
BLACK
6
CONTINUOUS
10
0.260827
20
-1.50886
11
11.2844
21
-1.50886
0
LINE
8
BLACK
6
CONTINUOUS
10
0.162402
20
-1.60728
11
0.162402
21
-3.61614
0
LINE
8
BLACK
6
CONTINUOUS
10
0.260827
20
-5.24902
11
11.2844
21
-5.24902
0
LINE
8
BLACK
6
CONTINUOUS
10
11.3829
20
-5.15059
11
11.3829
21
-3.86417
0
ARC
8
BLACK
10
0.260827
20
-1.60728
40
0.0984252
50
90
51
180
0
ARC
8
BLACK
10
11.2844
20
-1.60728
40
0.0984252
50
-0
51
90
0
ARC
8
BLACK
10
11.2844
20
-5.15059
40
0.0984252
50
-90
51
-0
0
ARC
8
BLACK
10
0.260827
20
-5.15059
40
0.0984252
50
180
51
270
0
ARC
8
BLACK
10
11.312
20
-3.73819
40
0.125984
50
90
51
270
0
ARC
8
BLACK
10
0.304134
20
-3.73819
40
0.122047
50
-90
51
90
0
LINE
8
BLACK
6
CONTINUOUS
10
0.304134
20
-3.61614
11
0.162402
21
-3.61614
0
LINE
8
BLACK
6
CONTINUOUS
10
0.304134
20
-3.86024
11
0.162402
21
-3.86024
0
LINE
8
BLACK
6
CONTINUOUS
10
11.312
20
-3.86417
11
11.3829
21
-3.86417
0
LINE
8
BLACK
6
CONTINUOUS
10
0.162402
20
-3.86024
11
0.162402
21
-5.15059
0
LINE
8
BLACK
6
CONTINUOUS
10
11.312
20
-3.6122
11
11.3829
21
-3.6122
0
LINE
8
BLACK
6
CONTINUOUS
10
11.3829
20
-1.60728
11
11.3829
21
-3.6122
0
CIRCLE
8
BLACK
10
10.3745
20
-2.61319
40
0.124016
0
CIRCLE
8
BLACK
10
7.65453
20
-4.86319
40
0.124016
0
CIRCLE
8
BLACK
10
1.17077
20
-2.61319
40
0.124016
0
LINE
8
BLACK
6
CONTINUOUS
10
10.6715
20
-4.36516
11
10.6715
21
-3.86122
0
LINE
8
BLACK
6
CONTINUOUS
10
10.0613
20
-4.36516
11
10.6715
21
-4.36516
0
LINE
8
BLACK
6
CONTINUOUS
10
10.0613
20
-3.86122
11
10.0613
21
-4.36516
0
LINE
8
BLACK
6
CONTINUOUS
10
10.6715
20
-3.86122
11
10.0613
21
-3.86122
0
LINE
8
BLACK
6
CONTINUOUS
10
11.268
20
-4.26673
11
11.1656
21
-4.26673
0
LINE
8
BLACK
6
CONTINUOUS
10
11.268
20
-4.46752
11
11.268
21
-4.26673
0
LINE
8
BLACK
6
CONTINUOUS
10
11.1656
20
-4.46752
11
11.268
21
-4.46752
0
LINE
8
BLACK
6
CONTINUOUS
10
11.1656
20
-4.26673
11
11.1656
21
-4.46752
0
LINE
8
BLACK
6
CONTINUOUS
10
9.46481
20
-4.26673
11
9.56718
21
-4.26673
0
LINE
8
BLACK
6
CONTINUOUS
10
9.46481
20
-4.46752
11
9.46481
21
-4.26673
0
LINE
8
BLACK
6
CONTINUOUS
10
9.56718
20
-4.46752
11
9.46481
21
-4.46752
0
LINE
8
BLACK
6
CONTINUOUS
10
9.56718
20
-4.26673
11
9.56718
21
-4.46752
0
LINE
8
BLACK
6
CONTINUOUS
10
9.07776
20
-5.11516
11
9.07776
21
-4.61122
0
LINE
8
BLACK
6
CONTINUOUS
10
8.46752
20
-5.11516
11
9.07776
21
-5.11516
0
LINE
8
BLACK
6
CONTINUOUS
10
8.46752
20
-4.61122
11
8.46752
21
-5.11516
0
LINE
8
BLACK
6
CONTINUOUS
10
9.07776
20
-4.61122
11
8.46752
21
-4.61122
0
LINE
8
BLACK
6
CONTINUOUS
10
7.01526
20
-4.36516
11
7.01526
21
-3.86122
0
LINE
8
BLACK
6
CONTINUOUS
10
6.40502
20
-4.36516
11
7.01526
21
-4.36516
0
LINE
8
BLACK
6
CONTINUOUS
10
6.40502
20
-3.86122
11
6.40502
21
-4.36516
0
LINE
8
BLACK
6
CONTINUOUS
10
7.01526
20
-3.86122
11
6.40502
21
-3.86122
0
LINE
8
BLACK
6
CONTINUOUS
10
7.76526
20
-4.36516
11
7.76526
21
-3.86122
0
LINE
8
BLACK
6
CONTINUOUS
10
7.15502
20
-4.36516
11
7.76526
21
-4.36516
0
LINE
8
BLACK
6
CONTINUOUS
10
7.15502
20
-3.86122
11
7.15502
21
-4.36516
0
LINE
8
BLACK
6
CONTINUOUS
10
7.76526
20
-3.86122
11
7.15502
21
-3.86122
0
LINE
8
BLACK
6
CONTINUOUS
10
7.39026
20
-3.61516
11
7.39026
21
-3.11122
0
LINE
8
BLACK
6
CONTINUOUS
10
6.78002
20
-3.61516
11
7.39026
21
-3.61516
0
LINE
8
BLACK
6
CONTINUOUS
10
6.78002
20
-3.11122
11
6.78002
21
-3.61516
0
LINE
8
BLACK
6
CONTINUOUS
10
7.39026
20
-3.11122
11
6.78002
21
-3.11122
0
LINE
8
BLACK
6
CONTINUOUS
10
8.14026
20
-3.61516
11
8.14026
21
-3.11122
0
LINE
8
BLACK
6
CONTINUOUS
10
7.53002
20
-3.61516
11
8.14026
21
-3.61516
0
LINE
8
BLACK
6
CONTINUOUS
10
7.53002
20
-3.11122
11
7.53002
21
-3.61516
0
LINE
8
BLACK
6
CONTINUOUS
10
8.14026
20
-3.11122
11
7.53002
21
-3.11122
0
LINE
8
BLACK
6
CONTINUOUS
10
7.95276
20
-2.86516
11
7.95276
21
-2.36122
0
LINE
8
BLACK
6
CONTINUOUS
10
7.34252
20
-2.86516
11
7.95276
21
-2.86516
0
LINE
8
BLACK
6
CONTINUOUS
10
7.34252
20
-2.36122
11
7.34252
21
-2.86516
0
LINE
8
BLACK
6
CONTINUOUS
10
7.95276
20
-2.36122
11
7.34252
21
-2.36122
0
LINE
8
BLACK
6
CONTINUOUS
10
8.32776
20
-2.11516
11
8.32776
21
-1.61122
0
LINE
8
BLACK
6
CONTINUOUS
10
7.71752
20
-2.11516
11
8.32776
21
-2.11516
0
LINE
8
BLACK
6
CONTINUOUS
10
7.71752
20
-1.61122
11
7.71752
21
-2.11516
0
LINE
8
BLACK
6
CONTINUOUS
10
8.32776
20
-1.61122
11
7.71752
21
-1.61122
0
LINE
8
BLACK
6
CONTINUOUS
10
9.07776
20
-2.11516
11
9.07776
21
-1.61122
0
LINE
8
BLACK
6
CONTINUOUS
10
8.46752
20
-2.11516
11
9.07776
21
-2.11516
0
LINE
8
BLACK
6
CONTINUOUS
10
8.46752
20
-1.61122
11
8.46752
21
-2.11516
0
LINE
8
BLACK
6
CONTINUOUS
10
9.07776
20
-1.61122
11
8.46752
21
-1.61122
0
LINE
8
BLACK
6
CONTINUOUS
10
10.109
20
-5.11516
11
10.109
21
-4.61122
0
LINE
8
BLACK
6
CONTINUOUS
10
9.49877
20
-5.11516
11
10.109
21
-5.11516
0
LINE
8
BLACK
6
CONTINUOUS
10
9.49877
20
-4.61122
11
9.49877
21
-5.11516
0
LINE
8
BLACK
6
CONTINUOUS
10
10.109
20
-4.61122
11
9.49877
21
-4.61122
0
LINE
8
BLACK
6
CONTINUOUS
10
8.51526
20
-4.36516
11
8.51526
21
-3.86122
0
LINE
8
BLACK
6
CONTINUOUS
10
7.90502
20
-4.36516
11
8.51526
21
-4.36516
0
LINE
8
BLACK
6
CONTINUOUS
10
7.90502
20
-3.86122
11
7.90502
21
-4.36516
0
LINE
8
BLACK
6
CONTINUOUS
10
8.51526
20
-3.86122
11
7.90502
21
-3.86122
0
LINE
8
BLACK
6
CONTINUOUS
10
9.26526
20
-4.36516
11
9.26526
21
-3.86122
0
LINE
8
BLACK
6
CONTINUOUS
10
8.65502
20
-4.36516
11
9.26526
21
-4.36516
0
LINE
8
BLACK
6
CONTINUOUS
10
8.65502
20
-3.86122
11
8.65502
21
-4.36516
0
LINE
8
BLACK
6
CONTINUOUS
10
9.26526
20
-3.86122
11
8.65502
21
-3.86122
0
LINE
8
BLACK
6
CONTINUOUS
10
8.89026
20
-3.61516
11
8.89026
21
-3.11122
0
LINE
8
BLACK
6
CONTINUOUS
10
8.28002
20
-3.61516
11
8.89026
21
-3.61516
0
LINE
8
BLACK
6
CONTINUOUS
10
8.28002
20
-3.11122
11
8.28002
21
-3.61516
0
LINE
8
BLACK
6
CONTINUOUS
10
8.89026
20
-3.11122
11
8.28002
21
-3.11122
0
LINE
8
BLACK
6
CONTINUOUS
10
9.64026
20
-3.61516
11
9.64026
21
-3.11122
0
LINE
8
BLACK
6
CONTINUOUS
10
9.03002
20
-3.61516
11
9.64026
21
-3.61516
0
LINE
8
BLACK
6
CONTINUOUS
10
9.03002
20
-3.11122
11
9.03002
21
-3.61516
0
LINE
8
BLACK
6
CONTINUOUS
10
9.64026
20
-3.11122
11
9.03002
21
-3.11122
0
LINE
8
BLACK
6
CONTINUOUS
10
8.70276
20
-2.86516
11
8.70276
21
-2.36122
0
LINE
8
BLACK
6
CONTINUOUS
10
8.09252
20
-2.86516
11
8.70276
21
-2.86516
0
LINE
8
BLACK
6
CONTINUOUS
10
8.09252
20
-2.36122
11
8.09252
21
-2.86516
0
LINE
8
BLACK
6
CONTINUOUS
10
8.70276
20
-2.36122
11
8.09252
21
-2.36122
0
LINE
8
BLACK
6
CONTINUOUS
10
9.45276
20
-2.86516
11
9.45276
21
-2.36122
0
LINE
8
BLACK
6
CONTINUOUS
10
8.84252
20
-2.86516
11
9.45276
21
-2.86516
0
LINE
8
BLACK
6
CONTINUOUS
10
8.84252
20
-2.36122
11
8.84252
21
-2.86516
0
LINE
8
BLACK
6
CONTINUOUS
10
9.45276
20
-2.36122
11
8.84252
21
-2.36122
0
LINE
8
BLACK
6
CONTINUOUS
10
9.82776
20
-2.11516
11
9.82776
21
-1.61122
0
LINE
8
BLACK
6
CONTINUOUS
10
9.21752
20
-2.11516
11
9.82776
21
-2.11516
0
LINE
8
BLACK
6
CONTINUOUS
10
9.21752
20
-1.61122
11
9.21752
21
-2.11516
0
LINE
8
BLACK
6
CONTINUOUS
10
9.82776
20
-1.61122
11
9.21752
21
-1.61122
0
LINE
8
BLACK
6
CONTINUOUS
10
11.1403
20
-5.11516
11
11.1403
21
-4.61122
0
LINE
8
BLACK
6
CONTINUOUS
10
10.53
20
-5.11516
11
11.1403
21
-5.11516
0
LINE
8
BLACK
6
CONTINUOUS
10
10.53
20
-4.61122
11
10.53
21
-5.11516
0
LINE
8
BLACK
6
CONTINUOUS
10
11.1403
20
-4.61122
11
10.53
21
-4.61122
0
LINE
8
BLACK
6
CONTINUOUS
10
11.1403
20
-2.86516
11
11.1403
21
-2.36122
0
LINE
8
BLACK
6
CONTINUOUS
10
10.53
20
-2.86516
11
11.1403
21
-2.86516
0
LINE
8
BLACK
6
CONTINUOUS
10
10.53
20
-2.36122
11
10.53
21
-2.86516
0
LINE
8
BLACK
6
CONTINUOUS
10
11.1403
20
-2.36122
11
10.53
21
-2.36122
0
LINE
8
BLACK
6
CONTINUOUS
10
10.2028
20
-2.86516
11
10.2028
21
-2.36122
0
LINE
8
BLACK
6
CONTINUOUS
10
9.59252
20
-2.86516
11
10.2028
21
-2.86516
0
LINE
8
BLACK
6
CONTINUOUS
10
9.59252
20
-2.36122
11
9.59252
21
-2.86516
0
LINE
8
BLACK
6
CONTINUOUS
10
10.2028
20
-2.36122
11
9.59252
21
-2.36122
0
LINE
8
BLACK
6
CONTINUOUS
10
1.01526
20
-5.11516
11
1.01526
21
-4.61122
0
LINE
8
BLACK
6
CONTINUOUS
10
0.40502
20
-5.11516
11
1.01526
21
-5.11516
0
LINE
8
BLACK
6
CONTINUOUS
10
0.40502
20
-4.61122
11
0.40502
21
-5.11516
0
LINE
8
BLACK
6
CONTINUOUS
10
1.01526
20
-4.61122
11
0.40502
21
-4.61122
0
LINE
8
BLACK
6
CONTINUOUS
10
1.10901
20
-3.61516
11
1.10901
21
-3.11122
0
LINE
8
BLACK
6
CONTINUOUS
10
0.49877
20
-3.61516
11
1.10901
21
-3.61516
0
LINE
8
BLACK
6
CONTINUOUS
10
0.49877
20
-3.11122
11
0.49877
21
-3.61516
0
LINE
8
BLACK
6
CONTINUOUS
10
1.10901
20
-3.11122
11
0.49877
21
-3.11122
0
LINE
8
BLACK
6
CONTINUOUS
10
2.14026
20
-3.61516
11
2.14026
21
-3.11122
0
LINE
8
BLACK
6
CONTINUOUS
10
1.53002
20
-3.61516
11
2.14026
21
-3.61516
0
LINE
8
BLACK
6
CONTINUOUS
10
1.53002
20
-3.11122
11
1.53002
21
-3.61516
0
LINE
8
BLACK
6
CONTINUOUS
10
2.14026
20
-3.11122
11
1.53002
21
-3.11122
0
LINE
8
BLACK
6
CONTINUOUS
10
1.01526
20
-2.86516
11
1.01526
21
-2.36122
0
LINE
8
BLACK
6
CONTINUOUS
10
0.40502
20
-2.86516
11
1.01526
21
-2.86516
0
LINE
8
BLACK
6
CONTINUOUS
10
0.40502
20
-2.36122
11
0.40502
21
-2.86516
0
LINE
8
BLACK
6
CONTINUOUS
10
1.01526
20
-2.36122
11
0.40502
21
-2.36122
0
LINE
8
BLACK
6
CONTINUOUS
10
1.95276
20
-2.86516
11
1.95276
21
-2.36122
0
LINE
8
BLACK
6
CONTINUOUS
10
1.34252
20
-2.86516
11
1.95276
21
-2.86516
0
LINE
8
BLACK
6
CONTINUOUS
10
1.34252
20
-2.36122
11
1.34252
21
-2.86516
0
LINE
8
BLACK
6
CONTINUOUS
10
1.95276
20
-2.36122
11
1.34252
21
-2.36122
0
LINE
8
BLACK
6
CONTINUOUS
10
0.827756
20
-2.11516
11
0.827756
21
-1.61122
0
LINE
8
BLACK
6
CONTINUOUS
10
0.21752
20
-2.11516
11
0.827756
21
-2.11516
0
LINE
8
BLACK
6
CONTINUOUS
10
0.21752
20
-1.61122
11
0.21752
21
-2.11516
0
LINE
8
BLACK
6
CONTINUOUS
10
0.827756
20
-1.61122
11
0.21752
21
-1.61122
0
LINE
8
BLACK
6
CONTINUOUS
10
1.57776
20
-2.11516
11
1.57776
21
-1.61122
0
LINE
8
BLACK
6
CONTINUOUS
10
0.96752
20
-2.11516
11
1.57776
21
-2.11516
0
LINE
8
BLACK
6
CONTINUOUS
10
0.96752
20
-1.61122
11
0.96752
21
-2.11516
0
LINE
8
BLACK
6
CONTINUOUS
10
1.57776
20
-1.61122
11
0.96752
21
-1.61122
0
LINE
8
BLACK
6
CONTINUOUS
10
2.0465
20
-5.11516
11
2.0465
21
-4.61122
0
LINE
8
BLACK
6
CONTINUOUS
10
1.43627
20
-5.11516
11
2.0465
21
-5.11516
0
LINE
8
BLACK
6
CONTINUOUS
10
1.43627
20
-4.61122
11
1.43627
21
-5.11516
0
LINE
8
BLACK
6
CONTINUOUS
10
2.0465
20
-4.61122
11
1.43627
21
-4.61122
0
LINE
8
BLACK
6
CONTINUOUS
10
2.51526
20
-4.36516
11
2.51526
21
-3.86122
0
LINE
8
BLACK
6
CONTINUOUS
10
1.90502
20
-4.36516
11
2.51526
21
-4.36516
0
LINE
8
BLACK
6
CONTINUOUS
10
1.90502
20
-3.86122
11
1.90502
21
-4.36516
0
LINE
8
BLACK
6
CONTINUOUS
10
2.51526
20
-3.86122
11
1.90502
21
-3.86122
0
LINE
8
BLACK
6
CONTINUOUS
10
2.89026
20
-3.61516
11
2.89026
21
-3.11122
0
LINE
8
BLACK
6
CONTINUOUS
10
2.28002
20
-3.61516
11
2.89026
21
-3.61516
0
LINE
8
BLACK
6
CONTINUOUS
10
2.28002
20
-3.11122
11
2.28002
21
-3.61516
0
LINE
8
BLACK
6
CONTINUOUS
10
2.89026
20
-3.11122
11
2.28002
21
-3.11122
0
LINE
8
BLACK
6
CONTINUOUS
10
2.70276
20
-2.86516
11
2.70276
21
-2.36122
0
LINE
8
BLACK
6
CONTINUOUS
10
2.09252
20
-2.86516
11
2.70276
21
-2.86516
0
LINE
8
BLACK
6
CONTINUOUS
10
2.09252
20
-2.36122
11
2.09252
21
-2.86516
0
LINE
8
BLACK
6
CONTINUOUS
10
2.70276
20
-2.36122
11
2.09252
21
-2.36122
0
LINE
8
BLACK
6
CONTINUOUS
10
3.45276
20
-2.86516
11
3.45276
21
-2.36122
0
LINE
8
BLACK
6
CONTINUOUS
10
2.84252
20
-2.86516
11
3.45276
21
-2.86516
0
LINE
8
BLACK
6
CONTINUOUS
10
2.84252
20
-2.36122
11
2.84252
21
-2.86516
0
LINE
8
BLACK
6
CONTINUOUS
10
3.45276
20
-2.36122
11
2.84252
21
-2.36122
0
LINE
8
BLACK
6
CONTINUOUS
10
2.32776
20
-2.11516
11
2.32776
21
-1.61122
0
LINE
8
BLACK
6
CONTINUOUS
10
1.71752
20
-2.11516
11
2.32776
21
-2.11516
0
LINE
8
BLACK
6
CONTINUOUS
10
1.71752
20
-1.61122
11
1.71752
21
-2.11516
0
LINE
8
BLACK
6
CONTINUOUS
10
2.32776
20
-1.61122
11
1.71752
21
-1.61122
0
LINE
8
BLACK
6
CONTINUOUS
10
3.07776
20
-2.11516
11
3.07776
21
-1.61122
0
LINE
8
BLACK
6
CONTINUOUS
10
2.46752
20
-2.11516
11
3.07776
21
-2.11516
0
LINE
8
BLACK
6
CONTINUOUS
10
2.46752
20
-1.61122
11
2.46752
21
-2.11516
0
LINE
8
BLACK
6
CONTINUOUS
10
3.07776
20
-1.61122
11
2.46752
21
-1.61122
0
LINE
8
BLACK
6
CONTINUOUS
10
3.07776
20
-5.11516
11
3.07776
21
-4.61122
0
LINE
8
BLACK
6
CONTINUOUS
10
2.46752
20
-5.11516
11
3.07776
21
-5.11516
0
LINE
8
BLACK
6
CONTINUOUS
10
2.46752
20
-4.61122
11
2.46752
21
-5.11516
0
LINE
8
BLACK
6
CONTINUOUS
10
3.07776
20
-4.61122
11
2.46752
21
-4.61122
0
LINE
8
BLACK
6
CONTINUOUS
10
3.26526
20
-4.36516
11
3.26526
21
-3.86122
0
LINE
8
BLACK
6
CONTINUOUS
10
2.65502
20
-4.36516
11
3.26526
21
-4.36516
0
LINE
8
BLACK
6
CONTINUOUS
10
2.65502
20
-3.86122
11
2.65502
21
-4.36516
0
LINE
8
BLACK
6
CONTINUOUS
10
3.26526
20
-3.86122
11
2.65502
21
-3.86122
0
LINE
8
BLACK
6
CONTINUOUS
10
3.64026
20
-3.61516
11
3.64026
21
-3.11122
0
LINE
8
BLACK
6
CONTINUOUS
10
3.03002
20
-3.61516
11
3.64026
21
-3.61516
0
LINE
8
BLACK
6
CONTINUOUS
10
3.03002
20
-3.11122
11
3.03002
21
-3.61516
0
LINE
8
BLACK
6
CONTINUOUS
10
3.64026
20
-3.11122
11
3.03002
21
-3.11122
0
LINE
8
BLACK
6
CONTINUOUS
10
4.39026
20
-3.61516
11
4.39026
21
-3.11122
0
LINE
8
BLACK
6
CONTINUOUS
10
3.78002
20
-3.61516
11
4.39026
21
-3.61516
0
LINE
8
BLACK
6
CONTINUOUS
10
3.78002
20
-3.11122
11
3.78002
21
-3.61516
0
LINE
8
BLACK
6
CONTINUOUS
10
4.39026
20
-3.11122
11
3.78002
21
-3.11122
0
LINE
8
BLACK
6
CONTINUOUS
10
4.20276
20
-2.86516
11
4.20276
21
-2.36122
0
LINE
8
BLACK
6
CONTINUOUS
10
3.59252
20
-2.86516
11
4.20276
21
-2.86516
0
LINE
8
BLACK
6
CONTINUOUS
10
3.59252
20
-2.36122
11
3.59252
21
-2.86516
0
LINE
8
BLACK
6
CONTINUOUS
10
4.20276
20
-2.36122
11
3.59252
21
-2.36122
0
LINE
8
BLACK
6
CONTINUOUS
10
4.95276
20
-2.86516
11
4.95276
21
-2.36122
0
LINE
8
BLACK
6
CONTINUOUS
10
4.34252
20
-2.86516
11
4.95276
21
-2.86516
0
LINE
8
BLACK
6
CONTINUOUS
10
4.34252
20
-2.36122
11
4.34252
21
-2.86516
0
LINE
8
BLACK
6
CONTINUOUS
10
4.95276
20
-2.36122
11
4.34252
21
-2.36122
0
LINE
8
BLACK
6
CONTINUOUS
10
3.82776
20
-2.11516
11
3.82776
21
-1.61122
0
LINE
8
BLACK
6
CONTINUOUS
10
3.21752
20
-2.11516
11
3.82776
21
-2.11516
0
LINE
8
BLACK
6
CONTINUOUS
10
3.21752
20
-1.61122
11
3.21752
21
-2.11516
0
LINE
8
BLACK
6
CONTINUOUS
10
3.82776
20
-1.61122
11
3.21752
21
-1.61122
0
LINE
8
BLACK
6
CONTINUOUS
10
4.57776
20
-2.11516
11
4.57776
21
-1.61122
0
LINE
8
BLACK
6
CONTINUOUS
10
3.96752
20
-2.11516
11
4.57776
21
-2.11516
0
LINE
8
BLACK
6
CONTINUOUS
10
3.96752
20
-1.61122
11
3.96752
21
-2.11516
0
LINE
8
BLACK
6
CONTINUOUS
10
4.57776
20
-1.61122
11
3.96752
21
-1.61122
0
LINE
8
BLACK
6
CONTINUOUS
10
4.01526
20
-4.36516
11
4.01526
21
-3.86122
0
LINE
8
BLACK
6
CONTINUOUS
10
3.40502
20
-4.36516
11
4.01526
21
-4.36516
0
LINE
8
BLACK
6
CONTINUOUS
10
3.40502
20
-3.86122
11
3.40502
21
-4.36516
0
LINE
8
BLACK
6
CONTINUOUS
10
4.01526
20
-3.86122
11
3.40502
21
-3.86122
0
LINE
8
BLACK
6
CONTINUOUS
10
4.76526
20
-4.36516
11
4.76526
21
-3.86122
0
LINE
8
BLACK
6
CONTINUOUS
10
4.15502
20
-4.36516
11
4.76526
21
-4.36516
0
LINE
8
BLACK
6
CONTINUOUS
10
4.15502
20
-3.86122
11
4.15502
21
-4.36516
0
LINE
8
BLACK
6
CONTINUOUS
10
4.76526
20
-3.86122
11
4.15502
21
-3.86122
0
LINE
8
BLACK
6
CONTINUOUS
10
5.14026
20
-3.61516
11
5.14026
21
-3.11122
0
LINE
8
BLACK
6
CONTINUOUS
10
4.53002
20
-3.61516
11
5.14026
21
-3.61516
0
LINE
8
BLACK
6
CONTINUOUS
10
4.53002
20
-3.11122
11
4.53002
21
-3.61516
0
LINE
8
BLACK
6
CONTINUOUS
10
5.14026
20
-3.11122
11
4.53002
21
-3.11122
0
LINE
8
BLACK
6
CONTINUOUS
10
5.70276
20
-2.86516
11
5.70276
21
-2.36122
0
LINE
8
BLACK
6
CONTINUOUS
10
5.09252
20
-2.86516
11
5.70276
21
-2.86516
0
LINE
8
BLACK
6
CONTINUOUS
10
5.09252
20
-2.36122
11
5.09252
21
-2.86516
0
LINE
8
BLACK
6
CONTINUOUS
10
5.70276
20
-2.36122
11
5.09252
21
-2.36122
0
LINE
8
BLACK
6
CONTINUOUS
10
6.45276
20
-2.86516
11
6.45276
21
-2.36122
0
LINE
8
BLACK
6
CONTINUOUS
10
5.84252
20
-2.86516
11
6.45276
21
-2.86516
0
LINE
8
BLACK
6
CONTINUOUS
10
5.84252
20
-2.36122
11
5.84252
21
-2.86516
0
LINE
8
BLACK
6
CONTINUOUS
10
6.45276
20
-2.36122
11
5.84252
21
-2.36122
0
LINE
8
BLACK
6
CONTINUOUS
10
5.32776
20
-2.11516
11
5.32776
21
-1.61122
0
LINE
8
BLACK
6
CONTINUOUS
10
4.71752
20
-2.11516
11
5.32776
21
-2.11516
0
LINE
8
BLACK
6
CONTINUOUS
10
4.71752
20
-1.61122
11
4.71752
21
-2.11516
0
LINE
8
BLACK
6
CONTINUOUS
10
5.32776
20
-1.61122
11
4.71752
21
-1.61122
0
LINE
8
BLACK
6
CONTINUOUS
10
6.07776
20
-2.11516
11
6.07776
21
-1.61122
0
LINE
8
BLACK
6
CONTINUOUS
10
5.46752
20
-2.11516
11
6.07776
21
-2.11516
0
LINE
8
BLACK
6
CONTINUOUS
10
5.46752
20
-1.61122
11
5.46752
21
-2.11516
0
LINE
8
BLACK
6
CONTINUOUS
10
6.07776
20
-1.61122
11
5.46752
21
-1.61122
0
LINE
8
BLACK
6
CONTINUOUS
10
5.51526
20
-4.36516
11
5.51526
21
-3.86122
0
LINE
8
BLACK
6
CONTINUOUS
10
4.90502
20
-4.36516
11
5.51526
21
-4.36516
0
LINE
8
BLACK
6
CONTINUOUS
10
4.90502
20
-3.86122
11
4.90502
21
-4.36516
0
LINE
8
BLACK
6
CONTINUOUS
10
5.51526
20
-3.86122
11
4.90502
21
-3.86122
0
LINE
8
BLACK
6
CONTINUOUS
10
6.26526
20
-4.36516
11
6.26526
21
-3.86122
0
LINE
8
BLACK
6
CONTINUOUS
10
5.65502
20
-4.36516
11
6.26526
21
-4.36516
0
LINE
8
BLACK
6
CONTINUOUS
10
5.65502
20
-3.86122
11
5.65502
21
-4.36516
0
LINE
8
BLACK
6
CONTINUOUS
10
6.26526
20
-3.86122
11
5.65502
21
-3.86122
0
LINE
8
BLACK
6
CONTINUOUS
10
5.89026
20
-3.61516
11
5.89026
21
-3.11122
0
LINE
8
BLACK
6
CONTINUOUS
10
5.28002
20
-3.61516
11
5.89026
21
-3.61516
0
LINE
8
BLACK
6
CONTINUOUS
10
5.28002
20
-3.11122
11
5.28002
21
-3.61516
0
LINE
8
BLACK
6
CONTINUOUS
10
5.89026
20
-3.11122
11
5.28002
21
-3.11122
0
LINE
8
BLACK
6
CONTINUOUS
10
6.64026
20
-3.61516
11
6.64026
21
-3.11122
0
LINE
8
BLACK
6
CONTINUOUS
10
6.03002
20
-3.61516
11
6.64026
21
-3.61516
0
LINE
8
BLACK
6
CONTINUOUS
10
6.03002
20
-3.11122
11
6.03002
21
-3.61516
0
LINE
8
BLACK
6
CONTINUOUS
10
6.64026
20
-3.11122
11
6.03002
21
-3.11122
0
LINE
8
BLACK
6
CONTINUOUS
10
7.20276
20
-2.86516
11
7.20276
21
-2.36122
0
LINE
8
BLACK
6
CONTINUOUS
10
6.59252
20
-2.86516
11
7.20276
21
-2.86516
0
LINE
8
BLACK
6
CONTINUOUS
10
6.59252
20
-2.36122
11
6.59252
21
-2.86516
0
LINE
8
BLACK
6
CONTINUOUS
10
7.20276
20
-2.36122
11
6.59252
21
-2.36122
0
LINE
8
BLACK
6
CONTINUOUS
10
6.82776
20
-2.11516
11
6.82776
21
-1.61122
0
LINE
8
BLACK
6
CONTINUOUS
10
6.21752
20
-2.11516
11
6.82776
21
-2.11516
0
LINE
8
BLACK
6
CONTINUOUS
10
6.21752
20
-1.61122
11
6.21752
21
-2.11516
0
LINE
8
BLACK
6
CONTINUOUS
10
6.82776
20
-1.61122
11
6.21752
21
-1.61122
0
LINE
8
BLACK
6
CONTINUOUS
10
7.57776
20
-2.11516
11
7.57776
21
-1.61122
0
LINE
8
BLACK
6
CONTINUOUS
10
6.96752
20
-2.11516
11
7.57776
21
-2.11516
0
LINE
8
BLACK
6
CONTINUOUS
10
6.96752
20
-1.61122
11
6.96752
21
-2.11516
0
LINE
8
BLACK
6
CONTINUOUS
10
7.57776
20
-1.61122
11
6.96752
21
-1.61122
0
LINE
8
BLACK
6
CONTINUOUS
10
1.29651
20
-4.36516
11
1.29651
21
-3.86122
0
LINE
8
BLACK
6
CONTINUOUS
10
0.68627
20
-4.36516
11
1.29651
21
-4.36516
0
LINE
8
BLACK
6
CONTINUOUS
10
0.68627
20
-3.86122
11
0.68627
21
-4.36516
0
LINE
8
BLACK
6
CONTINUOUS
10
1.29651
20
-3.86122
11
0.68627
21
-3.86122
0
LINE
8
BLACK
6
CONTINUOUS
10
1.59769
20
-4.26673
11
1.49532
21
-4.26673
0
LINE
8
BLACK
6
CONTINUOUS
10
1.59769
20
-4.46752
11
1.59769
21
-4.26673
0
LINE
8
BLACK
6
CONTINUOUS
10
1.49532
20
-4.46752
11
1.59769
21
-4.46752
0
LINE
8
BLACK
6
CONTINUOUS
10
1.49532
20
-4.26673
11
1.49532
21
-4.46752
0
LINE
8
BLACK
6
CONTINUOUS
10
0.385089
20
-4.26673
11
0.487451
21
-4.26673
0
LINE
8
BLACK
6
CONTINUOUS
10
0.385089
20
-4.46752
11
0.385089
21
-4.26673
0
LINE
8
BLACK
6
CONTINUOUS
10
0.487451
20
-4.46752
11
0.385089
21
-4.46752
0
LINE
8
BLACK
6
CONTINUOUS
10
0.487451
20
-4.26673
11
0.487451
21
-4.46752
0
LINE
8
BLACK
6
CONTINUOUS
10
10.9528
20
-2.11516
11
10.9528
21
-1.61122
0
LINE
8
BLACK
6
CONTINUOUS
10
10.3425
20
-2.11516
11
10.9528
21
-2.11516
0
LINE
8
BLACK
6
CONTINUOUS
10
10.3425
20
-1.61122
11
10.3425
21
-2.11516
0
LINE
8
BLACK
6
CONTINUOUS
10
10.9528
20
-1.61122
11
10.3425
21
-1.61122
0
LINE
8
BLACK
6
CONTINUOUS
10
11.2539
20
-2.01673
11
11.1516
21
-2.01673
0
LINE
8
BLACK
6
CONTINUOUS
10
11.2539
20
-2.21752
11
11.2539
21
-2.01673
0
LINE
8
BLACK
6
CONTINUOUS
10
11.1516
20
-2.21752
11
11.2539
21
-2.21752
0
LINE
8
BLACK
6
CONTINUOUS
10
11.1516
20
-2.01673
11
11.1516
21
-2.21752
0
LINE
8
BLACK
6
CONTINUOUS
10
10.0413
20
-2.01673
11
10.1437
21
-2.01673
0
LINE
8
BLACK
6
CONTINUOUS
10
10.0413
20
-2.21752
11
10.0413
21
-2.01673
0
LINE
8
BLACK
6
CONTINUOUS
10
10.1437
20
-2.21752
11
10.0413
21
-2.21752
0
LINE
8
BLACK
6
CONTINUOUS
10
10.1437
20
-2.01673
11
10.1437
21
-2.21752
0
LINE
8
BLACK
6
CONTINUOUS
10
10.859
20
-3.61516
11
10.859
21
-3.11122
0
LINE
8
BLACK
6
CONTINUOUS
10
10.2488
20
-3.61516
11
10.859
21
-3.61516
0
LINE
8
BLACK
6
CONTINUOUS
10
10.2488
20
-3.11122
11
10.2488
21
-3.61516
0
LINE
8
BLACK
6
CONTINUOUS
10
10.859
20
-3.11122
11
10.2488
21
-3.11122
0
LINE
8
BLACK
6
CONTINUOUS
10
11.1602
20
-3.51673
11
11.0578
21
-3.51673
0
LINE
8
BLACK
6
CONTINUOUS
10
11.1602
20
-3.71752
11
11.1602
21
-3.51673
0
LINE
8
BLACK
6
CONTINUOUS
10
11.0578
20
-3.71752
11
11.1602
21
-3.71752
0
LINE
8
BLACK
6
CONTINUOUS
10
11.0578
20
-3.51673
11
11.0578
21
-3.71752
0
LINE
8
BLACK
6
CONTINUOUS
10
9.94759
20
-3.51673
11
10.05
21
-3.51673
0
LINE
8
BLACK
6
CONTINUOUS
10
9.94759
20
-3.71752
11
9.94759
21
-3.51673
0
LINE
8
BLACK
6
CONTINUOUS
10
10.05
20
-3.71752
11
9.94759
21
-3.71752
0
LINE
8
BLACK
6
CONTINUOUS
10
10.05
20
-3.51673
11
10.05
21
-3.71752
0
LINE
8
BLACK
6
CONTINUOUS
10
6.07776
20
-5.11516
11
6.07776
21
-4.61122
0
LINE
8
BLACK
6
CONTINUOUS
10
5.46752
20
-5.11516
11
6.07776
21
-5.11516
0
LINE
8
BLACK
6
CONTINUOUS
10
5.46752
20
-4.61122
11
5.46752
21
-5.11516
0
LINE
8
BLACK
6
CONTINUOUS
10
6.07776
20
-4.61122
11
5.46752
21
-4.61122
0
LINE
8
BLACK
6
CONTINUOUS
10
7.61319
20
-5.01673
11
7.51083
21
-5.01673
0
LINE
8
BLACK
6
CONTINUOUS
10
7.61319
20
-5.21752
11
7.61319
21
-5.01673
0
LINE
8
BLACK
6
CONTINUOUS
10
7.51083
20
-5.21752
11
7.61319
21
-5.21752
0
LINE
8
BLACK
6
CONTINUOUS
10
7.51083
20
-5.01673
11
7.51083
21
-5.21752
0
LINE
8
BLACK
6
CONTINUOUS
10
3.93209
20
-5.01673
11
4.03445
21
-5.01673
0
LINE
8
BLACK
6
CONTINUOUS
10
3.93209
20
-5.21752
11
3.93209
21
-5.01673
0
LINE
8
BLACK
6
CONTINUOUS
10
4.03445
20
-5.21752
11
3.93209
21
-5.21752
0
LINE
8
BLACK
6
CONTINUOUS
10
4.03445
20
-5.01673
11
4.03445
21
-5.21752
0
CIRCLE
8
BLACK
10
4.27657
20
-4.86319
40
0.124016
0
LINE
8
BLACK
6
CONTINUOUS
10
4.46752
20
-4.81594
11
4.56201
21
-4.81594
0
LINE
8
BLACK
6
CONTINUOUS
10
4.46752
20
-4.91043
11
4.46752
21
-4.81594
0
LINE
8
BLACK
6
CONTINUOUS
10
4.56201
20
-4.91043
11
4.46752
21
-4.91043
0
LINE
8
BLACK
6
CONTINUOUS
10
4.56201
20
-4.81594
11
4.56201
21
-4.91043
0
LINE
8
BLACK
6
CONTINUOUS
10
3.99114
20
-4.81594
11
4.08563
21
-4.81594
0
LINE
8
BLACK
6
CONTINUOUS
10
3.99114
20
-4.91043
11
3.99114
21
-4.81594
0
LINE
8
BLACK
6
CONTINUOUS
10
4.08563
20
-4.91043
11
3.99114
21
-4.91043
0
LINE
8
BLACK
6
CONTINUOUS
10
4.08563
20
-4.81594
11
4.08563
21
-4.91043
0
LINE
8
BLACK
6
CONTINUOUS
10
0.257921
20
-5.37716
11
0.257921
21
-5.29842
0
LINE
8
BLACK
6
CONTINUOUS
10
0.257921
20
-5.29842
11
0.276669
21
-5.29842
0
LINE
8
BLACK
6
CONTINUOUS
10
0.276669
20
-5.29842
11
0.287917
21
-5.30217
0
LINE
8
BLACK
6
CONTINUOUS
10
0.287917
20
-5.30217
11
0.295416
21
-5.30966
0
LINE
8
BLACK
6
CONTINUOUS
10
0.295416
20
-5.30966
11
0.299166
21
-5.31716
0
LINE
8
BLACK
6
CONTINUOUS
10
0.299166
20
-5.31716
11
0.302915
21
-5.33216
0
LINE
8
BLACK
6
CONTINUOUS
10
0.302915
20
-5.33216
11
0.302915
21
-5.34341
0
LINE
8
BLACK
6
CONTINUOUS
10
0.302915
20
-5.34341
11
0.299166
21
-5.35841
0
LINE
8
BLACK
6
CONTINUOUS
10
0.299166
20
-5.35841
11
0.295416
21
-5.36591
0
LINE
8
BLACK
6
CONTINUOUS
10
0.295416
20
-5.36591
11
0.287917
21
-5.37341
0
LINE
8
BLACK
6
CONTINUOUS
10
0.287917
20
-5.37341
11
0.276669
21
-5.37716
0
LINE
8
BLACK
6
CONTINUOUS
10
0.276669
20
-5.37716
11
0.257921
21
-5.37716
0
LINE
8
BLACK
6
CONTINUOUS
10
0.336661
20
-5.37716
11
0.336661
21
-5.32466
0
LINE
8
BLACK
6
CONTINUOUS
10
0.336661
20
-5.33966
11
0.340411
21
-5.33216
0
LINE
8
BLACK
6
CONTINUOUS
10
0.340411
20
-5.33216
11
0.34416
21
-5.32841
0
LINE
8
BLACK
6
CONTINUOUS
10
0.34416
20
-5.32841
11
0.351659
21
-5.32466
0
LINE
8
BLACK
6
CONTINUOUS
10
0.351659
20
-5.32466
11
0.359158
21
-5.32466
0
LINE
8
BLACK
6
CONTINUOUS
10
0.385405
20
-5.37716
11
0.385405
21
-5.32466
0
LINE
8
BLACK
6
CONTINUOUS
10
0.385405
20
-5.29842
11
0.381655
21
-5.30217
0
LINE
8
BLACK
6
CONTINUOUS
10
0.381655
20
-5.30217
11
0.385405
21
-5.30591
0
LINE
8
BLACK
6
CONTINUOUS
10
0.385405
20
-5.30591
11
0.389154
21
-5.30217
0
LINE
8
BLACK
6
CONTINUOUS
10
0.389154
20
-5.30217
11
0.385405
21
-5.29842
0
LINE
8
BLACK
6
CONTINUOUS
10
0.385405
20
-5.29842
11
0.385405
21
-5.30591
0
LINE
8
BLACK
6
CONTINUOUS
10
0.434149
20
-5.37716
11
0.42665
21
-5.37341
0
LINE
8
BLACK
6
CONTINUOUS
10
0.42665
20
-5.37341
11
0.4229
21
-5.36591
0
LINE
8
BLACK
6
CONTINUOUS
10
0.4229
20
-5.36591
11
0.4229
21
-5.29842
0
LINE
8
BLACK
6
CONTINUOUS
10
0.475394
20
-5.37716
11
0.467895
21
-5.37341
0
LINE
8
BLACK
6
CONTINUOUS
10
0.467895
20
-5.37341
11
0.464145
21
-5.36591
0
LINE
8
BLACK
6
CONTINUOUS
10
0.464145
20
-5.36591
11
0.464145
21
-5.29842
0
LINE
8
BLACK
6
CONTINUOUS
10
0.565382
20
-5.37716
11
0.565382
21
-5.29842
0
LINE
8
BLACK
6
CONTINUOUS
10
0.565382
20
-5.29842
11
0.591629
21
-5.35466
0
LINE
8
BLACK
6
CONTINUOUS
10
0.591629
20
-5.35466
11
0.617876
21
-5.29842
0
LINE
8
BLACK
6
CONTINUOUS
10
0.617876
20
-5.29842
11
0.617876
21
-5.37716
0
LINE
8
BLACK
6
CONTINUOUS
10
0.689117
20
-5.37716
11
0.689117
21
-5.33591
0
LINE
8
BLACK
6
CONTINUOUS
10
0.689117
20
-5.33591
11
0.685367
21
-5.32841
0
LINE
8
BLACK
6
CONTINUOUS
10
0.685367
20
-5.32841
11
0.677868
21
-5.32466
0
LINE
8
BLACK
6
CONTINUOUS
10
0.677868
20
-5.32466
11
0.66287
21
-5.32466
0
LINE
8
BLACK
6
CONTINUOUS
10
0.66287
20
-5.32466
11
0.655371
21
-5.32841
0
LINE
8
BLACK
6
CONTINUOUS
10
0.689117
20
-5.37341
11
0.681618
21
-5.37716
0
LINE
8
BLACK
6
CONTINUOUS
10
0.681618
20
-5.37716
11
0.66287
21
-5.37716
0
LINE
8
BLACK
6
CONTINUOUS
10
0.66287
20
-5.37716
11
0.655371
21
-5.37341
0
LINE
8
BLACK
6
CONTINUOUS
10
0.655371
20
-5.37341
11
0.651622
21
-5.36591
0
LINE
8
BLACK
6
CONTINUOUS
10
0.651622
20
-5.36591
11
0.651622
21
-5.35841
0
LINE
8
BLACK
6
CONTINUOUS
10
0.651622
20
-5.35841
11
0.655371
21
-5.35091
0
LINE
8
BLACK
6
CONTINUOUS
10
0.655371
20
-5.35091
11
0.66287
21
-5.34716
0
LINE
8
BLACK
6
CONTINUOUS
10
0.66287
20
-5.34716
11
0.681618
21
-5.34716
0
LINE
8
BLACK
6
CONTINUOUS
10
0.681618
20
-5.34716
11
0.689117
21
-5.34341
0
LINE
8
BLACK
6
CONTINUOUS
10
0.726612
20
-5.32466
11
0.726612
21
-5.4034
0
LINE
8
BLACK
6
CONTINUOUS
10
0.726612
20
-5.32841
11
0.734111
21
-5.32466
0
LINE
8
BLACK
6
CONTINUOUS
10
0.734111
20
-5.32466
11
0.749109
21
-5.32466
0
LINE
8
BLACK
6
CONTINUOUS
10
0.749109
20
-5.32466
11
0.756609
21
-5.32841
0
LINE
8
BLACK
6
CONTINUOUS
10
0.756609
20
-5.32841
11
0.760358
21
-5.33216
0
LINE
8
BLACK
6
CONTINUOUS
10
0.760358
20
-5.33216
11
0.764108
21
-5.33966
0
LINE
8
BLACK
6
CONTINUOUS
10
0.764108
20
-5.33966
11
0.764108
21
-5.36216
0
LINE
8
BLACK
6
CONTINUOUS
10
0.764108
20
-5.36216
11
0.760358
21
-5.36966
0
LINE
8
BLACK
6
CONTINUOUS
10
0.760358
20
-5.36966
11
0.756609
21
-5.37341
0
LINE
8
BLACK
6
CONTINUOUS
10
0.756609
20
-5.37341
11
0.749109
21
-5.37716
0
LINE
8
BLACK
6
CONTINUOUS
10
0.749109
20
-5.37716
11
0.734111
21
-5.37716
0
LINE
8
BLACK
6
CONTINUOUS
10
0.734111
20
-5.37716
11
0.726612
21
-5.37341
0
LINE
8
BLACK
6
CONTINUOUS
10
0.797853
20
-5.36966
11
0.801603
21
-5.37341
0
LINE
8
BLACK
6
CONTINUOUS
10
0.801603
20
-5.37341
11
0.797853
21
-5.37716
0
LINE
8
BLACK
6
CONTINUOUS
10
0.797853
20
-5.37716
11
0.794104
21
-5.37341
0
LINE
8
BLACK
6
CONTINUOUS
10
0.794104
20
-5.37341
11
0.797853
21
-5.36966
0
LINE
8
BLACK
6
CONTINUOUS
10
0.797853
20
-5.36966
11
0.797853
21
-5.37716
0
LINE
8
BLACK
6
CONTINUOUS
10
0.797853
20
-5.32841
11
0.801603
21
-5.33216
0
LINE
8
BLACK
6
CONTINUOUS
10
0.801603
20
-5.33216
11
0.797853
21
-5.33591
0
LINE
8
BLACK
6
CONTINUOUS
10
0.797853
20
-5.33591
11
0.794104
21
-5.33216
0
LINE
8
BLACK
6
CONTINUOUS
10
0.794104
20
-5.33216
11
0.797853
21
-5.32841
0
LINE
8
BLACK
6
CONTINUOUS
10
0.797853
20
-5.32841
11
0.797853
21
-5.33591
  0
ENDSEC
  0
EOF
