0
SECTION
2
HEADER
9
$INSUNITS
70
4
9
$ACADVER
1
AC1014
9
$HANDSEED
5
FFFF
0
ENDSEC
0
SECTION
2
TABLES
0
TABLE
2
VPORT
5
8
100
AcDbSymbolTable
0
ENDTAB
0
TABLE
2
LTYPE
5
5
100
AcDbSymbolTable
0
LTYPE
5
14
100
AcDbSymbolTableRecord
100
AcDbLinetypeTableRecord
2
BYBLOCK
70
0
0
LTYPE
5
15
100
AcDbSymbolTableRecord
100
AcDbLinetypeTableRecord
2
BYLAYER
70
0
0
ENDTAB
0
TABLE
2
LAYER
5
2
100
AcDbSymbolTable
70
2
0
LAYER
5
50
100
AcDbSymbolTableRecord
100
AcDbLayerTableRecord
2
0
70
0
6
CONTINUOUS
0
ENDTAB
0
TABLE
2
STYLE
5
3
100
AcDbSymbolTable
70
1
0
STYLE
5
11
100
AcDbSymbolTableRecord
100
AcDbTextStyleTableRecord
2
STANDARD
70
0
0
ENDTAB
0
TABLE
2
VIEW
5
6
100
AcDbSymbolTable
70
0
0
ENDTAB
0
TABLE
2
UCS
5
7
100
AcDbSymbolTable
70
0
0
ENDTAB
0
TABLE
2
APPID
5
9
100
AcDbSymbolTable
70
2
0
APPID
5
12
100
AcDbSymbolTableRecord
100
AcDbRegAppTableRecord
2
ACAD
70
0
0
ENDTAB
0
TABLE
2
DIMSTYLE
5
A
100
AcDbSymbolTable
70
1
0
ENDTAB
0
TABLE
2
BLOCK_RECORD
5
1
100
AcDbSymbolTable
70
1
0
BLOCK_RECORD
5
1F
100
AcDbSymbolTableRecord
100
AcDbBlockTableRecord
2
*MODEL_SPACE
0
BLOCK_RECORD
5
1B
100
AcDbSymbolTableRecord
100
AcDbBlockTableRecord
2
*PAPER_SPACE
0
ENDTAB
0
ENDSEC
0
SECTION
2
BLOCKS
0
BLOCK
5
20
100
AcDbEntity
100
AcDbBlockBegin
2
*MODEL_SPACE
0
ENDBLK
5
21
100
AcDbEntity
100
AcDbBlockEnd
0
BLOCK
5
1C
100
AcDbEntity
100
AcDbBlockBegin
2
*PAPER_SPACE
0
ENDBLK
5
1D
100
AcDbEntity
100
AcDbBlockEnd
0
ENDSEC
0
SECTION
2
ENTITIES
0
LWPOLYLINE
5
100
100
AcDbEntity
8
0
100
AcDbPolyline
90
60
70
1
43
0.0
10
155.60000000049999
20
49.199999999949995
10
155.60000000049999
20
-49.200000000050004
42
-0.41421356237309503
10
153.60000000050002
20
-51.200000000049997
10
144.5
20
-51.200000000050004
42
0.41421356237309503
10
143.5
20
-52.200000000050004
10
143.5
20
-54.500000000050008
42
-0.41421356237309503
10
142
20
-56.000000000050001
10
79
20
-56.000000000050008
42
-0.41421356237309503
10
77.5
20
-54.500000000050008
10
77.5
20
-52.200000000050004
42
0.41421356237309503
10
76.5
20
-51.200000000049997
10
34
20
-51.200000000050004
42
0.41421356237309503
10
33
20
-52.200000000050004
10
33
20
-54.500000000050008
42
-0.41421356237309503
10
31.500000000000004
20
-56.000000000050001
10
-31.500000000000004
20
-56.000000000050001
42
-0.41421356237309503
10
-33
20
-54.500000000050008
10
-33
20
-52.200000000050004
42
0.41421356237309503
10
-34
20
-51.200000000049997
10
-60.399999999999999
20
-51.200000000050004
42
0.41421356237309503
10
-61.400000000000006
20
-52.200000000050004
10
-61.400000000000006
20
-54.500000000050008
42
-0.41421356237309503
10
-62.899999999999999
20
-56.000000000050001
10
-125.90000000000002
20
-56.000000000050008
42
-0.41421356237309503
10
-127.40000000000002
20
-54.500000000050008
10
-127.40000000000002
20
-52.200000000050004
42
0.41421356237309503
10
-128.40000000000001
20
-51.200000000049997
10
-153.60000000060001
20
-51.200000000049997
42
-0.41421356237309631
10
-155.60000000060001
20
-49.200000000049997
10
-155.60000000060001
20
51.699999999950002
42
-0.41421356237309503
10
-153.60000000060001
20
53.699999999950009
10
-149.63675937470001
20
53.699999999989743
42
-0.24111353632869353
10
-148.8254487978229
20
53.284615384563516
42
0.51199211157178359
10
-145.17455120214487
20
53.284615384540281
42
-0.24111353632869398
10
-144.36324062529999
20
53.699999999950009
10
-144
20
53.699999999950009
42
0.41421356237309503
10
-143.5
20
54.199999999950002
10
-143.5
20
54.999999999950006
42
-0.41421356237309503
10
-142
20
56.499999999949999
10
-79
20
56.499999999950006
42
-0.41421356237309503
10
-77.5
20
54.999999999950006
10
-77.5
20
52.199999999950002
42
0.41421356237309503
10
-76.5
20
51.199999999950009
10
-34
20
51.199999999950009
42
0.41421356237309503
10
-33
20
52.199999999950002
10
-33
20
54.999999999950006
42
-0.41421356237309503
10
-31.500000000000004
20
56.499999999949999
10
31.500000000000004
20
56.499999999949999
42
-0.41421356237309503
10
33
20
54.999999999950006
10
33
20
52.199999999950002
42
0.41421356237309503
10
34
20
51.199999999950009
10
76.5
20
51.199999999950009
42
0.41421356237309503
10
77.5
20
52.199999999950002
10
77.500000000000014
20
54.999999999950006
42
-0.41421356237309503
10
79
20
56.499999999949999
10
142
20
56.499999999950006
42
-0.41421356237309503
10
143.5
20
54.999999999950006
10
143.5
20
52.199999999950002
42
0.41421356237309503
10
144.5
20
51.199999999950009
10
153.60000000050002
20
51.199999999949995
42
-0.41421356237309631
0
LWPOLYLINE
5
101
100
AcDbEntity
8
0
100
AcDbPolyline
90
8
70
1
43
0.0
10
-125.11799999940001
20
6.9999999994000008
10
-125.11799999940001
20
-8.2500000006
42
0.41421356237309503
10
-124.11799999940001
20
-9.2500000006
10
-118.96799999940001
20
-9.2500000006
42
0.41421356237309503
10
-117.96799999940001
20
-8.2500000006
10
-117.96799999940001
20
6.9999999994000008
42
0.41421356237309503
10
-118.96799999940001
20
7.9999999994
10
-124.11799999940001
20
7.9999999994
42
0.41421356237309503
0
LWPOLYLINE
5
102
100
AcDbEntity
8
0
100
AcDbPolyline
90
8
70
1
43
0.0
10
-138.25000000060001
20
-20.349999999600001
10
-138.25000000060001
20
-8.3499999995999996
42
0.41421356237309503
10
-139.25000000060004
20
-7.3499999995999996
10
-151.25000000060001
20
-7.3499999995999996
42
0.41421356237309503
10
-152.25000000060001
20
-8.3499999995999996
10
-152.25000000060001
20
-20.349999999600001
42
0.41421356237309503
10
-151.25000000060001
20
-21.349999999600001
10
-139.25000000060004
20
-21.349999999600001
42
0.41421356237309503
0
LWPOLYLINE
5
103
100
AcDbEntity
8
0
100
AcDbPolyline
90
8
70
1
43
0.0
10
-101.1419999994
20
6.9999999994000008
10
-101.1419999994
20
-8.2500000006
42
0.41421356237309503
10
-100.14199999940001
20
-9.2500000006
10
-94.991999999360019
20
-9.2500000006
42
0.41421356237309503
10
-93.991999999360004
20
-8.2500000006
10
-93.991999999360019
20
6.9999999994000008
42
0.41421356237309503
10
-94.991999999360019
20
7.9999999994
10
-100.14199999940001
20
7.9999999994
42
0.41421356237309503
0
LWPOLYLINE
5
104
100
AcDbEntity
8
0
100
AcDbPolyline
90
8
70
1
43
0.0
10
-133.2000000006
20
29.7500000004
10
-133.2000000006
20
17.7500000004
42
0.41421356237309503
10
-132.2000000006
20
16.7500000004
10
-120.20000000060001
20
16.7500000004
42
0.41421356237309503
10
-119.2000000006
20
17.7500000004
10
-119.20000000060001
20
29.7500000004
42
0.41421356237309503
10
-120.20000000060001
20
30.7500000004
10
-132.2000000006
20
30.7500000004
42
0.41421356237309503
0
LWPOLYLINE
5
105
100
AcDbEntity
8
0
100
AcDbPolyline
90
8
70
1
43
0.0
10
-29.775000000620004
20
45.100000000400009
10
-29.775000000620004
20
30.050000000400004
42
0.41421356237309503
10
-28.77500000062
20
29.050000000400004
10
-23.625000000619998
20
29.050000000400004
42
0.41421356237309503
10
-22.625000000619998
20
30.050000000400004
10
-22.625000000619998
20
45.100000000400009
42
0.41421356237309503
10
-23.625000000619998
20
46.100000000400001
10
-28.77500000062
20
46.100000000400001
42
0.41421356237309503
0
LWPOLYLINE
5
106
100
AcDbEntity
8
0
100
AcDbPolyline
90
8
70
1
43
0.0
10
-138.25000000060001
20
17.7500000004
10
-138.25000000060001
20
29.7500000004
42
0.41421356237309503
10
-139.25000000060004
20
30.7500000004
10
-151.25000000060001
20
30.7500000004
42
0.41421356237309503
10
-152.25000000060001
20
29.7500000004
10
-152.25000000060001
20
17.7500000004
42
0.41421356237309503
10
-151.25000000060001
20
16.7500000004
10
-139.25000000060004
20
16.7500000004
42
0.41421356237309503
0
LWPOLYLINE
5
107
100
AcDbEntity
8
0
100
AcDbPolyline
90
8
70
1
43
0.0
10
70.224999999380003
20
45.100000000400009
10
70.224999999380003
20
30.050000000400004
42
0.41421356237309503
10
71.224999999380003
20
29.050000000400004
10
76.374999999379995
20
29.050000000400004
42
0.41421356237309503
10
77.374999999379995
20
30.050000000400004
10
77.374999999379995
20
45.100000000400009
42
0.41421356237309503
10
76.374999999379995
20
46.100000000400001
10
71.224999999380003
20
46.100000000400001
42
0.41421356237309503
0
LWPOLYLINE
5
108
100
AcDbEntity
8
0
100
AcDbPolyline
90
8
70
1
43
0.0
10
-97.361999999460011
20
-29.100000000100003
10
-102.51199999950002
20
-29.100000000100003
42
0.41421356237309503
10
-103.51199999950001
20
-30.100000000100003
10
-103.51199999950001
20
-43.450000000099998
42
0.41421356237309503
10
-102.51199999950002
20
-44.450000000100005
10
-97.361999999460011
20
-44.45000000009999
42
0.41421356237309503
10
-96.361999999460011
20
-43.450000000099998
10
-96.361999999460011
20
-30.100000000100003
42
0.41421356237309503
0
LWPOLYLINE
5
109
100
AcDbEntity
8
0
100
AcDbPolyline
90
8
70
1
43
0.0
10
-120.3379999995
20
-43.450000000099998
10
-120.3379999995
20
-30.100000000100003
42
0.41421356237309503
10
-121.3379999995
20
-29.100000000100003
10
-126.4879999995
20
-29.100000000100003
42
0.41421356237309503
10
-127.48799999950002
20
-30.100000000100003
10
-127.4879999995
20
-43.450000000099998
42
0.41421356237309503
10
-126.4879999995
20
-44.450000000100005
10
-121.3379999995
20
-44.45000000009999
42
0.41421356237309503
0
LWPOLYLINE
5
110
100
AcDbEntity
8
0
100
AcDbPolyline
90
8
70
1
43
0.0
10
-102.55499999940001
20
-6.0000000006000009
42
-0.41421356237309503
10
-103.55499999940001
20
-7.0000000006000009
10
-115.5549999994
20
-7.0000000005999974
42
-0.41421356237309503
10
-116.5549999994
20
-6.0000000006000009
10
-116.5549999994
20
5.9999999994000008
42
-0.4142135623730947
10
-115.5549999994
20
6.9999999994
10
-103.55499999940001
20
6.9999999993999964
42
-0.41421356237309503
10
-102.55499999940001
20
5.9999999994
0
LWPOLYLINE
5
111
100
AcDbEntity
8
0
100
AcDbPolyline
90
8
70
1
43
0.0
10
124.9320000006
20
13.699999999900001
10
124.9320000006
20
27.249999999900005
42
0.41421356237309503
10
123.9320000006
20
28.249999999900002
10
118.73200000060001
20
28.249999999900005
42
0.41421356237309503
10
117.73200000060001
20
27.249999999900005
10
117.73200000060001
20
13.699999999900001
42
0.41421356237309503
10
118.73200000060001
20
12.699999999900001
10
123.9320000006
20
12.699999999900001
42
0.41421356237309503
0
LWPOLYLINE
5
112
100
AcDbEntity
8
0
100
AcDbPolyline
90
8
70
1
43
0.0
10
148.95800000060001
20
13.699999999900001
10
148.95800000060001
20
27.249999999900005
42
0.41421356237309503
10
147.95800000060001
20
28.249999999900002
10
142.75800000059999
20
28.249999999900005
42
0.41421356237309503
10
141.75800000060002
20
27.249999999900005
10
141.75800000060002
20
13.699999999900001
42
0.41421356237309503
10
142.75800000059999
20
12.699999999900001
10
147.95800000060001
20
12.699999999900001
42
0.41421356237309503
0
LWPOLYLINE
5
113
100
AcDbEntity
8
0
100
AcDbPolyline
90
12
70
1
43
0.0
10
10.08749999938
20
36.600000000400001
10
10.08749999938
20
39.600000000400001
42
0.41421356237309503
10
9.5874999993850007
20
40.100000000400009
10
0.55160161452273981
20
40.10000000040003
42
0.57735026918963328
10
-6.3766016157530006
20
40.100000000400009
10
-15.41250000062
20
40.100000000400009
42
0.41421356237309503
10
-15.91250000062
20
39.600000000400001
10
-15.91250000062
20
36.600000000399994
42
0.41421356237894952
10
-15.412500000610001
20
36.100000000400001
10
-6.3766016157528158
20
36.100000000400108
42
0.57735026918963772
10
0.55160161452279977
20
36.100000000400001
10
9.5874999993850007
20
36.100000000400001
42
0.41421356237309503
0
LWPOLYLINE
5
114
100
AcDbEntity
8
0
100
AcDbPolyline
90
12
70
1
43
0.0
10
63.512499999379997
20
36.600000000400001
10
63.512499999379997
20
39.600000000400001
42
0.41421356237309503
10
63.012499999380005
20
40.100000000400009
10
53.976601614518316
20
40.100000000399028
42
0.57735026918939614
10
47.048398384250007
20
40.100000000400009
10
38.012499999379997
20
40.100000000400009
42
0.41421356237309503
10
37.512499999379997
20
39.600000000400001
10
37.512499999379997
20
36.600000000400001
42
0.41421356237309503
10
38.012499999379997
20
36.100000000400001
10
47.048398384244187
20
36.100000000396648
42
0.57735026918939614
10
53.976601614520007
20
36.100000000400001
10
63.012499999380005
20
36.100000000400001
42
0.41421356237309503
0
LWPOLYLINE
5
115
100
AcDbEntity
8
0
100
AcDbPolyline
90
4
70
1
43
0.0
10
117.00000000000001
20
-49.450000000100005
42
-0.99999999999999989
10
117.00000000000001
20
-52.650000000100007
10
115
20
-52.650000000100007
42
-0.99999999999999989
10
115
20
-49.450000000100005
0
LWPOLYLINE
5
116
100
AcDbEntity
8
0
100
AcDbPolyline
90
4
70
1
43
0.0
10
117.00000000000001
20
52.599999865300006
42
-0.99999999999999989
10
117.00000000000001
20
49.399999865300003
10
115
20
49.399999865300003
42
-0.99999999999999989
10
115
20
52.599999865300006
0
LWPOLYLINE
5
117
100
AcDbEntity
8
0
100
AcDbPolyline
90
8
70
1
43
0.0
10
136.89999999899999
20
31.099999865300006
42
-0.41421356237309503
10
135.89999999899999
20
32.099999865299999
10
135.89999999899999
20
44.099999865299999
42
-0.41421356237309503
10
136.89999999899999
20
45.099999865299992
10
148.89999999899999
20
45.099999865299992
42
-0.41421356237309503
10
149.89999999899999
20
44.099999865299999
10
149.89999999899999
20
32.099999865299999
42
-0.41421356237309503
10
148.89999999899999
20
31.099999865299999
0
LWPOLYLINE
5
118
100
AcDbEntity
8
0
100
AcDbPolyline
90
8
70
1
43
0.0
10
113.09999999940001
20
31.099999865300006
42
-0.41421356237309503
10
112.09999999940001
20
32.099999865299999
10
112.09999999940001
20
44.099999865299999
42
-0.41421356237309503
10
113.09999999940001
20
45.099999865299992
10
125.0999999994
20
45.099999865299992
42
-0.41421356237309503
10
126.0999999994
20
44.099999865299999
10
126.0999999994
20
32.099999865299999
42
-0.41421356237309503
10
125.0999999994
20
31.099999865299999
0
LWPOLYLINE
5
119
100
AcDbEntity
8
0
100
AcDbPolyline
90
8
70
1
43
0.0
10
89.299999999839997
20
31.099999865300006
42
-0.41421356237309503
10
88.299999999839997
20
32.099999865299999
10
88.299999999839997
20
44.099999865299999
42
-0.41421356237309503
10
89.299999999839997
20
45.099999865299992
10
101.29999999980001
20
45.099999865299992
42
-0.41421356237309503
10
102.29999999980001
20
44.099999865299999
10
102.29999999980001
20
32.099999865299999
42
-0.41421356237309503
10
101.29999999980001
20
31.099999865299999
0
LWPOLYLINE
5
120
100
AcDbEntity
8
0
100
AcDbPolyline
90
8
70
1
43
0.0
10
16.799999999380006
20
44.100000000400001
42
-0.41421356237309503
10
17.799999999379999
20
45.100000000400001
10
29.799999999380002
20
45.100000000400001
42
-0.41421356237309503
10
30.799999999380002
20
44.100000000400001
10
30.799999999380002
20
32.100000000400001
42
-0.41421356237309503
10
29.799999999380002
20
31.100000000400001
10
17.799999999379999
20
31.100000000400001
42
-0.41421356237309503
10
16.799999999379999
20
32.100000000400001
0
LWPOLYLINE
5
121
100
AcDbEntity
8
0
100
AcDbPolyline
90
8
70
1
43
0.0
10
-52.250000000619998
20
44.100000000400001
42
-0.41421356237309503
10
-51.250000000620005
20
45.100000000400001
10
-39.250000000619998
20
45.100000000400001
42
-0.41421356237309503
10
-38.250000000619998
20
44.100000000400001
10
-38.250000000619998
20
32.100000000400001
42
-0.41421356237309503
10
-39.250000000619998
20
31.100000000400001
10
-51.250000000620005
20
31.100000000400009
42
-0.41421356237309503
10
-52.250000000619998
20
32.100000000400001
0
LWPOLYLINE
5
122
100
AcDbEntity
8
0
100
AcDbPolyline
90
8
70
1
43
0.0
10
-71.300000000620003
20
44.100000000400001
42
-0.41421356237309503
10
-70.300000000620003
20
45.100000000400001
10
-58.300000000620003
20
45.100000000400001
42
-0.41421356237309503
10
-57.300000000620003
20
44.100000000400001
10
-57.300000000620003
20
32.100000000400001
42
-0.41421356237309503
10
-58.300000000620003
20
31.100000000400001
10
-70.300000000620003
20
31.100000000400009
42
-0.41421356237309503
10
-71.300000000620003
20
32.100000000400001
0
LWPOLYLINE
5
123
100
AcDbEntity
8
0
100
AcDbPolyline
90
8
70
1
43
0.0
10
-90.35000000062
20
44.100000000400001
42
-0.41421356237309503
10
-89.350000000620014
20
45.100000000400001
10
-77.35000000062
20
45.100000000400001
42
-0.41421356237309503
10
-76.350000000620014
20
44.100000000400001
10
-76.35000000062
20
32.100000000400001
42
-0.41421356237309503
10
-77.35000000062
20
31.100000000400001
10
-89.350000000620014
20
31.100000000400009
42
-0.41421356237309503
10
-90.35000000062
20
32.100000000400001
0
LWPOLYLINE
5
124
100
AcDbEntity
8
0
100
AcDbPolyline
90
4
70
1
43
0.0
10
-105.8499999993
20
13.049999999900002
42
-0.99999999999999989
10
-107.8499999993
20
13.049999999900002
10
-107.8499999993
20
25.049999999899999
42
-0.99999999999999989
10
-105.8499999993
20
25.049999999899999
0
LWPOLYLINE
5
125
100
AcDbEntity
8
0
100
AcDbPolyline
90
8
70
1
43
0.0
10
-89.249999999259998
20
26.049999999899995
42
-0.41421356237309503
10
-88.249999999259998
20
25.049999999899999
10
-88.249999999259998
20
13.049999999900002
42
-0.41421356237309503
10
-89.249999999259998
20
12.049999999900001
10
-101.2499999993
20
12.049999999900006
42
-0.41421356237309503
10
-102.2499999993
20
13.049999999900002
10
-102.2499999993
20
25.049999999899999
42
-0.41421356237309503
10
-101.2499999993
20
26.049999999899999
0
LWPOLYLINE
5
126
100
AcDbEntity
8
0
100
AcDbPolyline
90
4
70
1
43
0.0
10
-82.649999999260018
20
13.049999999900002
42
-0.99999999999999989
10
-84.649999999260004
20
13.049999999900002
10
-84.649999999260004
20
25.049999999899999
42
-0.99999999999999989
10
-82.649999999260018
20
25.049999999899999
0
LWPOLYLINE
5
127
100
AcDbEntity
8
0
100
AcDbPolyline
90
8
70
1
43
0.0
10
-76.049999999060006
20
25.049999999899999
42
-0.41421356237309503
10
-75.04999999906002
20
26.049999999899999
10
-63.049999999060006
20
26.049999999899995
42
-0.41421356237309503
10
-62.049999999060006
20
25.049999999899999
10
-62.049999999060006
20
13.049999999900002
42
-0.41421356237309503
10
-63.049999999060006
20
12.049999999900001
10
-75.04999999906002
20
12.049999999900006
42
-0.41421356237309503
10
-76.049999999060006
20
13.049999999900002
0
LWPOLYLINE
5
128
100
AcDbEntity
8
0
100
AcDbPolyline
90
8
70
1
43
0.0
10
-56.999999999059995
20
25.049999999899999
42
-0.41421356237309503
10
-55.999999999060002
20
26.049999999899999
10
-43.999999999060002
20
26.049999999899995
42
-0.41421356237309503
10
-42.999999999060002
20
25.049999999899999
10
-42.999999999059995
20
13.049999999900002
42
-0.41421356237309503
10
-43.999999999060002
20
12.049999999900001
10
-55.999999999060002
20
12.049999999900006
42
-0.41421356237309503
10
-56.999999999059995
20
13.049999999900002
0
LWPOLYLINE
5
129
100
AcDbEntity
8
0
100
AcDbPolyline
90
8
70
1
43
0.0
10
-37.949999999059997
20
25.049999999899999
42
-0.41421356237309503
10
-36.949999999059997
20
26.049999999899999
10
-24.949999999060001
20
26.049999999899999
42
-0.41421356237309503
10
-23.949999999060001
20
25.049999999899999
10
-23.949999999060001
20
13.049999999900002
42
-0.41421356237309503
10
-24.949999999060001
20
12.049999999900001
10
-36.949999999059997
20
12.049999999900001
42
-0.41421356237309503
10
-37.949999999059997
20
13.049999999900002
0
LWPOLYLINE
5
130
100
AcDbEntity
8
0
100
AcDbPolyline
90
8
70
1
43
0.0
10
-18.89999999906
20
25.049999999899999
42
-0.41421356237309503
10
-17.89999999906
20
26.049999999899999
10
-5.8999999990649998
20
26.049999999899999
42
-0.41421356237309503
10
-4.8999999990649998
20
25.049999999899999
10
-4.8999999990649989
20
13.049999999900002
42
-0.41421356237309503
10
-5.8999999990649998
20
12.049999999900001
10
-17.89999999906
20
12.049999999900001
42
-0.41421356237309503
10
-18.89999999906
20
13.049999999900002
0
LWPOLYLINE
5
131
100
AcDbEntity
8
0
100
AcDbPolyline
90
8
70
1
43
0.0
10
0.15000000093499916
20
25.049999999899999
42
-0.41421356237309503
10
1.1500000009350009
20
26.049999999899999
10
13.15000000094
20
26.049999999899999
42
-0.41421356237309503
10
14.150000000940002
20
25.049999999899999
10
14.150000000940002
20
13.049999999900002
42
-0.41421356237309503
10
13.15000000094
20
12.049999999900001
10
1.1500000009350011
20
12.049999999900001
42
-0.41421356237309531
10
0.15000000093499999
20
13.049999999900002
0
LWPOLYLINE
5
132
100
AcDbEntity
8
0
100
AcDbPolyline
90
8
70
1
43
0.0
10
19.200000000940001
20
25.049999999899999
42
-0.41421356237309503
10
20.200000000940005
20
26.049999999899999
10
32.200000000940001
20
26.049999999899999
42
-0.41421356237309503
10
33.200000000940001
20
25.049999999899999
10
33.200000000940001
20
13.049999999900002
42
-0.41421356237309503
10
32.200000000940001
20
12.049999999900001
10
20.200000000940005
20
12.049999999900001
42
-0.41421356237309503
10
19.200000000940001
20
13.049999999900002
0
LWPOLYLINE
5
133
100
AcDbEntity
8
0
100
AcDbPolyline
90
8
70
1
43
0.0
10
51.250000000940005
20
26.049999999899995
42
-0.41421356237309503
10
52.250000000939998
20
25.049999999899999
10
52.250000000940005
20
13.049999999900002
42
-0.41421356237309503
10
51.250000000940005
20
12.049999999900001
10
39.250000000940005
20
12.049999999900001
42
-0.41421356237309503
10
38.250000000939998
20
13.049999999900002
10
38.250000000939998
20
25.049999999899999
42
-0.41421356237309503
10
39.250000000940005
20
26.049999999899999
0
LWPOLYLINE
5
134
100
AcDbEntity
8
0
100
AcDbPolyline
90
8
70
1
43
0.0
10
58.300000000940003
20
12.049999999900006
42
-0.41421356237309503
10
57.30000000094001
20
13.049999999900002
10
57.300000000940003
20
25.049999999899999
42
-0.41421356237309503
10
58.300000000940003
20
26.049999999899999
10
70.300000000940003
20
26.049999999899995
42
-0.41421356237309503
10
71.300000000940003
20
25.049999999899999
10
71.300000000940003
20
13.049999999900002
42
-0.41421356237309503
10
70.300000000940003
20
12.049999999900001
0
LWPOLYLINE
5
135
100
AcDbEntity
8
0
100
AcDbPolyline
90
8
70
1
43
0.0
10
77.350000000940014
20
12.049999999900006
42
-0.41421356237309503
10
76.350000000940014
20
13.049999999900002
10
76.350000000940014
20
25.049999999899999
42
-0.41421356237309503
10
77.350000000940014
20
26.049999999899999
10
89.35000000094
20
26.049999999899995
42
-0.41421356237309503
10
90.35000000094
20
25.049999999899999
10
90.35000000094
20
13.049999999900002
42
-0.41421356237309503
10
89.35000000094
20
12.049999999900001
0
LWPOLYLINE
5
136
100
AcDbEntity
8
0
100
AcDbPolyline
90
8
70
1
43
0.0
10
108.40000000090001
20
26.049999999899995
42
-0.41421356237309503
10
109.40000000090001
20
25.049999999899999
10
109.40000000090001
20
13.049999999900002
42
-0.41421356237309503
10
108.40000000090001
20
12.049999999900001
10
96.400000000939997
20
12.049999999900006
42
-0.41421356237309503
10
95.400000000939997
20
13.049999999900002
10
95.400000000939997
20
25.049999999899999
42
-0.41421356237309503
10
96.400000000939997
20
26.049999999899999
0
LWPOLYLINE
5
137
100
AcDbEntity
8
0
100
AcDbPolyline
90
8
70
1
43
0.0
10
140.34500000060001
20
13.049999999900002
42
-0.41421356237309503
10
139.34500000060001
20
12.049999999900001
10
127.34500000060001
20
12.049999999900006
42
-0.41421356237309503
10
126.34500000060001
20
13.049999999900002
10
126.34500000060001
20
25.049999999899999
42
-0.41421356237309503
10
127.34500000060001
20
26.049999999899999
10
139.34500000060001
20
26.049999999899995
42
-0.41421356237309503
10
140.34500000060001
20
25.049999999899999
0
LWPOLYLINE
5
138
100
AcDbEntity
8
0
100
AcDbPolyline
90
4
70
1
43
0.0
10
150.70000000030001
20
-6.0000000001000009
42
-0.99999999999999989
10
148.70000000030001
20
-6.0000000001000009
10
148.70000000030001
20
5.9999999999
42
-0.99999999999999989
10
150.70000000030001
20
5.9999999999
0
LWPOLYLINE
5
139
100
AcDbEntity
8
0
100
AcDbPolyline
90
8
70
1
43
0.0
10
131.10000000030001
20
5.9999999999
42
-0.41421356237309503
10
132.10000000030001
20
6.9999999999
10
144.10000000030004
20
6.9999999998999964
42
-0.41421356237309503
10
145.10000000030001
20
5.9999999999
10
145.10000000030001
20
-6.0000000001000018
42
-0.4142135623730947
10
144.10000000030004
20
-7.0000000001000009
10
132.10000000030001
20
-7.0000000000999973
42
-0.41421356237309503
10
131.10000000030001
20
-6.0000000001000009
0
LWPOLYLINE
5
140
100
AcDbEntity
8
0
100
AcDbPolyline
90
4
70
1
43
0.0
10
125.50000000030002
20
5.9999999999
42
-0.99999999999999989
10
127.50000000030001
20
5.9999999999
10
127.50000000030001
20
-6.0000000001000009
42
-0.99999999999999989
10
125.50000000030002
20
-6.0000000001000009
0
LWPOLYLINE
5
141
100
AcDbEntity
8
0
100
AcDbPolyline
90
8
70
1
43
0.0
10
104.90000000010001
20
5.9999999999
42
-0.41421356237309503
10
105.90000000010001
20
6.9999999999
10
117.90000000009999
20
6.9999999998999964
42
-0.41421356237309503
10
118.90000000009999
20
5.9999999999
10
118.90000000009999
20
-6.0000000001000018
42
-0.4142135623730947
10
117.90000000009999
20
-7.0000000001000009
10
105.90000000010001
20
-7.0000000000999973
42
-0.41421356237309503
10
104.90000000010001
20
-6.0000000001000009
0
LWPOLYLINE
5
142
100
AcDbEntity
8
0
100
AcDbPolyline
90
8
70
1
43
0.0
10
85.85000000014
20
5.9999999999
42
-0.41421356237309503
10
86.85000000014
20
6.9999999999
10
98.850000000140014
20
6.9999999998999964
42
-0.41421356237309503
10
99.85000000014
20
5.9999999999
10
99.85000000014
20
-6.0000000001000018
42
-0.4142135623730947
10
98.850000000140014
20
-7.0000000001000009
10
86.85000000014
20
-7.0000000000999973
42
-0.41421356237309503
10
85.85000000014
20
-6.0000000001000009
0
LWPOLYLINE
5
143
100
AcDbEntity
8
0
100
AcDbPolyline
90
8
70
1
43
0.0
10
66.800000000140017
20
5.9999999999
42
-0.41421356237309503
10
67.800000000140002
20
6.9999999999
10
79.800000000140002
20
6.9999999999000053
42
-0.41421356237309503
10
80.800000000140017
20
5.9999999999
10
80.800000000140017
20
-6.0000000001000018
42
-0.4142135623730947
10
79.800000000140002
20
-7.0000000001000009
10
67.800000000140002
20
-7.0000000000999973
42
-0.41421356237309503
10
66.800000000140017
20
-6.0000000001000009
0
LWPOLYLINE
5
144
100
AcDbEntity
8
0
100
AcDbPolyline
90
8
70
1
43
0.0
10
47.750000000140005
20
5.9999999999
42
-0.41421356237309503
10
48.750000000140005
20
6.9999999999
10
60.750000000140005
20
6.9999999998999964
42
-0.41421356237309503
10
61.750000000140005
20
5.9999999999
10
61.750000000140005
20
-6.0000000001000018
42
-0.4142135623730947
10
60.750000000140005
20
-7.0000000001000009
10
48.750000000140005
20
-7.0000000000999973
42
-0.41421356237309503
10
47.750000000140005
20
-6.0000000001000009
0
LWPOLYLINE
5
145
100
AcDbEntity
8
0
100
AcDbPolyline
90
8
70
1
43
0.0
10
28.700000000140001
20
5.9999999999
42
-0.41421356237309503
10
29.700000000140001
20
6.9999999999
10
41.700000000140001
20
6.9999999998999964
42
-0.41421356237309503
10
42.700000000140001
20
5.9999999999
10
42.700000000140001
20
-6.0000000001000018
42
-0.4142135623730947
10
41.700000000140001
20
-7.0000000001000009
10
29.700000000140001
20
-7.0000000001000018
42
-0.41421356237309503
10
28.700000000140001
20
-6.0000000001000009
0
LWPOLYLINE
5
146
100
AcDbEntity
8
0
100
AcDbPolyline
90
8
70
1
43
0.0
10
9.6500000001400004
20
5.9999999999
42
-0.41421356237309503
10
10.65000000014
20
6.9999999999
10
22.65000000014
20
6.9999999999000009
42
-0.41421356237309503
10
23.65000000014
20
5.9999999999
10
23.65000000014
20
-6.0000000001000018
42
-0.4142135623730947
10
22.65000000014
20
-7.0000000001000009
10
10.65000000014
20
-7.0000000001000009
42
-0.41421356237309503
10
9.6500000001400004
20
-6.0000000001000009
0
LWPOLYLINE
5
147
100
AcDbEntity
8
0
100
AcDbPolyline
90
8
70
1
43
0.0
10
-9.3999999998650008
20
5.9999999999
42
-0.41421356237309503
10
-8.3999999998650008
20
6.9999999999
10
3.600000000135001
20
6.9999999999
42
-0.41421356237309492
10
4.600000000135001
20
5.9999999999
10
4.6000000001350001
20
-6.0000000001000018
42
-0.4142135623730947
10
3.6000000001349997
20
-7.0000000001000009
10
-8.3999999998650026
20
-7.0000000001000009
42
-0.4142135623730947
10
-9.3999999998650008
20
-6.0000000001000009
0
LWPOLYLINE
5
148
100
AcDbEntity
8
0
100
AcDbPolyline
90
8
70
1
43
0.0
10
-28.449999999860005
20
5.9999999999
42
-0.41421356237309503
10
-27.449999999860001
20
6.9999999999
10
-15.449999999860001
20
6.9999999999000009
42
-0.41421356237309503
10
-14.449999999859999
20
5.9999999999
10
-14.449999999859999
20
-6.0000000001000018
42
-0.4142135623730947
10
-15.449999999860001
20
-7.0000000001000009
10
-27.449999999860001
20
-7.0000000001000018
42
-0.41421356237309503
10
-28.449999999860005
20
-6.0000000001000009
0
LWPOLYLINE
5
149
100
AcDbEntity
8
0
100
AcDbPolyline
90
8
70
1
43
0.0
10
-47.499999999859995
20
5.9999999999
42
-0.41421356237309503
10
-46.499999999860002
20
6.9999999999
10
-34.499999999860002
20
6.9999999999000009
42
-0.41421356237309503
10
-33.499999999860002
20
5.9999999999
10
-33.499999999860002
20
-6.0000000001000018
42
-0.4142135623730947
10
-34.499999999860002
20
-7.0000000001000009
10
-46.499999999860002
20
-7.0000000000999973
42
-0.41421356237309503
10
-47.499999999859995
20
-6.0000000001000009
0
LWPOLYLINE
5
150
100
AcDbEntity
8
0
100
AcDbPolyline
90
8
70
1
43
0.0
10
-66.549999999860006
20
5.9999999999
42
-0.41421356237309503
10
-65.549999999860006
20
6.9999999999
10
-53.549999999859999
20
6.9999999998999964
42
-0.41421356237309503
10
-52.549999999860006
20
5.9999999999
10
-52.549999999860006
20
-6.0000000001000018
42
-0.4142135623730947
10
-53.549999999859999
20
-7.0000000001000009
10
-65.549999999860006
20
-7.0000000000999973
42
-0.41421356237309503
10
-66.549999999860006
20
-6.0000000001000009
0
LWPOLYLINE
5
151
100
AcDbEntity
8
0
100
AcDbPolyline
90
8
70
1
43
0.0
10
-85.599999999860017
20
5.9999999999
42
-0.41421356237309503
10
-84.599999999860017
20
6.9999999999
10
-72.599999999860003
20
6.9999999998999964
42
-0.41421356237309503
10
-71.599999999860003
20
5.9999999999
10
-71.599999999860003
20
-6.0000000001000018
42
-0.4142135623730947
10
-72.599999999860003
20
-7.0000000001000009
10
-84.599999999860017
20
-7.0000000000999973
42
-0.41421356237309503
10
-85.599999999860017
20
-6.0000000001000009
0
LWPOLYLINE
5
152
100
AcDbEntity
8
0
100
AcDbPolyline
90
8
70
1
43
0.0
10
-100.1500000006
20
36.800000000399997
42
-0.41421356237309503
10
-101.1500000006
20
35.800000000399997
10
-113.15000000060002
20
35.800000000400004
42
-0.41421356237309503
10
-114.15000000060002
20
36.800000000399997
10
-114.15000000060002
20
48.800000000399997
42
-0.41421356237309503
10
-113.15000000060002
20
49.800000000399997
10
-101.1500000006
20
49.800000000399997
42
-0.41421356237309503
10
-100.1500000006
20
48.800000000399997
0
LWPOLYLINE
5
153
100
AcDbEntity
8
0
100
AcDbPolyline
90
8
70
1
43
0.0
10
-138.25000000060004
20
36.800000000399997
42
-0.41421356237309503
10
-139.25000000060004
20
35.800000000399997
10
-151.25000000060001
20
35.800000000400004
42
-0.41421356237309503
10
-152.25000000060001
20
36.800000000399997
10
-152.25000000060001
20
48.800000000399997
42
-0.41421356237309503
10
-151.25000000060001
20
49.800000000399997
10
-139.25000000060004
20
49.800000000399997
42
-0.41421356237309503
10
-138.25000000060004
20
48.800000000399997
0
LWPOLYLINE
5
154
100
AcDbEntity
8
0
100
AcDbPolyline
90
8
70
1
43
0.0
10
-119.20000000060001
20
36.800000000399997
42
-0.41421356237309503
10
-120.20000000060001
20
35.800000000399997
10
-132.2000000006
20
35.800000000400004
42
-0.41421356237309503
10
-133.2000000006
20
36.800000000399997
10
-133.2000000006
20
48.800000000399997
42
-0.41421356237309503
10
-132.2000000006
20
49.800000000399997
10
-120.20000000060001
20
49.800000000399997
42
-0.41421356237309503
10
-119.20000000060001
20
48.800000000399997
0
LWPOLYLINE
5
155
100
AcDbEntity
8
0
100
AcDbPolyline
90
8
70
1
43
0.0
10
-138.25000000060004
20
-1.2999999996
42
-0.41421356237309503
10
-139.25000000060004
20
-2.2999999996000002
10
-151.25000000060001
20
-2.2999999995999962
42
-0.41421356237309503
10
-152.25000000060001
20
-1.2999999995999989
10
-152.25000000060001
20
10.700000000400003
42
-0.41421356237309437
10
-151.25000000060001
20
11.700000000400001
10
-139.25000000060004
20
11.700000000399998
42
-0.41421356237309503
10
-138.25000000060004
20
10.700000000400001
0
LWPOLYLINE
5
156
100
AcDbEntity
8
0
100
AcDbPolyline
90
4
70
1
43
0.0
10
151.09000000060001
20
-13.050000000100002
10
151.09000000060001
20
-25.050000000099999
42
0.99999999999999989
10
153.09000000060001
20
-25.050000000099999
10
153.09000000060001
20
-13.050000000100002
42
0.99999999999999989
0
LWPOLYLINE
5
157
100
AcDbEntity
8
0
100
AcDbPolyline
90
8
70
1
43
0.0
10
133.49000000059999
20
-13.050000000100002
10
133.49000000059999
20
-25.050000000099999
42
0.41421356237309503
10
134.49000000059999
20
-26.050000000099999
10
146.49000000059999
20
-26.050000000099999
42
0.41421356237309503
10
147.49000000059999
20
-25.050000000099999
10
147.49000000059999
20
-13.050000000100002
42
0.41421356237309503
10
146.49000000059999
20
-12.050000000100001
10
134.49000000059999
20
-12.050000000100001
42
0.41421356237309503
0
LWPOLYLINE
5
158
100
AcDbEntity
8
0
100
AcDbPolyline
90
4
70
1
43
0.0
10
129.8900000006
20
-25.050000000099999
10
129.8900000006
20
-13.050000000100002
42
0.99999999999999989
10
127.8900000006
20
-13.050000000100002
10
127.89000000060001
20
-25.050000000099999
42
0.99999999999999989
0
LWPOLYLINE
5
159
100
AcDbEntity
8
0
100
AcDbPolyline
90
8
70
1
43
0.0
10
109.67500000050002
20
-13.050000000100002
10
109.67500000050002
20
-25.050000000099999
42
0.41421356237309503
10
110.67500000050002
20
-26.050000000099999
10
122.67500000050001
20
-26.050000000099999
42
0.41421356237309503
10
123.67500000050001
20
-25.050000000099999
10
123.67500000050001
20
-13.050000000100002
42
0.41421356237309503
10
122.67500000050001
20
-12.050000000100001
10
110.67500000050002
20
-12.050000000100001
42
0.41421356237309503
0
LWPOLYLINE
5
160
100
AcDbEntity
8
0
100
AcDbPolyline
90
8
70
1
43
0.0
10
90.625000000539998
20
-13.050000000100002
10
90.625000000539998
20
-25.050000000099999
42
0.41421356237309503
10
91.625000000540012
20
-26.050000000099999
10
103.62500000049999
20
-26.050000000099999
42
0.41421356237309503
10
104.62500000049999
20
-25.050000000099999
10
104.62500000049999
20
-13.050000000100002
42
0.41421356237309503
10
103.62500000049999
20
-12.050000000100001
10
91.625000000540012
20
-12.050000000100001
42
0.41421356237309503
0
LWPOLYLINE
5
161
100
AcDbEntity
8
0
100
AcDbPolyline
90
8
70
1
43
0.0
10
71.575000000540001
20
-13.050000000100002
10
71.575000000540001
20
-25.050000000099999
42
0.41421356237309503
10
72.575000000540001
20
-26.050000000099999
10
84.575000000540001
20
-26.050000000099999
42
0.41421356237309503
10
85.575000000540001
20
-25.050000000099999
10
85.575000000540001
20
-13.050000000100002
42
0.41421356237309503
10
84.575000000540001
20
-12.050000000100001
10
72.575000000540001
20
-12.050000000100001
42
0.41421356237309503
0
LWPOLYLINE
5
162
100
AcDbEntity
8
0
100
AcDbPolyline
90
8
70
1
43
0.0
10
52.525000000539997
20
-13.050000000100002
10
52.525000000539997
20
-25.050000000099999
42
0.41421356237309503
10
53.525000000540004
20
-26.050000000099999
10
65.525000000540004
20
-26.050000000099999
42
0.41421356237309503
10
66.525000000540018
20
-25.050000000099999
10
66.525000000540004
20
-13.050000000100002
42
0.41421356237309503
10
65.525000000540004
20
-12.050000000100001
10
53.525000000540004
20
-12.050000000100001
42
0.41421356237309503
0
LWPOLYLINE
5
163
100
AcDbEntity
8
0
100
AcDbPolyline
90
8
70
1
43
0.0
10
33.47500000054
20
-13.050000000100002
10
33.47500000054
20
-25.050000000099999
42
0.41421356237309503
10
34.47500000054
20
-26.050000000099999
10
46.475000000540007
20
-26.050000000099999
42
0.41421356237309503
10
47.47500000054
20
-25.050000000099999
10
47.47500000054
20
-13.050000000100002
42
0.41421356237309503
10
46.475000000540007
20
-12.050000000100001
10
34.47500000054
20
-12.050000000100001
42
0.41421356237309503
0
LWPOLYLINE
5
164
100
AcDbEntity
8
0
100
AcDbPolyline
90
8
70
1
43
0.0
10
14.425000000540003
20
-13.050000000100002
10
14.425000000540003
20
-25.050000000099999
42
0.41421356237309503
10
15.425000000540001
20
-26.050000000099999
10
27.425000000540003
20
-26.050000000099999
42
0.41421356237309503
10
28.425000000540003
20
-25.050000000099999
10
28.425000000540003
20
-13.050000000100002
42
0.41421356237309503
10
27.425000000540003
20
-12.050000000100001
10
15.425000000540001
20
-12.050000000100001
42
0.41421356237309503
0
LWPOLYLINE
5
165
100
AcDbEntity
8
0
100
AcDbPolyline
90
8
70
1
43
0.0
10
-4.6249999994650004
20
-13.050000000100002
10
-4.6249999994650004
20
-25.050000000099999
42
0.4142135623730952
10
-3.6249999994649995
20
-26.050000000099999
10
8.3750000005349996
20
-26.050000000099999
42
0.41421356237309503
10
9.3750000005349996
20
-25.050000000099999
10
9.3750000005349996
20
-13.050000000100002
42
0.41421356237309503
10
8.3750000005349996
20
-12.050000000100001
10
-3.624999999465
20
-12.050000000100001
42
0.41421356237309503
0
LWPOLYLINE
5
166
100
AcDbEntity
8
0
100
AcDbPolyline
90
8
70
1
43
0.0
10
-23.674999999459999
20
-13.050000000100002
10
-23.674999999459999
20
-25.050000000099999
42
0.41421356237309503
10
-22.674999999460002
20
-26.050000000099999
10
-10.674999999460002
20
-26.050000000099999
42
0.41421356237309503
10
-9.6749999994649993
20
-25.050000000099999
10
-9.6749999994600024
20
-13.050000000100002
42
0.41421356237309503
10
-10.674999999460002
20
-12.050000000100001
10
-22.674999999460002
20
-12.050000000100001
42
0.41421356237309503
0
LWPOLYLINE
5
167
100
AcDbEntity
8
0
100
AcDbPolyline
90
8
70
1
43
0.0
10
-42.724999999460003
20
-13.050000000100002
10
-42.724999999460003
20
-25.050000000099999
42
0.41421356237309503
10
-41.72499999946001
20
-26.050000000099999
10
-29.724999999460003
20
-26.050000000099999
42
0.41421356237309503
10
-28.724999999460003
20
-25.050000000099999
10
-28.724999999460003
20
-13.050000000100002
42
0.41421356237309503
10
-29.724999999460003
20
-12.050000000100001
10
-41.72499999946001
20
-12.050000000100001
42
0.41421356237309503
0
LWPOLYLINE
5
168
100
AcDbEntity
8
0
100
AcDbPolyline
90
8
70
1
43
0.0
10
-61.774999999460007
20
-13.050000000100002
10
-61.774999999460007
20
-25.050000000099999
42
0.41421356237309503
10
-60.77499999946
20
-26.050000000099999
10
-48.77499999946
20
-26.050000000099999
42
0.41421356237309503
10
-47.774999999460007
20
-25.050000000099999
10
-47.774999999460007
20
-13.050000000100002
42
0.41421356237309503
10
-48.77499999946
20
-12.050000000100001
10
-60.77499999946
20
-12.050000000100001
42
0.41421356237309503
0
LWPOLYLINE
5
169
100
AcDbEntity
8
0
100
AcDbPolyline
90
8
70
1
43
0.0
10
-80.824999999460005
20
-13.050000000100002
10
-80.824999999460005
20
-25.050000000099999
42
0.41421356237309503
10
-79.824999999460005
20
-26.050000000099999
10
-67.824999999460005
20
-26.050000000099999
42
0.41421356237309503
10
-66.824999999460005
20
-25.050000000099999
10
-66.824999999460019
20
-13.050000000100002
42
0.41421356237309503
10
-67.824999999460005
20
-12.050000000100001
10
-79.824999999460005
20
-12.050000000100001
42
0.41421356237309503
0
LWPOLYLINE
5
170
100
AcDbEntity
8
0
100
AcDbPolyline
90
8
70
1
43
0.0
10
-99.874999999460016
20
-13.050000000100002
10
-99.874999999460016
20
-25.050000000099999
42
0.41421356237309503
10
-98.874999999460016
20
-26.050000000099999
10
-86.874999999460002
20
-26.050000000099999
42
0.41421356237309503
10
-85.874999999460016
20
-25.050000000099999
10
-85.874999999460016
20
-13.050000000100002
42
0.41421356237309503
10
-86.874999999460002
20
-12.050000000100001
10
-98.874999999460016
20
-12.050000000100001
42
0.41421356237309503
0
LWPOLYLINE
5
171
100
AcDbEntity
8
0
100
AcDbPolyline
90
4
70
1
43
0.0
10
-106.0899999996
20
-13.050000000100002
10
-106.0899999996
20
-25.050000000099999
42
0.99999999999999989
10
-104.08999999960001
20
-25.050000000099999
10
-104.08999999960001
20
-13.050000000100002
42
0.99999999999999989
0
LWPOLYLINE
5
172
100
AcDbEntity
8
0
100
AcDbPolyline
90
8
70
1
43
0.0
10
-123.68999999960002
20
-13.050000000100002
10
-123.68999999960002
20
-25.050000000099999
42
0.41421356237309503
10
-122.68999999960002
20
-26.050000000099999
10
-110.6899999996
20
-26.050000000099999
42
0.41421356237309503
10
-109.68999999960002
20
-25.050000000099999
10
-109.68999999960002
20
-13.050000000100002
42
0.41421356237309503
10
-110.6899999996
20
-12.050000000100001
10
-122.68999999960002
20
-12.050000000100001
42
0.41421356237309503
0
LWPOLYLINE
5
173
100
AcDbEntity
8
0
100
AcDbPolyline
90
4
70
1
43
0.0
10
-127.28999999960001
20
-25.050000000099999
10
-127.28999999960001
20
-13.050000000100002
42
0.99999999999999989
10
-129.28999999960001
20
-13.050000000100002
10
-129.28999999960001
20
-25.050000000099999
42
0.99999999999999989
0
LWPOLYLINE
5
174
100
AcDbEntity
8
0
100
AcDbPolyline
90
8
70
1
43
0.0
10
-104.9249999995
20
-44.100000000100003
10
-104.9249999995
20
-32.100000000100003
42
0.41421356237309503
10
-105.9249999995
20
-31.100000000100003
10
-117.92499999950002
20
-31.100000000100003
42
0.41421356237309503
10
-118.92499999950002
20
-32.100000000100003
10
-118.92499999950002
20
-44.100000000100003
42
0.41421356237309503
10
-117.92499999950002
20
-45.10000000010001
10
-105.9249999995
20
-45.100000000099996
42
0.41421356237309503
0
LWPOLYLINE
5
175
100
AcDbEntity
8
0
100
AcDbPolyline
90
8
70
1
43
0.0
10
-90.34999999946001
20
-32.100000000100003
10
-90.34999999946001
20
-44.100000000100003
42
0.41421356237309503
10
-89.349999999459996
20
-45.10000000010001
10
-77.349999999459996
20
-45.100000000099996
42
0.41421356237309503
10
-76.34999999946001
20
-44.100000000100003
10
-76.34999999946001
20
-32.100000000100003
42
0.41421356237309503
10
-77.349999999459996
20
-31.100000000100003
10
-89.349999999459996
20
-31.100000000100003
42
0.41421356237309503
0
LWPOLYLINE
5
176
100
AcDbEntity
8
0
100
AcDbPolyline
90
8
70
1
43
0.0
10
-71.299999999459999
20
-32.100000000100003
10
-71.299999999459999
20
-44.100000000100003
42
0.41421356237309503
10
-70.299999999459999
20
-45.10000000010001
10
-58.299999999460006
20
-45.100000000099996
42
0.41421356237309503
10
-57.299999999459999
20
-44.100000000100003
10
-57.299999999460013
20
-32.100000000100003
42
0.41421356237309503
10
-58.299999999460006
20
-31.100000000100003
10
-70.299999999459999
20
-31.100000000100003
42
0.41421356237309503
0
LWPOLYLINE
5
177
100
AcDbEntity
8
0
100
AcDbPolyline
90
8
70
1
43
0.0
10
-52.249999999460002
20
-32.100000000100003
10
-52.249999999460002
20
-44.100000000100003
42
0.41421356237309503
10
-51.249999999460002
20
-45.10000000010001
10
-39.249999999460002
20
-45.100000000099996
42
0.41421356237309503
10
-38.249999999460002
20
-44.100000000100003
10
-38.249999999460002
20
-32.100000000100003
42
0.41421356237309503
10
-39.249999999460002
20
-31.100000000100003
10
-51.249999999460002
20
-31.100000000100003
42
0.41421356237309503
0
LWPOLYLINE
5
178
100
AcDbEntity
8
0
100
AcDbPolyline
90
8
70
1
43
0.0
10
-33.199999999459997
20
-32.100000000100003
10
-33.199999999459997
20
-44.100000000100003
42
0.41421356237309503
10
-32.199999999459997
20
-45.10000000010001
10
-20.199999999460001
20
-45.100000000099996
42
0.41421356237309503
10
-19.199999999460001
20
-44.100000000100003
10
-19.199999999460001
20
-32.100000000100003
42
0.41421356237309503
10
-20.199999999460001
20
-31.100000000100003
10
-32.199999999459997
20
-31.100000000100003
42
0.41421356237309503
0
LWPOLYLINE
5
179
100
AcDbEntity
8
0
100
AcDbPolyline
90
8
70
1
43
0.0
10
-14.14999999946
20
-32.100000000100003
10
-14.14999999946
20
-44.100000000100003
42
0.41421356237309503
10
-13.14999999946
20
-45.10000000010001
10
-1.1499999994650001
20
-45.100000000099996
42
0.41421356237309503
10
-0.1499999994647
20
-44.100000000100003
10
-0.14999999946500003
20
-32.100000000100003
42
0.4142135623730947
10
-1.149999999464999
20
-31.100000000100003
10
-13.14999999946
20
-31.100000000100003
42
0.41421356237309503
0
LWPOLYLINE
5
180
100
AcDbEntity
8
0
100
AcDbPolyline
90
8
70
1
43
0.0
10
4.900000000535
20
-32.100000000100003
10
4.900000000535
20
-44.100000000100003
42
0.4142135623730947
10
5.900000000535
20
-45.10000000010001
10
17.90000000054
20
-45.100000000099996
42
0.41421356237309503
10
18.90000000054
20
-44.100000000100003
10
18.900000000540004
20
-32.100000000100003
42
0.41421356237309437
10
17.900000000540004
20
-31.100000000100003
10
5.9000000005350008
20
-31.100000000100003
42
0.41421356237309503
0
LWPOLYLINE
5
181
100
AcDbEntity
8
0
100
AcDbPolyline
90
8
70
1
43
0.0
10
23.950000000540005
20
-32.100000000100003
10
23.950000000540005
20
-44.100000000100003
42
0.41421356237309503
10
24.950000000540005
20
-45.10000000010001
10
36.950000000540001
20
-45.100000000099996
42
0.41421356237309503
10
37.950000000540001
20
-44.100000000100003
10
37.950000000540001
20
-32.100000000100003
42
0.41421356237309503
10
36.950000000540001
20
-31.100000000100003
10
24.950000000540005
20
-31.100000000100003
42
0.41421356237309503
0
LWPOLYLINE
5
182
100
AcDbEntity
8
0
100
AcDbPolyline
90
8
70
1
43
0.0
10
43.000000000539998
20
-32.100000000100003
10
43.000000000539998
20
-44.100000000100003
42
0.41421356237309503
10
44.000000000539998
20
-45.10000000010001
10
56.000000000539998
20
-45.100000000099996
42
0.41421356237309503
10
57.000000000540005
20
-44.100000000100003
10
57.000000000539998
20
-32.100000000100003
42
0.41421356237309503
10
56.000000000539998
20
-31.100000000100003
10
44.000000000539998
20
-31.100000000100003
42
0.41421356237309503
0
LWPOLYLINE
5
183
100
AcDbEntity
8
0
100
AcDbPolyline
90
8
70
1
43
0.0
10
62.050000000540003
20
-32.100000000100003
10
62.050000000540003
20
-44.100000000100003
42
0.41421356237309503
10
63.05000000054001
20
-45.10000000010001
10
75.050000000539995
20
-45.100000000099996
42
0.41421356237309503
10
76.050000000539995
20
-44.100000000100003
10
76.050000000539995
20
-32.100000000100003
42
0.41421356237309503
10
75.050000000539995
20
-31.100000000100003
10
63.05000000054001
20
-31.100000000100003
42
0.41421356237309503
0
LWPOLYLINE
5
184
100
AcDbEntity
8
0
100
AcDbPolyline
90
8
70
1
43
0.0
10
81.100000000540007
20
-32.100000000100003
10
81.100000000540007
20
-44.100000000100003
42
0.41421356237309503
10
82.100000000540007
20
-45.10000000010001
10
94.100000000540007
20
-45.100000000099996
42
0.41421356237309503
10
95.100000000540007
20
-44.100000000100003
10
95.100000000540007
20
-32.100000000100003
42
0.41421356237309503
10
94.100000000540007
20
-31.100000000100003
10
82.100000000540007
20
-31.100000000100003
42
0.41421356237309503
0
LWPOLYLINE
5
185
100
AcDbEntity
8
0
100
AcDbPolyline
90
8
70
1
43
0.0
10
100.15000000050001
20
-32.100000000100003
10
100.15000000050001
20
-44.100000000100003
42
0.41421356237309503
10
101.15000000050001
20
-45.10000000010001
10
113.1500000005
20
-45.100000000099996
42
0.41421356237309503
10
114.1500000005
20
-44.100000000100003
10
114.1500000005
20
-32.100000000100003
42
0.41421356237309503
10
113.1500000005
20
-31.100000000100003
10
101.15000000050001
20
-31.100000000100003
42
0.41421356237309503
0
LWPOLYLINE
5
186
100
AcDbEntity
8
0
100
AcDbPolyline
90
8
70
1
43
0.0
10
119.20000000050001
20
-32.100000000100003
10
119.20000000050001
20
-44.100000000100003
42
0.41421356237309503
10
120.20000000050001
20
-45.10000000010001
10
132.20000000050001
20
-45.100000000099996
42
0.41421356237309503
10
133.20000000050001
20
-44.100000000100003
10
133.20000000050001
20
-32.100000000100003
42
0.41421356237309503
10
132.20000000050001
20
-31.100000000100003
10
120.20000000050001
20
-31.100000000100003
42
0.41421356237309503
0
LWPOLYLINE
5
187
100
AcDbEntity
8
0
100
AcDbPolyline
90
8
70
1
43
0.0
10
138.25000000049999
20
-32.100000000100003
10
138.25000000049999
20
-44.100000000100003
42
0.41421356237309503
10
139.25000000049999
20
-45.10000000010001
10
151.25000000049999
20
-45.100000000099996
42
0.41421356237309503
10
152.25000000049999
20
-44.100000000100003
10
152.25000000049999
20
-32.100000000100003
42
0.41421356237309503
10
151.25000000049999
20
-31.100000000100003
10
139.25000000049999
20
-31.100000000100003
42
0.41421356237309503
0
CIRCLE
5
188
100
AcDbEntity
8
0
100
AcDbCircle
10
-138.3499999995
20
-31.2499999996
30
0
40
1.6000000000000003
210
0
220
0
230
1
0
ENDSEC
0
SECTION
2
OBJECTS
0
DICTIONARY
5
C
100
AcDbDictionary
3
ACAD_GROUP
350
D
3
ACAD_MLINESTYLE
350
17
0
DICTIONARY
5
D
100
AcDbDictionary
0
DICTIONARY
5
1A
330
C
100
AcDbDictionary
0
DICTIONARY
5
17
100
AcDbDictionary
0
ENDSEC
0
EOF
