%FSLAX45Y45*%
G04 Gerber Fmt 4.5, Leading zero omitted, Abs format (unit mm)*
G04 Created by KiCad (PCBNEW (5.1.9)-1) date 2021-02-10 15:31:54*
%MOMM*%
%LPD*%
G01*
G04 APERTURE LIST*
%TA.AperFunction,Profile*%
%ADD10C,0.100000*%
%TD*%
%ADD11C,0.200000*%
%ADD12C,0.300000*%
G04 APERTURE END LIST*
D10*
X1325000Y-13125000D02*
G75*
G03*
X1325000Y-13125000I-160000J0D01*
G01*
X28825000Y-13210000D02*
G75*
G02*
X28925000Y-13110000I100000J0D01*
G01*
X30125000Y-13110000D02*
X28925000Y-13110000D01*
X30125000Y-13110000D02*
G75*
G02*
X30225000Y-13210000I0J-100000D01*
G01*
X30225000Y-14410000D02*
X30225000Y-13210000D01*
X30225000Y-14410000D02*
G75*
G02*
X30125000Y-14510000I-100000J0D01*
G01*
X28925000Y-14510000D02*
X30125000Y-14510000D01*
X28925000Y-14510000D02*
G75*
G02*
X28825000Y-14410000I0J100000D01*
G01*
X28825000Y-13210000D02*
X28825000Y-14410000D01*
X26920000Y-13210000D02*
G75*
G02*
X27020000Y-13110000I100000J0D01*
G01*
X28220000Y-13110000D02*
X27020000Y-13110000D01*
X28220000Y-13110000D02*
G75*
G02*
X28320000Y-13210000I0J-100000D01*
G01*
X28320000Y-14410000D02*
X28320000Y-13210000D01*
X28320000Y-14410000D02*
G75*
G02*
X28220000Y-14510000I-100000J0D01*
G01*
X27020000Y-14510000D02*
X28220000Y-14510000D01*
X27020000Y-14510000D02*
G75*
G02*
X26920000Y-14410000I0J100000D01*
G01*
X26920000Y-13210000D02*
X26920000Y-14410000D01*
X25015000Y-13210000D02*
G75*
G02*
X25115000Y-13110000I100000J0D01*
G01*
X26315000Y-13110000D02*
X25115000Y-13110000D01*
X26315000Y-13110000D02*
G75*
G02*
X26415000Y-13210000I0J-100000D01*
G01*
X26415000Y-14410000D02*
X26415000Y-13210000D01*
X26415000Y-14410000D02*
G75*
G02*
X26315000Y-14510000I-100000J0D01*
G01*
X25115000Y-14510000D02*
X26315000Y-14510000D01*
X25115000Y-14510000D02*
G75*
G02*
X25015000Y-14410000I0J100000D01*
G01*
X25015000Y-13210000D02*
X25015000Y-14410000D01*
X23110000Y-13210000D02*
G75*
G02*
X23210000Y-13110000I100000J0D01*
G01*
X24410000Y-13110000D02*
X23210000Y-13110000D01*
X24410000Y-13110000D02*
G75*
G02*
X24510000Y-13210000I0J-100000D01*
G01*
X24510000Y-14410000D02*
X24510000Y-13210000D01*
X24510000Y-14410000D02*
G75*
G02*
X24410000Y-14510000I-100000J0D01*
G01*
X23210000Y-14510000D02*
X24410000Y-14510000D01*
X23210000Y-14510000D02*
G75*
G02*
X23110000Y-14410000I0J100000D01*
G01*
X23110000Y-13210000D02*
X23110000Y-14410000D01*
X21205000Y-13210000D02*
G75*
G02*
X21305000Y-13110000I100000J0D01*
G01*
X22505000Y-13110000D02*
X21305000Y-13110000D01*
X22505000Y-13110000D02*
G75*
G02*
X22605000Y-13210000I0J-100000D01*
G01*
X22605000Y-14410000D02*
X22605000Y-13210000D01*
X22605000Y-14410000D02*
G75*
G02*
X22505000Y-14510000I-100000J0D01*
G01*
X21305000Y-14510000D02*
X22505000Y-14510000D01*
X21305000Y-14510000D02*
G75*
G02*
X21205000Y-14410000I0J100000D01*
G01*
X21205000Y-13210000D02*
X21205000Y-14410000D01*
X19300000Y-13210000D02*
G75*
G02*
X19400000Y-13110000I100000J0D01*
G01*
X20600000Y-13110000D02*
X19400000Y-13110000D01*
X20600000Y-13110000D02*
G75*
G02*
X20700000Y-13210000I0J-100000D01*
G01*
X20700000Y-14410000D02*
X20700000Y-13210000D01*
X20700000Y-14410000D02*
G75*
G02*
X20600000Y-14510000I-100000J0D01*
G01*
X19400000Y-14510000D02*
X20600000Y-14510000D01*
X19400000Y-14510000D02*
G75*
G02*
X19300000Y-14410000I0J100000D01*
G01*
X19300000Y-13210000D02*
X19300000Y-14410000D01*
X17395000Y-13210000D02*
G75*
G02*
X17495000Y-13110000I100000J0D01*
G01*
X18695000Y-13110000D02*
X17495000Y-13110000D01*
X18695000Y-13110000D02*
G75*
G02*
X18795000Y-13210000I0J-100000D01*
G01*
X18795000Y-14410000D02*
X18795000Y-13210000D01*
X18795000Y-14410000D02*
G75*
G02*
X18695000Y-14510000I-100000J0D01*
G01*
X17495000Y-14510000D02*
X18695000Y-14510000D01*
X17495000Y-14510000D02*
G75*
G02*
X17395000Y-14410000I0J100000D01*
G01*
X17395000Y-13210000D02*
X17395000Y-14410000D01*
X15490000Y-13210000D02*
G75*
G02*
X15590000Y-13110000I100000J0D01*
G01*
X16790000Y-13110000D02*
X15590000Y-13110000D01*
X16790000Y-13110000D02*
G75*
G02*
X16890000Y-13210000I0J-100000D01*
G01*
X16890000Y-14410000D02*
X16890000Y-13210000D01*
X16890000Y-14410000D02*
G75*
G02*
X16790000Y-14510000I-100000J0D01*
G01*
X15590000Y-14510000D02*
X16790000Y-14510000D01*
X15590000Y-14510000D02*
G75*
G02*
X15490000Y-14410000I0J100000D01*
G01*
X15490000Y-13210000D02*
X15490000Y-14410000D01*
X13585000Y-13210000D02*
G75*
G02*
X13685000Y-13110000I100000J0D01*
G01*
X14885000Y-13110000D02*
X13685000Y-13110000D01*
X14885000Y-13110000D02*
G75*
G02*
X14985000Y-13210000I0J-100000D01*
G01*
X14985000Y-14410000D02*
X14985000Y-13210000D01*
X14985000Y-14410000D02*
G75*
G02*
X14885000Y-14510000I-100000J0D01*
G01*
X13685000Y-14510000D02*
X14885000Y-14510000D01*
X13685000Y-14510000D02*
G75*
G02*
X13585000Y-14410000I0J100000D01*
G01*
X13585000Y-13210000D02*
X13585000Y-14410000D01*
X11680000Y-13210000D02*
G75*
G02*
X11780000Y-13110000I100000J0D01*
G01*
X12980000Y-13110000D02*
X11780000Y-13110000D01*
X12980000Y-13110000D02*
G75*
G02*
X13080000Y-13210000I0J-100000D01*
G01*
X13080000Y-14410000D02*
X13080000Y-13210000D01*
X13080000Y-14410000D02*
G75*
G02*
X12980000Y-14510000I-100000J0D01*
G01*
X11780000Y-14510000D02*
X12980000Y-14510000D01*
X11780000Y-14510000D02*
G75*
G02*
X11680000Y-14410000I0J100000D01*
G01*
X11680000Y-13210000D02*
X11680000Y-14410000D01*
X9775000Y-13210000D02*
G75*
G02*
X9875000Y-13110000I100000J0D01*
G01*
X11075000Y-13110000D02*
X9875000Y-13110000D01*
X11075000Y-13110000D02*
G75*
G02*
X11175000Y-13210000I0J-100000D01*
G01*
X11175000Y-14410000D02*
X11175000Y-13210000D01*
X11175000Y-14410000D02*
G75*
G02*
X11075000Y-14510000I-100000J0D01*
G01*
X9875000Y-14510000D02*
X11075000Y-14510000D01*
X9875000Y-14510000D02*
G75*
G02*
X9775000Y-14410000I0J100000D01*
G01*
X9775000Y-13210000D02*
X9775000Y-14410000D01*
X7870000Y-13210000D02*
G75*
G02*
X7970000Y-13110000I100000J0D01*
G01*
X9170000Y-13110000D02*
X7970000Y-13110000D01*
X9170000Y-13110000D02*
G75*
G02*
X9270000Y-13210000I0J-100000D01*
G01*
X9270000Y-14410000D02*
X9270000Y-13210000D01*
X9270000Y-14410000D02*
G75*
G02*
X9170000Y-14510000I-100000J0D01*
G01*
X7970000Y-14510000D02*
X9170000Y-14510000D01*
X7970000Y-14510000D02*
G75*
G02*
X7870000Y-14410000I0J100000D01*
G01*
X7870000Y-13210000D02*
X7870000Y-14410000D01*
X5965000Y-13210000D02*
G75*
G02*
X6065000Y-13110000I100000J0D01*
G01*
X7265000Y-13110000D02*
X6065000Y-13110000D01*
X7265000Y-13110000D02*
G75*
G02*
X7365000Y-13210000I0J-100000D01*
G01*
X7365000Y-14410000D02*
X7365000Y-13210000D01*
X7365000Y-14410000D02*
G75*
G02*
X7265000Y-14510000I-100000J0D01*
G01*
X6065000Y-14510000D02*
X7265000Y-14510000D01*
X6065000Y-14510000D02*
G75*
G02*
X5965000Y-14410000I0J100000D01*
G01*
X5965000Y-13210000D02*
X5965000Y-14410000D01*
X4507500Y-14410000D02*
G75*
G02*
X4407500Y-14510000I-100000J0D01*
G01*
X3207500Y-14510000D02*
X4407500Y-14510000D01*
X3207500Y-14510000D02*
G75*
G02*
X3107500Y-14410000I0J100000D01*
G01*
X3107500Y-13210000D02*
X3107500Y-14410000D01*
X3107500Y-13210000D02*
G75*
G02*
X3207500Y-13110000I100000J0D01*
G01*
X4407500Y-13110000D02*
X3207500Y-13110000D01*
X4407500Y-13110000D02*
G75*
G02*
X4507500Y-13210000I0J-100000D01*
G01*
X4507500Y-14410000D02*
X4507500Y-13210000D01*
X2271000Y-12505000D02*
G75*
G02*
X2071000Y-12505000I-100000J0D01*
G01*
X2071000Y-11305000D02*
X2071000Y-12505000D01*
X2071000Y-11305000D02*
G75*
G02*
X2271000Y-11305000I100000J0D01*
G01*
X2271000Y-12505000D02*
X2271000Y-11305000D01*
X2631000Y-11305000D02*
G75*
G02*
X2731000Y-11205000I100000J0D01*
G01*
X3931000Y-11205000D02*
X2731000Y-11205000D01*
X3931000Y-11205000D02*
G75*
G02*
X4031000Y-11305000I0J-100000D01*
G01*
X4031000Y-12505000D02*
X4031000Y-11305000D01*
X4031000Y-12505000D02*
G75*
G02*
X3931000Y-12605000I-100000J0D01*
G01*
X2731000Y-12605000D02*
X3931000Y-12605000D01*
X2731000Y-12605000D02*
G75*
G02*
X2631000Y-12505000I0J100000D01*
G01*
X2631000Y-11305000D02*
X2631000Y-12505000D01*
X4391000Y-11305000D02*
G75*
G02*
X4591000Y-11305000I100000J0D01*
G01*
X4591000Y-12505000D02*
X4591000Y-11305000D01*
X4591000Y-12505000D02*
G75*
G02*
X4391000Y-12505000I-100000J0D01*
G01*
X4391000Y-11305000D02*
X4391000Y-12505000D01*
X5012500Y-11305000D02*
G75*
G02*
X5112500Y-11205000I100000J0D01*
G01*
X6312500Y-11205000D02*
X5112500Y-11205000D01*
X6312500Y-11205000D02*
G75*
G02*
X6412500Y-11305000I0J-100000D01*
G01*
X6412500Y-12505000D02*
X6412500Y-11305000D01*
X6412500Y-12505000D02*
G75*
G02*
X6312500Y-12605000I-100000J0D01*
G01*
X5112500Y-12605000D02*
X6312500Y-12605000D01*
X5112500Y-12605000D02*
G75*
G02*
X5012500Y-12505000I0J100000D01*
G01*
X5012500Y-11305000D02*
X5012500Y-12505000D01*
X6917500Y-11305000D02*
G75*
G02*
X7017500Y-11205000I100000J0D01*
G01*
X8217500Y-11205000D02*
X7017500Y-11205000D01*
X8217500Y-11205000D02*
G75*
G02*
X8317500Y-11305000I0J-100000D01*
G01*
X8317500Y-12505000D02*
X8317500Y-11305000D01*
X8317500Y-12505000D02*
G75*
G02*
X8217500Y-12605000I-100000J0D01*
G01*
X7017500Y-12605000D02*
X8217500Y-12605000D01*
X7017500Y-12605000D02*
G75*
G02*
X6917500Y-12505000I0J100000D01*
G01*
X6917500Y-11305000D02*
X6917500Y-12505000D01*
X8822500Y-11305000D02*
G75*
G02*
X8922500Y-11205000I100000J0D01*
G01*
X10122500Y-11205000D02*
X8922500Y-11205000D01*
X10122500Y-11205000D02*
G75*
G02*
X10222500Y-11305000I0J-100000D01*
G01*
X10222500Y-12505000D02*
X10222500Y-11305000D01*
X10222500Y-12505000D02*
G75*
G02*
X10122500Y-12605000I-100000J0D01*
G01*
X8922500Y-12605000D02*
X10122500Y-12605000D01*
X8922500Y-12605000D02*
G75*
G02*
X8822500Y-12505000I0J100000D01*
G01*
X8822500Y-11305000D02*
X8822500Y-12505000D01*
X10727500Y-11305000D02*
G75*
G02*
X10827500Y-11205000I100000J0D01*
G01*
X12027500Y-11205000D02*
X10827500Y-11205000D01*
X12027500Y-11205000D02*
G75*
G02*
X12127500Y-11305000I0J-100000D01*
G01*
X12127500Y-12505000D02*
X12127500Y-11305000D01*
X12127500Y-12505000D02*
G75*
G02*
X12027500Y-12605000I-100000J0D01*
G01*
X10827500Y-12605000D02*
X12027500Y-12605000D01*
X10827500Y-12605000D02*
G75*
G02*
X10727500Y-12505000I0J100000D01*
G01*
X10727500Y-11305000D02*
X10727500Y-12505000D01*
X12632500Y-11305000D02*
G75*
G02*
X12732500Y-11205000I100000J0D01*
G01*
X13932500Y-11205000D02*
X12732500Y-11205000D01*
X13932500Y-11205000D02*
G75*
G02*
X14032500Y-11305000I0J-100000D01*
G01*
X14032500Y-12505000D02*
X14032500Y-11305000D01*
X14032500Y-12505000D02*
G75*
G02*
X13932500Y-12605000I-100000J0D01*
G01*
X12732500Y-12605000D02*
X13932500Y-12605000D01*
X12732500Y-12605000D02*
G75*
G02*
X12632500Y-12505000I0J100000D01*
G01*
X12632500Y-11305000D02*
X12632500Y-12505000D01*
X14537500Y-11305000D02*
G75*
G02*
X14637500Y-11205000I100000J0D01*
G01*
X15837500Y-11205000D02*
X14637500Y-11205000D01*
X15837500Y-11205000D02*
G75*
G02*
X15937500Y-11305000I0J-100000D01*
G01*
X15937500Y-12505000D02*
X15937500Y-11305000D01*
X15937500Y-12505000D02*
G75*
G02*
X15837500Y-12605000I-100000J0D01*
G01*
X14637500Y-12605000D02*
X15837500Y-12605000D01*
X14637500Y-12605000D02*
G75*
G02*
X14537500Y-12505000I0J100000D01*
G01*
X14537500Y-11305000D02*
X14537500Y-12505000D01*
X16442500Y-11305000D02*
G75*
G02*
X16542500Y-11205000I100000J0D01*
G01*
X17742500Y-11205000D02*
X16542500Y-11205000D01*
X17742500Y-11205000D02*
G75*
G02*
X17842500Y-11305000I0J-100000D01*
G01*
X17842500Y-12505000D02*
X17842500Y-11305000D01*
X17842500Y-12505000D02*
G75*
G02*
X17742500Y-12605000I-100000J0D01*
G01*
X16542500Y-12605000D02*
X17742500Y-12605000D01*
X16542500Y-12605000D02*
G75*
G02*
X16442500Y-12505000I0J100000D01*
G01*
X16442500Y-11305000D02*
X16442500Y-12505000D01*
X18347500Y-11305000D02*
G75*
G02*
X18447500Y-11205000I100000J0D01*
G01*
X19647500Y-11205000D02*
X18447500Y-11205000D01*
X19647500Y-11205000D02*
G75*
G02*
X19747500Y-11305000I0J-100000D01*
G01*
X19747500Y-12505000D02*
X19747500Y-11305000D01*
X19747500Y-12505000D02*
G75*
G02*
X19647500Y-12605000I-100000J0D01*
G01*
X18447500Y-12605000D02*
X19647500Y-12605000D01*
X18447500Y-12605000D02*
G75*
G02*
X18347500Y-12505000I0J100000D01*
G01*
X18347500Y-11305000D02*
X18347500Y-12505000D01*
X20252500Y-11305000D02*
G75*
G02*
X20352500Y-11205000I100000J0D01*
G01*
X21552500Y-11205000D02*
X20352500Y-11205000D01*
X21552500Y-11205000D02*
G75*
G02*
X21652500Y-11305000I0J-100000D01*
G01*
X21652500Y-12505000D02*
X21652500Y-11305000D01*
X21652500Y-12505000D02*
G75*
G02*
X21552500Y-12605000I-100000J0D01*
G01*
X20352500Y-12605000D02*
X21552500Y-12605000D01*
X20352500Y-12605000D02*
G75*
G02*
X20252500Y-12505000I0J100000D01*
G01*
X20252500Y-11305000D02*
X20252500Y-12505000D01*
X22157500Y-11305000D02*
G75*
G02*
X22257500Y-11205000I100000J0D01*
G01*
X23457500Y-11205000D02*
X22257500Y-11205000D01*
X23457500Y-11205000D02*
G75*
G02*
X23557500Y-11305000I0J-100000D01*
G01*
X23557500Y-12505000D02*
X23557500Y-11305000D01*
X23557500Y-12505000D02*
G75*
G02*
X23457500Y-12605000I-100000J0D01*
G01*
X22257500Y-12605000D02*
X23457500Y-12605000D01*
X22257500Y-12605000D02*
G75*
G02*
X22157500Y-12505000I0J100000D01*
G01*
X22157500Y-11305000D02*
X22157500Y-12505000D01*
X24062500Y-11305000D02*
G75*
G02*
X24162500Y-11205000I100000J0D01*
G01*
X25362500Y-11205000D02*
X24162500Y-11205000D01*
X25362500Y-11205000D02*
G75*
G02*
X25462500Y-11305000I0J-100000D01*
G01*
X25462500Y-12505000D02*
X25462500Y-11305000D01*
X25462500Y-12505000D02*
G75*
G02*
X25362500Y-12605000I-100000J0D01*
G01*
X24162500Y-12605000D02*
X25362500Y-12605000D01*
X24162500Y-12605000D02*
G75*
G02*
X24062500Y-12505000I0J100000D01*
G01*
X24062500Y-11305000D02*
X24062500Y-12505000D01*
X25967500Y-11305000D02*
G75*
G02*
X26067500Y-11205000I100000J0D01*
G01*
X27267500Y-11205000D02*
X26067500Y-11205000D01*
X27267500Y-11205000D02*
G75*
G02*
X27367500Y-11305000I0J-100000D01*
G01*
X27367500Y-12505000D02*
X27367500Y-11305000D01*
X27367500Y-12505000D02*
G75*
G02*
X27267500Y-12605000I-100000J0D01*
G01*
X26067500Y-12605000D02*
X27267500Y-12605000D01*
X26067500Y-12605000D02*
G75*
G02*
X25967500Y-12505000I0J100000D01*
G01*
X25967500Y-11305000D02*
X25967500Y-12505000D01*
X27989000Y-12505000D02*
G75*
G02*
X27789000Y-12505000I-100000J0D01*
G01*
X27789000Y-11305000D02*
X27789000Y-12505000D01*
X27789000Y-11305000D02*
G75*
G02*
X27989000Y-11305000I100000J0D01*
G01*
X27989000Y-12505000D02*
X27989000Y-11305000D01*
X28349000Y-11305000D02*
G75*
G02*
X28449000Y-11205000I100000J0D01*
G01*
X29649000Y-11205000D02*
X28449000Y-11205000D01*
X29649000Y-11205000D02*
G75*
G02*
X29749000Y-11305000I0J-100000D01*
G01*
X29749000Y-12505000D02*
X29749000Y-11305000D01*
X29749000Y-12505000D02*
G75*
G02*
X29649000Y-12605000I-100000J0D01*
G01*
X28449000Y-12605000D02*
X29649000Y-12605000D01*
X28449000Y-12605000D02*
G75*
G02*
X28349000Y-12505000I0J100000D01*
G01*
X28349000Y-11305000D02*
X28349000Y-12505000D01*
X30109000Y-11305000D02*
G75*
G02*
X30309000Y-11305000I100000J0D01*
G01*
X30309000Y-12505000D02*
X30309000Y-11305000D01*
X30309000Y-12505000D02*
G75*
G02*
X30109000Y-12505000I-100000J0D01*
G01*
X30109000Y-11305000D02*
X30109000Y-12505000D01*
X1175000Y-8930000D02*
X1175000Y-10130000D01*
X1075000Y-8830000D02*
G75*
G02*
X1175000Y-8930000I0J-100000D01*
G01*
X-125000Y-8830000D02*
X1075000Y-8830000D01*
X-225000Y-8930000D02*
G75*
G02*
X-125000Y-8830000I100000J0D01*
G01*
X-225000Y-10130000D02*
X-225000Y-8930000D01*
X-125000Y-10230000D02*
G75*
G02*
X-225000Y-10130000I0J100000D01*
G01*
X1075000Y-10230000D02*
X-125000Y-10230000D01*
X1175000Y-10130000D02*
G75*
G02*
X1075000Y-10230000I-100000J0D01*
G01*
X3080000Y-5120000D02*
X3080000Y-6320000D01*
X2980000Y-5020000D02*
G75*
G02*
X3080000Y-5120000I0J-100000D01*
G01*
X1780000Y-5020000D02*
X2980000Y-5020000D01*
X1680000Y-5120000D02*
G75*
G02*
X1780000Y-5020000I100000J0D01*
G01*
X1680000Y-6320000D02*
X1680000Y-5120000D01*
X1780000Y-6420000D02*
G75*
G02*
X1680000Y-6320000I0J100000D01*
G01*
X2980000Y-6420000D02*
X1780000Y-6420000D01*
X3080000Y-6320000D02*
G75*
G02*
X2980000Y-6420000I-100000J0D01*
G01*
X1175000Y-5120000D02*
X1175000Y-6320000D01*
X1075000Y-5020000D02*
G75*
G02*
X1175000Y-5120000I0J-100000D01*
G01*
X-125000Y-5020000D02*
X1075000Y-5020000D01*
X-225000Y-5120000D02*
G75*
G02*
X-125000Y-5020000I100000J0D01*
G01*
X-225000Y-6320000D02*
X-225000Y-5120000D01*
X-125000Y-6420000D02*
G75*
G02*
X-225000Y-6320000I0J100000D01*
G01*
X1075000Y-6420000D02*
X-125000Y-6420000D01*
X1175000Y-6320000D02*
G75*
G02*
X1075000Y-6420000I-100000J0D01*
G01*
X4985000Y-5120000D02*
X4985000Y-6320000D01*
X4885000Y-5020000D02*
G75*
G02*
X4985000Y-5120000I0J-100000D01*
G01*
X3685000Y-5020000D02*
X4885000Y-5020000D01*
X3585000Y-5120000D02*
G75*
G02*
X3685000Y-5020000I100000J0D01*
G01*
X3585000Y-6320000D02*
X3585000Y-5120000D01*
X3685000Y-6420000D02*
G75*
G02*
X3585000Y-6320000I0J100000D01*
G01*
X4885000Y-6420000D02*
X3685000Y-6420000D01*
X4985000Y-6320000D02*
G75*
G02*
X4885000Y-6420000I-100000J0D01*
G01*
X6440000Y-10600000D02*
X6440000Y-9400000D01*
X6540000Y-10700000D02*
G75*
G02*
X6440000Y-10600000I0J100000D01*
G01*
X7740000Y-10700000D02*
X6540000Y-10700000D01*
X7840000Y-10600000D02*
G75*
G02*
X7740000Y-10700000I-100000J0D01*
G01*
X7840000Y-9400000D02*
X7840000Y-10600000D01*
X7740000Y-9300000D02*
G75*
G02*
X7840000Y-9400000I0J-100000D01*
G01*
X6540000Y-9300000D02*
X7740000Y-9300000D01*
X6440000Y-9400000D02*
G75*
G02*
X6540000Y-9300000I100000J0D01*
G01*
X8345000Y-10600000D02*
X8345000Y-9400000D01*
X8445000Y-10700000D02*
G75*
G02*
X8345000Y-10600000I0J100000D01*
G01*
X9645000Y-10700000D02*
X8445000Y-10700000D01*
X9745000Y-10600000D02*
G75*
G02*
X9645000Y-10700000I-100000J0D01*
G01*
X9745000Y-9400000D02*
X9745000Y-10600000D01*
X9645000Y-9300000D02*
G75*
G02*
X9745000Y-9400000I0J-100000D01*
G01*
X8445000Y-9300000D02*
X9645000Y-9300000D01*
X8345000Y-9400000D02*
G75*
G02*
X8445000Y-9300000I100000J0D01*
G01*
X10250000Y-10600000D02*
X10250000Y-9400000D01*
X10350000Y-10700000D02*
G75*
G02*
X10250000Y-10600000I0J100000D01*
G01*
X11550000Y-10700000D02*
X10350000Y-10700000D01*
X11650000Y-10600000D02*
G75*
G02*
X11550000Y-10700000I-100000J0D01*
G01*
X11650000Y-9400000D02*
X11650000Y-10600000D01*
X11550000Y-9300000D02*
G75*
G02*
X11650000Y-9400000I0J-100000D01*
G01*
X10350000Y-9300000D02*
X11550000Y-9300000D01*
X10250000Y-9400000D02*
G75*
G02*
X10350000Y-9300000I100000J0D01*
G01*
X12155000Y-10600000D02*
X12155000Y-9400000D01*
X12255000Y-10700000D02*
G75*
G02*
X12155000Y-10600000I0J100000D01*
G01*
X13455000Y-10700000D02*
X12255000Y-10700000D01*
X13555000Y-10600000D02*
G75*
G02*
X13455000Y-10700000I-100000J0D01*
G01*
X13555000Y-9400000D02*
X13555000Y-10600000D01*
X13455000Y-9300000D02*
G75*
G02*
X13555000Y-9400000I0J-100000D01*
G01*
X12255000Y-9300000D02*
X13455000Y-9300000D01*
X12155000Y-9400000D02*
G75*
G02*
X12255000Y-9300000I100000J0D01*
G01*
X14060000Y-10600000D02*
X14060000Y-9400000D01*
X14160000Y-10700000D02*
G75*
G02*
X14060000Y-10600000I0J100000D01*
G01*
X15360000Y-10700000D02*
X14160000Y-10700000D01*
X15460000Y-10600000D02*
G75*
G02*
X15360000Y-10700000I-100000J0D01*
G01*
X15460000Y-9400000D02*
X15460000Y-10600000D01*
X15360000Y-9300000D02*
G75*
G02*
X15460000Y-9400000I0J-100000D01*
G01*
X14160000Y-9300000D02*
X15360000Y-9300000D01*
X14060000Y-9400000D02*
G75*
G02*
X14160000Y-9300000I100000J0D01*
G01*
X15965000Y-10600000D02*
X15965000Y-9400000D01*
X16065000Y-10700000D02*
G75*
G02*
X15965000Y-10600000I0J100000D01*
G01*
X17265000Y-10700000D02*
X16065000Y-10700000D01*
X17365000Y-10600000D02*
G75*
G02*
X17265000Y-10700000I-100000J0D01*
G01*
X17365000Y-9400000D02*
X17365000Y-10600000D01*
X17265000Y-9300000D02*
G75*
G02*
X17365000Y-9400000I0J-100000D01*
G01*
X16065000Y-9300000D02*
X17265000Y-9300000D01*
X15965000Y-9400000D02*
G75*
G02*
X16065000Y-9300000I100000J0D01*
G01*
X17870000Y-10600000D02*
X17870000Y-9400000D01*
X17970000Y-10700000D02*
G75*
G02*
X17870000Y-10600000I0J100000D01*
G01*
X19170000Y-10700000D02*
X17970000Y-10700000D01*
X19270000Y-10600000D02*
G75*
G02*
X19170000Y-10700000I-100000J0D01*
G01*
X19270000Y-9400000D02*
X19270000Y-10600000D01*
X19170000Y-9300000D02*
G75*
G02*
X19270000Y-9400000I0J-100000D01*
G01*
X17970000Y-9300000D02*
X19170000Y-9300000D01*
X17870000Y-9400000D02*
G75*
G02*
X17970000Y-9300000I100000J0D01*
G01*
X19775000Y-10600000D02*
X19775000Y-9400000D01*
X19875000Y-10700000D02*
G75*
G02*
X19775000Y-10600000I0J100000D01*
G01*
X21075000Y-10700000D02*
X19875000Y-10700000D01*
X21175000Y-10600000D02*
G75*
G02*
X21075000Y-10700000I-100000J0D01*
G01*
X21175000Y-9400000D02*
X21175000Y-10600000D01*
X21075000Y-9300000D02*
G75*
G02*
X21175000Y-9400000I0J-100000D01*
G01*
X19875000Y-9300000D02*
X21075000Y-9300000D01*
X19775000Y-9400000D02*
G75*
G02*
X19875000Y-9300000I100000J0D01*
G01*
X21680000Y-10600000D02*
X21680000Y-9400000D01*
X21780000Y-10700000D02*
G75*
G02*
X21680000Y-10600000I0J100000D01*
G01*
X22980000Y-10700000D02*
X21780000Y-10700000D01*
X23080000Y-10600000D02*
G75*
G02*
X22980000Y-10700000I-100000J0D01*
G01*
X23080000Y-9400000D02*
X23080000Y-10600000D01*
X22980000Y-9300000D02*
G75*
G02*
X23080000Y-9400000I0J-100000D01*
G01*
X21780000Y-9300000D02*
X22980000Y-9300000D01*
X21680000Y-9400000D02*
G75*
G02*
X21780000Y-9300000I100000J0D01*
G01*
X23585000Y-10600000D02*
X23585000Y-9400000D01*
X23685000Y-10700000D02*
G75*
G02*
X23585000Y-10600000I0J100000D01*
G01*
X24885000Y-10700000D02*
X23685000Y-10700000D01*
X24985000Y-10600000D02*
G75*
G02*
X24885000Y-10700000I-100000J0D01*
G01*
X24985000Y-9400000D02*
X24985000Y-10600000D01*
X24885000Y-9300000D02*
G75*
G02*
X24985000Y-9400000I0J-100000D01*
G01*
X23685000Y-9300000D02*
X24885000Y-9300000D01*
X23585000Y-9400000D02*
G75*
G02*
X23685000Y-9300000I100000J0D01*
G01*
X25490000Y-10600000D02*
X25490000Y-9400000D01*
X25590000Y-10700000D02*
G75*
G02*
X25490000Y-10600000I0J100000D01*
G01*
X26790000Y-10700000D02*
X25590000Y-10700000D01*
X26890000Y-10600000D02*
G75*
G02*
X26790000Y-10700000I-100000J0D01*
G01*
X26890000Y-9400000D02*
X26890000Y-10600000D01*
X26790000Y-9300000D02*
G75*
G02*
X26890000Y-9400000I0J-100000D01*
G01*
X25590000Y-9300000D02*
X26790000Y-9300000D01*
X25490000Y-9400000D02*
G75*
G02*
X25590000Y-9300000I100000J0D01*
G01*
X27550000Y-10600000D02*
X27550000Y-9400000D01*
X27750000Y-10600000D02*
G75*
G02*
X27550000Y-10600000I-100000J0D01*
G01*
X27750000Y-9400000D02*
X27750000Y-10600000D01*
X27550000Y-9400000D02*
G75*
G02*
X27750000Y-9400000I100000J0D01*
G01*
X28110000Y-10600000D02*
X28110000Y-9400000D01*
X28210000Y-10700000D02*
G75*
G02*
X28110000Y-10600000I0J100000D01*
G01*
X29410000Y-10700000D02*
X28210000Y-10700000D01*
X29510000Y-10600000D02*
G75*
G02*
X29410000Y-10700000I-100000J0D01*
G01*
X29510000Y-9400000D02*
X29510000Y-10600000D01*
X29410000Y-9300000D02*
G75*
G02*
X29510000Y-9400000I0J-100000D01*
G01*
X28210000Y-9300000D02*
X29410000Y-9300000D01*
X28110000Y-9400000D02*
G75*
G02*
X28210000Y-9300000I100000J0D01*
G01*
X30070000Y-9400000D02*
X30070000Y-10600000D01*
X29870000Y-9400000D02*
G75*
G02*
X30070000Y-9400000I100000J0D01*
G01*
X29870000Y-10600000D02*
X29870000Y-9400000D01*
X30070000Y-10600000D02*
G75*
G02*
X29870000Y-10600000I-100000J0D01*
G01*
X29034500Y-7495000D02*
X29034500Y-8695000D01*
X28934500Y-7395000D02*
G75*
G02*
X29034500Y-7495000I0J-100000D01*
G01*
X27734500Y-7395000D02*
X28934500Y-7395000D01*
X27634500Y-7495000D02*
G75*
G02*
X27734500Y-7395000I100000J0D01*
G01*
X27634500Y-8695000D02*
X27634500Y-7495000D01*
X27734500Y-8795000D02*
G75*
G02*
X27634500Y-8695000I0J100000D01*
G01*
X28934500Y-8795000D02*
X27734500Y-8795000D01*
X29034500Y-8695000D02*
G75*
G02*
X28934500Y-8795000I-100000J0D01*
G01*
X24640000Y-7395000D02*
X25840000Y-7395000D01*
X24540000Y-7495000D02*
G75*
G02*
X24640000Y-7395000I100000J0D01*
G01*
X24540000Y-8695000D02*
X24540000Y-7495000D01*
X24640000Y-8795000D02*
G75*
G02*
X24540000Y-8695000I0J100000D01*
G01*
X25840000Y-8795000D02*
X24640000Y-8795000D01*
X25940000Y-8695000D02*
G75*
G02*
X25840000Y-8795000I-100000J0D01*
G01*
X25940000Y-7495000D02*
X25940000Y-8695000D01*
X25840000Y-7395000D02*
G75*
G02*
X25940000Y-7495000I0J-100000D01*
G01*
X23935000Y-8795000D02*
X22735000Y-8795000D01*
X24035000Y-8695000D02*
G75*
G02*
X23935000Y-8795000I-100000J0D01*
G01*
X24035000Y-7495000D02*
X24035000Y-8695000D01*
X23935000Y-7395000D02*
G75*
G02*
X24035000Y-7495000I0J-100000D01*
G01*
X22735000Y-7395000D02*
X23935000Y-7395000D01*
X22635000Y-7495000D02*
G75*
G02*
X22735000Y-7395000I100000J0D01*
G01*
X22635000Y-8695000D02*
X22635000Y-7495000D01*
X22735000Y-8795000D02*
G75*
G02*
X22635000Y-8695000I0J100000D01*
G01*
X22030000Y-8795000D02*
X20830000Y-8795000D01*
X22130000Y-8695000D02*
G75*
G02*
X22030000Y-8795000I-100000J0D01*
G01*
X22130000Y-7495000D02*
X22130000Y-8695000D01*
X22030000Y-7395000D02*
G75*
G02*
X22130000Y-7495000I0J-100000D01*
G01*
X20830000Y-7395000D02*
X22030000Y-7395000D01*
X20730000Y-7495000D02*
G75*
G02*
X20830000Y-7395000I100000J0D01*
G01*
X20730000Y-8695000D02*
X20730000Y-7495000D01*
X20830000Y-8795000D02*
G75*
G02*
X20730000Y-8695000I0J100000D01*
G01*
X18925000Y-7395000D02*
X20125000Y-7395000D01*
X18825000Y-7495000D02*
G75*
G02*
X18925000Y-7395000I100000J0D01*
G01*
X18825000Y-8695000D02*
X18825000Y-7495000D01*
X18925000Y-8795000D02*
G75*
G02*
X18825000Y-8695000I0J100000D01*
G01*
X20125000Y-8795000D02*
X18925000Y-8795000D01*
X20225000Y-8695000D02*
G75*
G02*
X20125000Y-8795000I-100000J0D01*
G01*
X20225000Y-7495000D02*
X20225000Y-8695000D01*
X20125000Y-7395000D02*
G75*
G02*
X20225000Y-7495000I0J-100000D01*
G01*
X16920000Y-8695000D02*
X16920000Y-7495000D01*
X17020000Y-8795000D02*
G75*
G02*
X16920000Y-8695000I0J100000D01*
G01*
X18220000Y-8795000D02*
X17020000Y-8795000D01*
X18320000Y-8695000D02*
G75*
G02*
X18220000Y-8795000I-100000J0D01*
G01*
X18320000Y-7495000D02*
X18320000Y-8695000D01*
X18220000Y-7395000D02*
G75*
G02*
X18320000Y-7495000I0J-100000D01*
G01*
X17020000Y-7395000D02*
X18220000Y-7395000D01*
X16920000Y-7495000D02*
G75*
G02*
X17020000Y-7395000I100000J0D01*
G01*
X15015000Y-8695000D02*
X15015000Y-7495000D01*
X15115000Y-8795000D02*
G75*
G02*
X15015000Y-8695000I0J100000D01*
G01*
X16315000Y-8795000D02*
X15115000Y-8795000D01*
X16415000Y-8695000D02*
G75*
G02*
X16315000Y-8795000I-100000J0D01*
G01*
X16415000Y-7495000D02*
X16415000Y-8695000D01*
X16315000Y-7395000D02*
G75*
G02*
X16415000Y-7495000I0J-100000D01*
G01*
X15115000Y-7395000D02*
X16315000Y-7395000D01*
X15015000Y-7495000D02*
G75*
G02*
X15115000Y-7395000I100000J0D01*
G01*
X13110000Y-8695000D02*
X13110000Y-7495000D01*
X13210000Y-8795000D02*
G75*
G02*
X13110000Y-8695000I0J100000D01*
G01*
X14410000Y-8795000D02*
X13210000Y-8795000D01*
X14510000Y-8695000D02*
G75*
G02*
X14410000Y-8795000I-100000J0D01*
G01*
X14510000Y-7495000D02*
X14510000Y-8695000D01*
X14410000Y-7395000D02*
G75*
G02*
X14510000Y-7495000I0J-100000D01*
G01*
X13210000Y-7395000D02*
X14410000Y-7395000D01*
X13110000Y-7495000D02*
G75*
G02*
X13210000Y-7395000I100000J0D01*
G01*
X11205000Y-8695000D02*
X11205000Y-7495000D01*
X11305000Y-8795000D02*
G75*
G02*
X11205000Y-8695000I0J100000D01*
G01*
X12505000Y-8795000D02*
X11305000Y-8795000D01*
X12605000Y-8695000D02*
G75*
G02*
X12505000Y-8795000I-100000J0D01*
G01*
X12605000Y-7495000D02*
X12605000Y-8695000D01*
X12505000Y-7395000D02*
G75*
G02*
X12605000Y-7495000I0J-100000D01*
G01*
X11305000Y-7395000D02*
X12505000Y-7395000D01*
X11205000Y-7495000D02*
G75*
G02*
X11305000Y-7395000I100000J0D01*
G01*
X9300000Y-8695000D02*
X9300000Y-7495000D01*
X9400000Y-8795000D02*
G75*
G02*
X9300000Y-8695000I0J100000D01*
G01*
X10600000Y-8795000D02*
X9400000Y-8795000D01*
X10700000Y-8695000D02*
G75*
G02*
X10600000Y-8795000I-100000J0D01*
G01*
X10700000Y-7495000D02*
X10700000Y-8695000D01*
X10600000Y-7395000D02*
G75*
G02*
X10700000Y-7495000I0J-100000D01*
G01*
X9400000Y-7395000D02*
X10600000Y-7395000D01*
X9300000Y-7495000D02*
G75*
G02*
X9400000Y-7395000I100000J0D01*
G01*
X7395000Y-8695000D02*
X7395000Y-7495000D01*
X7495000Y-8795000D02*
G75*
G02*
X7395000Y-8695000I0J100000D01*
G01*
X8695000Y-8795000D02*
X7495000Y-8795000D01*
X8795000Y-8695000D02*
G75*
G02*
X8695000Y-8795000I-100000J0D01*
G01*
X8795000Y-7495000D02*
X8795000Y-8695000D01*
X8695000Y-7395000D02*
G75*
G02*
X8795000Y-7495000I0J-100000D01*
G01*
X7495000Y-7395000D02*
X8695000Y-7395000D01*
X7395000Y-7495000D02*
G75*
G02*
X7495000Y-7395000I100000J0D01*
G01*
X6735000Y-7495000D02*
X6735000Y-8695000D01*
X6535000Y-7495000D02*
G75*
G02*
X6735000Y-7495000I100000J0D01*
G01*
X6535000Y-8695000D02*
X6535000Y-7495000D01*
X6735000Y-8695000D02*
G75*
G02*
X6535000Y-8695000I-100000J0D01*
G01*
X4875000Y-7395000D02*
X6075000Y-7395000D01*
X4775000Y-7495000D02*
G75*
G02*
X4875000Y-7395000I100000J0D01*
G01*
X4775000Y-8695000D02*
X4775000Y-7495000D01*
X4875000Y-8795000D02*
G75*
G02*
X4775000Y-8695000I0J100000D01*
G01*
X6075000Y-8795000D02*
X4875000Y-8795000D01*
X6175000Y-8695000D02*
G75*
G02*
X6075000Y-8795000I-100000J0D01*
G01*
X6175000Y-7495000D02*
X6175000Y-8695000D01*
X6075000Y-7395000D02*
G75*
G02*
X6175000Y-7495000I0J-100000D01*
G01*
X4415000Y-7495000D02*
X4415000Y-8695000D01*
X4215000Y-7495000D02*
G75*
G02*
X4415000Y-7495000I100000J0D01*
G01*
X4215000Y-8695000D02*
X4215000Y-7495000D01*
X4415000Y-8695000D02*
G75*
G02*
X4215000Y-8695000I-100000J0D01*
G01*
X5965000Y-6790000D02*
X5965000Y-5590000D01*
X6065000Y-6890000D02*
G75*
G02*
X5965000Y-6790000I0J100000D01*
G01*
X7265000Y-6890000D02*
X6065000Y-6890000D01*
X7365000Y-6790000D02*
G75*
G02*
X7265000Y-6890000I-100000J0D01*
G01*
X7365000Y-5590000D02*
X7365000Y-6790000D01*
X7265000Y-5490000D02*
G75*
G02*
X7365000Y-5590000I0J-100000D01*
G01*
X6065000Y-5490000D02*
X7265000Y-5490000D01*
X5965000Y-5590000D02*
G75*
G02*
X6065000Y-5490000I100000J0D01*
G01*
X7870000Y-6790000D02*
X7870000Y-5590000D01*
X7970000Y-6890000D02*
G75*
G02*
X7870000Y-6790000I0J100000D01*
G01*
X9170000Y-6890000D02*
X7970000Y-6890000D01*
X9270000Y-6790000D02*
G75*
G02*
X9170000Y-6890000I-100000J0D01*
G01*
X9270000Y-5590000D02*
X9270000Y-6790000D01*
X9170000Y-5490000D02*
G75*
G02*
X9270000Y-5590000I0J-100000D01*
G01*
X7970000Y-5490000D02*
X9170000Y-5490000D01*
X7870000Y-5590000D02*
G75*
G02*
X7970000Y-5490000I100000J0D01*
G01*
X9775000Y-6790000D02*
X9775000Y-5590000D01*
X9875000Y-6890000D02*
G75*
G02*
X9775000Y-6790000I0J100000D01*
G01*
X11075000Y-6890000D02*
X9875000Y-6890000D01*
X11175000Y-6790000D02*
G75*
G02*
X11075000Y-6890000I-100000J0D01*
G01*
X11175000Y-5590000D02*
X11175000Y-6790000D01*
X11075000Y-5490000D02*
G75*
G02*
X11175000Y-5590000I0J-100000D01*
G01*
X9875000Y-5490000D02*
X11075000Y-5490000D01*
X9775000Y-5590000D02*
G75*
G02*
X9875000Y-5490000I100000J0D01*
G01*
X16680000Y-6790000D02*
X16680000Y-5590000D01*
X16780000Y-6890000D02*
G75*
G02*
X16680000Y-6790000I0J100000D01*
G01*
X17980000Y-6890000D02*
X16780000Y-6890000D01*
X18080000Y-6790000D02*
G75*
G02*
X17980000Y-6890000I-100000J0D01*
G01*
X18080000Y-5590000D02*
X18080000Y-6790000D01*
X17980000Y-5490000D02*
G75*
G02*
X18080000Y-5590000I0J-100000D01*
G01*
X16780000Y-5490000D02*
X17980000Y-5490000D01*
X16680000Y-5590000D02*
G75*
G02*
X16780000Y-5490000I100000J0D01*
G01*
X25130000Y-6890000D02*
X23930000Y-6890000D01*
X25230000Y-6790000D02*
G75*
G02*
X25130000Y-6890000I-100000J0D01*
G01*
X25230000Y-5590000D02*
X25230000Y-6790000D01*
X25130000Y-5490000D02*
G75*
G02*
X25230000Y-5590000I0J-100000D01*
G01*
X23930000Y-5490000D02*
X25130000Y-5490000D01*
X23830000Y-5590000D02*
G75*
G02*
X23930000Y-5490000I100000J0D01*
G01*
X23830000Y-6790000D02*
X23830000Y-5590000D01*
X23930000Y-6890000D02*
G75*
G02*
X23830000Y-6790000I0J100000D01*
G01*
X27510000Y-6890000D02*
X26310000Y-6890000D01*
X27610000Y-6790000D02*
G75*
G02*
X27510000Y-6890000I-100000J0D01*
G01*
X27610000Y-5590000D02*
X27610000Y-6790000D01*
X27510000Y-5490000D02*
G75*
G02*
X27610000Y-5590000I0J-100000D01*
G01*
X26310000Y-5490000D02*
X27510000Y-5490000D01*
X26210000Y-5590000D02*
G75*
G02*
X26310000Y-5490000I100000J0D01*
G01*
X26210000Y-6790000D02*
X26210000Y-5590000D01*
X26310000Y-6890000D02*
G75*
G02*
X26210000Y-6790000I0J100000D01*
G01*
X29890000Y-6890000D02*
X28690000Y-6890000D01*
X29990000Y-6790000D02*
G75*
G02*
X29890000Y-6890000I-100000J0D01*
G01*
X29990000Y-5590000D02*
X29990000Y-6790000D01*
X29890000Y-5490000D02*
G75*
G02*
X29990000Y-5590000I0J-100000D01*
G01*
X28690000Y-5490000D02*
X29890000Y-5490000D01*
X28590000Y-5590000D02*
G75*
G02*
X28690000Y-5490000I100000J0D01*
G01*
X28590000Y-6790000D02*
X28590000Y-5590000D01*
X28690000Y-6890000D02*
G75*
G02*
X28590000Y-6790000I0J100000D01*
G01*
X26500000Y-4740000D02*
X26700000Y-4740000D01*
X26500000Y-5060000D02*
G75*
G02*
X26500000Y-4740000I0J160000D01*
G01*
X26700000Y-5060000D02*
X26500000Y-5060000D01*
X26700000Y-4740000D02*
G75*
G02*
X26700000Y-5060000I0J-160000D01*
G01*
X26500000Y-14945000D02*
X26700000Y-14945000D01*
X26500000Y-15265000D02*
G75*
G02*
X26500000Y-14945000I0J160000D01*
G01*
X26700000Y-15265000D02*
X26500000Y-15265000D01*
X26700000Y-14945000D02*
G75*
G02*
X26700000Y-15265000I0J-160000D01*
G01*
X21351250Y-6340000D02*
G75*
G02*
X21301250Y-6390000I-50000J0D01*
G01*
X20397660Y-6390000D02*
X21301250Y-6390000D01*
X20397660Y-6390000D02*
G75*
G02*
X19704840Y-6390000I-346410J200000D01*
G01*
X18801250Y-6390000D02*
X19704840Y-6390000D01*
X18801250Y-6390000D02*
G75*
G02*
X18751250Y-6340000I0J50000D01*
G01*
X18751250Y-6040000D02*
X18751250Y-6340000D01*
X18751250Y-6040000D02*
G75*
G02*
X18801250Y-5990000I50000J0D01*
G01*
X19704840Y-5990000D02*
X18801250Y-5990000D01*
X19704840Y-5990000D02*
G75*
G02*
X20397660Y-5990000I346410J-200000D01*
G01*
X21301250Y-5990000D02*
X20397660Y-5990000D01*
X21301250Y-5990000D02*
G75*
G02*
X21351250Y-6040000I0J-50000D01*
G01*
X21351250Y-6340000D02*
X21351250Y-6040000D01*
X16008750Y-6340000D02*
G75*
G02*
X15958750Y-6390000I-50000J0D01*
G01*
X15055160Y-6390000D02*
X15958750Y-6390000D01*
X15055160Y-6390000D02*
G75*
G02*
X14362340Y-6390000I-346410J200000D01*
G01*
X13458750Y-6390000D02*
X14362340Y-6390000D01*
X13458750Y-6390000D02*
G75*
G02*
X13408750Y-6340000I0J50000D01*
G01*
X13408750Y-6040000D02*
X13408750Y-6340000D01*
X13408750Y-6040000D02*
G75*
G02*
X13458750Y-5990000I50000J0D01*
G01*
X14362340Y-5990000D02*
X13458750Y-5990000D01*
X14362340Y-5990000D02*
G75*
G02*
X15055160Y-5990000I346410J-200000D01*
G01*
X15958750Y-5990000D02*
X15055160Y-5990000D01*
X15958750Y-5990000D02*
G75*
G02*
X16008750Y-6040000I0J-50000D01*
G01*
X16008750Y-6340000D02*
X16008750Y-6040000D01*
X29895800Y-8630000D02*
G75*
G02*
X29795800Y-8730000I-100000J0D01*
G01*
X29275800Y-8730000D02*
X29795800Y-8730000D01*
X29275800Y-8730000D02*
G75*
G02*
X29175800Y-8630000I0J100000D01*
G01*
X29175800Y-7275000D02*
X29175800Y-8630000D01*
X29175800Y-7275000D02*
G75*
G02*
X29275800Y-7175000I100000J0D01*
G01*
X29795800Y-7175000D02*
X29275800Y-7175000D01*
X29795800Y-7175000D02*
G75*
G02*
X29895800Y-7275000I0J-100000D01*
G01*
X29895800Y-8630000D02*
X29895800Y-7275000D01*
X27493200Y-8630000D02*
G75*
G02*
X27393200Y-8730000I-100000J0D01*
G01*
X26873200Y-8730000D02*
X27393200Y-8730000D01*
X26873200Y-8730000D02*
G75*
G02*
X26773200Y-8630000I0J100000D01*
G01*
X26773200Y-7275000D02*
X26773200Y-8630000D01*
X26773200Y-7275000D02*
G75*
G02*
X26873200Y-7175000I100000J0D01*
G01*
X27393200Y-7175000D02*
X26873200Y-7175000D01*
X27393200Y-7175000D02*
G75*
G02*
X27493200Y-7275000I0J-100000D01*
G01*
X27493200Y-8630000D02*
X27493200Y-7275000D01*
X4744500Y-9400000D02*
X4744500Y-10600000D01*
X4644500Y-9300000D02*
G75*
G02*
X4744500Y-9400000I0J-100000D01*
G01*
X3444500Y-9300000D02*
X4644500Y-9300000D01*
X3344500Y-9400000D02*
G75*
G02*
X3444500Y-9300000I100000J0D01*
G01*
X3344500Y-10600000D02*
X3344500Y-9400000D01*
X3444500Y-10700000D02*
G75*
G02*
X3344500Y-10600000I0J100000D01*
G01*
X4644500Y-10700000D02*
X3444500Y-10700000D01*
X4744500Y-10600000D02*
G75*
G02*
X4644500Y-10700000I-100000J0D01*
G01*
X2966200Y-14345000D02*
G75*
G02*
X2866200Y-14445000I-100000J0D01*
G01*
X2351200Y-14445000D02*
X2866200Y-14445000D01*
X2351200Y-14445000D02*
G75*
G02*
X2251200Y-14345000I0J100000D01*
G01*
X2251200Y-13010000D02*
X2251200Y-14345000D01*
X2251200Y-13010000D02*
G75*
G02*
X2351200Y-12910000I100000J0D01*
G01*
X2866200Y-12910000D02*
X2351200Y-12910000D01*
X2866200Y-12910000D02*
G75*
G02*
X2966200Y-13010000I0J-100000D01*
G01*
X2966200Y-14345000D02*
X2966200Y-13010000D01*
X5263800Y-12910000D02*
G75*
G02*
X5363800Y-13010000I0J-100000D01*
G01*
X5363800Y-14345000D02*
X5363800Y-13010000D01*
X5363800Y-14345000D02*
G75*
G02*
X5263800Y-14445000I-100000J0D01*
G01*
X4748800Y-14445000D02*
X5263800Y-14445000D01*
X4748800Y-14445000D02*
G75*
G02*
X4648800Y-14345000I0J100000D01*
G01*
X4648800Y-13010000D02*
X4648800Y-14345000D01*
X4648800Y-13010000D02*
G75*
G02*
X4748800Y-12910000I100000J0D01*
G01*
X5263800Y-12910000D02*
X4748800Y-12910000D01*
X22022500Y-5490000D02*
G75*
G02*
X22122500Y-5390000I100000J0D01*
G01*
X22637500Y-5390000D02*
X22122500Y-5390000D01*
X22637500Y-5390000D02*
G75*
G02*
X22737500Y-5490000I0J-100000D01*
G01*
X22737500Y-6995000D02*
X22737500Y-5490000D01*
X22737500Y-6995000D02*
G75*
G02*
X22637500Y-7095000I-100000J0D01*
G01*
X22122500Y-7095000D02*
X22637500Y-7095000D01*
X22122500Y-7095000D02*
G75*
G02*
X22022500Y-6995000I0J100000D01*
G01*
X22022500Y-5490000D02*
X22022500Y-6995000D01*
X1175000Y-8225000D02*
G75*
G02*
X1075000Y-8325000I-100000J0D01*
G01*
X-125000Y-8325000D02*
X1075000Y-8325000D01*
X-125000Y-8325000D02*
G75*
G02*
X-225000Y-8225000I0J100000D01*
G01*
X-225000Y-7025000D02*
X-225000Y-8225000D01*
X-225000Y-7025000D02*
G75*
G02*
X-125000Y-6925000I100000J0D01*
G01*
X1075000Y-6925000D02*
X-125000Y-6925000D01*
X1075000Y-6925000D02*
G75*
G02*
X1175000Y-7025000I0J-100000D01*
G01*
X1175000Y-8225000D02*
X1175000Y-7025000D01*
X12022500Y-5490000D02*
G75*
G02*
X12122500Y-5390000I100000J0D01*
G01*
X12637500Y-5390000D02*
X12122500Y-5390000D01*
X12637500Y-5390000D02*
G75*
G02*
X12737500Y-5490000I0J-100000D01*
G01*
X12737500Y-6995000D02*
X12737500Y-5490000D01*
X12737500Y-6995000D02*
G75*
G02*
X12637500Y-7095000I-100000J0D01*
G01*
X12122500Y-7095000D02*
X12637500Y-7095000D01*
X12122500Y-7095000D02*
G75*
G02*
X12022500Y-6995000I0J100000D01*
G01*
X12022500Y-5490000D02*
X12022500Y-6995000D01*
X1680000Y-7025000D02*
G75*
G02*
X1780000Y-6925000I100000J0D01*
G01*
X2980000Y-6925000D02*
X1780000Y-6925000D01*
X2980000Y-6925000D02*
G75*
G02*
X3080000Y-7025000I0J-100000D01*
G01*
X3080000Y-8225000D02*
X3080000Y-7025000D01*
X3080000Y-8225000D02*
G75*
G02*
X2980000Y-8325000I-100000J0D01*
G01*
X1780000Y-8325000D02*
X2980000Y-8325000D01*
X1780000Y-8325000D02*
G75*
G02*
X1680000Y-8225000I0J100000D01*
G01*
X1680000Y-7025000D02*
X1680000Y-8225000D01*
X4885800Y-9300000D02*
G75*
G02*
X4985800Y-9200000I100000J0D01*
G01*
X5500800Y-9200000D02*
X4985800Y-9200000D01*
X5500800Y-9200000D02*
G75*
G02*
X5600800Y-9300000I0J-100000D01*
G01*
X5600800Y-10825000D02*
X5600800Y-9300000D01*
X5600800Y-10825000D02*
G75*
G02*
X5500800Y-10925000I-100000J0D01*
G01*
X4985800Y-10925000D02*
X5500800Y-10925000D01*
X4985800Y-10925000D02*
G75*
G02*
X4885800Y-10825000I0J100000D01*
G01*
X4885800Y-9300000D02*
X4885800Y-10825000D01*
X1175000Y-12035000D02*
G75*
G02*
X1075000Y-12135000I-100000J0D01*
G01*
X-125000Y-12135000D02*
X1075000Y-12135000D01*
X-125000Y-12135000D02*
G75*
G02*
X-225000Y-12035000I0J100000D01*
G01*
X-225000Y-10835000D02*
X-225000Y-12035000D01*
X-225000Y-10835000D02*
G75*
G02*
X-125000Y-10735000I100000J0D01*
G01*
X1075000Y-10735000D02*
X-125000Y-10735000D01*
X1075000Y-10735000D02*
G75*
G02*
X1175000Y-10835000I0J-100000D01*
G01*
X1175000Y-12035000D02*
X1175000Y-10835000D01*
X2488200Y-9300000D02*
G75*
G02*
X2588200Y-9200000I100000J0D01*
G01*
X3103200Y-9200000D02*
X2588200Y-9200000D01*
X3103200Y-9200000D02*
G75*
G02*
X3203200Y-9300000I0J-100000D01*
G01*
X3203200Y-10825000D02*
X3203200Y-9300000D01*
X3203200Y-10825000D02*
G75*
G02*
X3103200Y-10925000I-100000J0D01*
G01*
X2588200Y-10925000D02*
X3103200Y-10925000D01*
X2588200Y-10925000D02*
G75*
G02*
X2488200Y-10825000I0J100000D01*
G01*
X2488200Y-9300000D02*
X2488200Y-10825000D01*
X30360000Y-4880000D02*
G75*
G02*
X30560000Y-5080000I0J-200000D01*
G01*
X29450000Y-4880000D02*
X30360000Y-4880000D01*
X29450000Y-4880000D02*
G75*
G02*
X29350000Y-4780000I0J100000D01*
G01*
X29350000Y-4500000D02*
X29350000Y-4780000D01*
X29200000Y-4350000D02*
G75*
G02*
X29350000Y-4500000I0J-150000D01*
G01*
X22900000Y-4350000D02*
X29200000Y-4350000D01*
X22750000Y-4500000D02*
G75*
G02*
X22900000Y-4350000I150000J0D01*
G01*
X22750000Y-4780000D02*
X22750000Y-4500000D01*
X22750000Y-4780000D02*
G75*
G02*
X22650000Y-4880000I-100000J0D01*
G01*
X18400000Y-4880000D02*
X22650000Y-4880000D01*
X18400000Y-4880000D02*
G75*
G02*
X18300000Y-4780000I0J100000D01*
G01*
X18300000Y-4500000D02*
X18300000Y-4780000D01*
X18150000Y-4350000D02*
G75*
G02*
X18300000Y-4500000I0J-150000D01*
G01*
X11850000Y-4350000D02*
X18150000Y-4350000D01*
X11700000Y-4500000D02*
G75*
G02*
X11850000Y-4350000I150000J0D01*
G01*
X11700000Y-4780000D02*
X11700000Y-4500000D01*
X11700000Y-4780000D02*
G75*
G02*
X11600000Y-4880000I-100000J0D01*
G01*
X7350000Y-4880000D02*
X11600000Y-4880000D01*
X7350000Y-4880000D02*
G75*
G02*
X7250000Y-4780000I0J100000D01*
G01*
X7250000Y-4500000D02*
X7250000Y-4780000D01*
X7100000Y-4350000D02*
G75*
G02*
X7250000Y-4500000I0J-150000D01*
G01*
X800000Y-4350000D02*
X7100000Y-4350000D01*
X650000Y-4500000D02*
G75*
G02*
X800000Y-4350000I150000J0D01*
G01*
X650000Y-4580000D02*
X650000Y-4500000D01*
X650000Y-4580000D02*
G75*
G02*
X600000Y-4630000I-50000J0D01*
G01*
X563676Y-4630000D02*
X600000Y-4630000D01*
X482545Y-4671539D02*
G75*
G02*
X563676Y-4630000I81131J-58462D01*
G01*
X482545Y-4671538D02*
G75*
G02*
X117455Y-4671538I-182545J131538D01*
G01*
X36324Y-4630000D02*
G75*
G02*
X117455Y-4671538I0J-100000D01*
G01*
X-360000Y-4630000D02*
X36324Y-4630000D01*
X-560000Y-4830000D02*
G75*
G02*
X-360000Y-4630000I200000J0D01*
G01*
X-560000Y-14920000D02*
X-560000Y-4830000D01*
X-360000Y-15120000D02*
G75*
G02*
X-560000Y-14920000I0J200000D01*
G01*
X2160000Y-15120000D02*
X-360000Y-15120000D01*
X2160000Y-15120000D02*
G75*
G02*
X2260000Y-15220000I0J-100000D01*
G01*
X2260000Y-15450000D02*
X2260000Y-15220000D01*
X2410000Y-15600000D02*
G75*
G02*
X2260000Y-15450000I0J150000D01*
G01*
X8710000Y-15600000D02*
X2410000Y-15600000D01*
X8860000Y-15450000D02*
G75*
G02*
X8710000Y-15600000I-150000J0D01*
G01*
X8860000Y-15220000D02*
X8860000Y-15450000D01*
X8860000Y-15220000D02*
G75*
G02*
X8960000Y-15120000I100000J0D01*
G01*
X11600000Y-15120000D02*
X8960000Y-15120000D01*
X11600000Y-15120000D02*
G75*
G02*
X11700000Y-15220000I0J-100000D01*
G01*
X11700000Y-15450000D02*
X11700000Y-15220000D01*
X11850000Y-15600000D02*
G75*
G02*
X11700000Y-15450000I0J150000D01*
G01*
X18150000Y-15600000D02*
X11850000Y-15600000D01*
X18300000Y-15450000D02*
G75*
G02*
X18150000Y-15600000I-150000J0D01*
G01*
X18300000Y-15220000D02*
X18300000Y-15450000D01*
X18300000Y-15220000D02*
G75*
G02*
X18400000Y-15120000I100000J0D01*
G01*
X22650000Y-15120000D02*
X18400000Y-15120000D01*
X22650000Y-15120000D02*
G75*
G02*
X22750000Y-15220000I0J-100000D01*
G01*
X22750000Y-15450000D02*
X22750000Y-15220000D01*
X22900000Y-15600000D02*
G75*
G02*
X22750000Y-15450000I0J150000D01*
G01*
X29200000Y-15600000D02*
X22900000Y-15600000D01*
X29350000Y-15450000D02*
G75*
G02*
X29200000Y-15600000I-150000J0D01*
G01*
X29350000Y-15220000D02*
X29350000Y-15450000D01*
X29350000Y-15220000D02*
G75*
G02*
X29450000Y-15120000I100000J0D01*
G01*
X30360000Y-15120000D02*
X29450000Y-15120000D01*
X30560000Y-14920000D02*
G75*
G02*
X30360000Y-15120000I-200000J0D01*
G01*
X30560000Y-5080000D02*
X30560000Y-14920000D01*
D11*
D12*
X-278572Y-16070714D02*
X-278572Y-15770714D01*
X-207143Y-15770714D01*
X-164286Y-15785000D01*
X-135714Y-15813571D01*
X-121429Y-15842143D01*
X-107143Y-15899286D01*
X-107143Y-15942143D01*
X-121429Y-15999286D01*
X-135714Y-16027857D01*
X-164286Y-16056429D01*
X-207143Y-16070714D01*
X-278572Y-16070714D01*
X21428Y-16070714D02*
X21428Y-15870714D01*
X21428Y-15927857D02*
X35714Y-15899286D01*
X50000Y-15885000D01*
X78571Y-15870714D01*
X107143Y-15870714D01*
X207143Y-16070714D02*
X207143Y-15870714D01*
X207143Y-15770714D02*
X192857Y-15785000D01*
X207143Y-15799286D01*
X221428Y-15785000D01*
X207143Y-15770714D01*
X207143Y-15799286D01*
X392857Y-16070714D02*
X364286Y-16056429D01*
X350000Y-16027857D01*
X350000Y-15770714D01*
X550000Y-16070714D02*
X521428Y-16056429D01*
X507143Y-16027857D01*
X507143Y-15770714D01*
X892857Y-16070714D02*
X892857Y-15770714D01*
X992857Y-15985000D01*
X1092857Y-15770714D01*
X1092857Y-16070714D01*
X1364286Y-16070714D02*
X1364286Y-15913571D01*
X1350000Y-15885000D01*
X1321428Y-15870714D01*
X1264286Y-15870714D01*
X1235714Y-15885000D01*
X1364286Y-16056429D02*
X1335714Y-16070714D01*
X1264286Y-16070714D01*
X1235714Y-16056429D01*
X1221428Y-16027857D01*
X1221428Y-15999286D01*
X1235714Y-15970714D01*
X1264286Y-15956429D01*
X1335714Y-15956429D01*
X1364286Y-15942143D01*
X1507143Y-15870714D02*
X1507143Y-16170714D01*
X1507143Y-15885000D02*
X1535714Y-15870714D01*
X1592857Y-15870714D01*
X1621428Y-15885000D01*
X1635714Y-15899286D01*
X1650000Y-15927857D01*
X1650000Y-16013571D01*
X1635714Y-16042143D01*
X1621428Y-16056429D01*
X1592857Y-16070714D01*
X1535714Y-16070714D01*
X1507143Y-16056429D01*
X1778571Y-16042143D02*
X1792857Y-16056429D01*
X1778571Y-16070714D01*
X1764286Y-16056429D01*
X1778571Y-16042143D01*
X1778571Y-16070714D01*
X1778571Y-15885000D02*
X1792857Y-15899286D01*
X1778571Y-15913571D01*
X1764286Y-15899286D01*
X1778571Y-15885000D01*
X1778571Y-15913571D01*
M02*
